<?xml version="1.0" encoding="utf-8"?>
<!-- Generator: Adobe Illustrator 26.5.0, SVG Export Plug-In . SVG Version: 6.00 Build 0)  -->
<svg version="1.1" id="Layer_1" xmlns="http://www.w3.org/2000/svg" xmlns:xlink="http://www.w3.org/1999/xlink" x="0px" y="0px"
	 viewBox="0 0 200 200" style="enable-background:new 0 0 200 200;" xml:space="preserve">
<style type="text/css">
	.st0{fill:none;stroke:#003173;stroke-width:4;stroke-miterlimit:10;}
	.st1{fill:#E64B16;}
</style>
<g id="Group_145" transform="translate(12.226 12.125)">
	<path id="Path_257" class="st0" d="M88.3,0c48.8,0.1,88.5,39.8,88.3,88.5c-0.1,48.8-39.7,88.2-88.5,88.1
		C39.4,176.5-0.1,136.9,0,88.1C0.1,39.6,39.8-0.1,88.3,0z"/>
	<path id="Path_258" class="st1" d="M71.7,104.2c3-3.3,5.8-6.6,8.9-9.6c13.5-13.3,27.2-26.5,40.8-39.8c2.5-2.4,5.3-3.5,8.7-2.4
		c5.8,1.9,7.4,9.1,2.9,13.5c-6.9,6.9-14,13.7-21,20.5c-11.5,11.3-23,22.5-34.5,33.8c-4.4,4.4-9,4.2-13.1-0.5
		c-7.6-8.4-15.2-16.9-22.7-25.3c-2.1-2.2-2.8-5.3-1.8-8.2c0.9-2.9,3.4-5,6.4-5.4c2.9-0.4,5.7,0.7,7.5,3c5.4,6.1,10.8,12.2,16.2,18.3
		C70.3,102.7,70.7,103.1,71.7,104.2"/>
</g>
</svg>
