<?xml version="1.0" encoding="utf-8"?>
<!-- Generator: Adobe Illustrator 26.5.0, SVG Export Plug-In . SVG Version: 6.00 Build 0)  -->
<svg version="1.1" id="Layer_1" xmlns="http://www.w3.org/2000/svg" xmlns:xlink="http://www.w3.org/1999/xlink" x="0px" y="0px"
	 viewBox="0 0 213 200" style="enable-background:new 0 0 213 200;" xml:space="preserve">
<style type="text/css">
	.st0{fill:#00296B;}
</style>
<g id="Group_20699" transform="translate(7 35)">
	<path id="Path_88799" class="st0" d="M13.8,96.5c-0.4,4.9,0.2,9.8,1.8,14.5c3.4,9.2,10.5,13.8,19.7,15.7c9.5,2,18.9,0.5,28.2-1.7
		c12-2.9,23.6-7.1,35.6-10.2c18.2-4.8,36.6-7.8,55.5-6.9c13.5,0.7,26.6,3.4,38.3,10.6c2,1.2,3.8,2.6,5.5,4.1
		c0.5,0.4,1.3,0.8,1.1,1.8c-9-5.5-19-7.5-29.2-8.5c-22.4-2.2-44.5,0.2-66.6,4c-12.3,2.2-24.3,5.6-36.5,8.2
		c-10.2,2.2-20.5,3.5-31,1.8c-4.5-0.6-8.8-2.2-12.6-4.7c-7.3-4.9-10.1-12.1-10.6-20.4c-0.2-3,0-6,0.4-9C14.1,95.7,14,96.1,13.8,96.5
		"/>
	<path id="Path_88800" class="st0" d="M134.3,27.4c-0.9-1.5,0.2-3.3-0.7-4.8c-0.6-0.4-0.5-1.1-0.7-1.7c-0.3,0.6-0.2,1.4-1,1.7
		c-0.4,0.4-0.8,0.5-0.7-0.3c0.2-3-0.6-5.9-2.1-8.5c1.9,1,3.3,1.7,4.8,2.5c2.6,1.4,5.7,1.6,8.4,0.4c6.9-2.8,13.8-5.6,21.2-6.7
		c5.2-0.8,10.4-1.4,15.2,1.3c3.8,2.1,5.1,4.9,2.9,8.4c-0.6,0.9-1.2,1.7-1.9,2.5c-0.2,1.3-1.4,1.5-2.3,2.1c-3.7,3-7.4,6-11.3,8.8
		c-3,2.1-6.4,3.8-9.9,4.9c-4.2,0.7-8.6-0.3-12-2.7c-3-2.1-6.3-1.6-9.5-0.3c-0.4,0.1-0.5,0-0.3-0.4c0.6-0.3,1.3-0.6,1.9-0.9
		c2.4-1.6,5.5-1.6,7.9,0.1c5.1,3.3,11.7,3.3,16.9,0.1c1.5-1.8,3.6-2.8,5.4-4.2c3.7-2.8,7.3-6,10.6-9.3c3.3-3.4,2.9-5.6-1.4-7.6
		c-2.4-1.1-5.2-1.5-7.8-1.1c-3.8,0.4-7.5,1.4-10.9,3c-0.4,0.2-0.8,0.3-1.2,0.3c0.5,0,1,0,1.5,0c0.7,0.2,1.6,0.4,1.5,1.3
		c-0.1,0.8-1,0.7-1.6,0.8c-1.8,0.2-3.5,0.8-4.8,2c-1.6,1.2-1.5,2.5,0.2,3.5c0.5,0.3,1.3,0.3,1.1,1.1c-0.2,0.8-1.1,0.8-1.8,0.8
		c-1.2,0-2.3-0.5-3.2-1.2c-0.3-0.2-0.6-0.7-1-0.4c-0.8,0.6-0.4,1.4-0.1,2.1c0.6,0.9,1.4,1.7,2.3,2.3c0.4,0.3,1,0.4,0.8,1.1
		c-2.1,0.6-3.9-0.3-5.6-1.7c-0.6,2,0,4.2,1.7,5.5c-2.6,0.2-3.7-0.6-7.8-5.5c-0.7,1.9-0.6,2.3,0.7,4c-2.5,0-3.5-1.3-3-4.3
		c0.5-2.6-0.4-4.9-1.5-7.2C135.4,21.7,135.3,24.6,134.3,27.4"/>
	<path id="Path_88801" class="st0" d="M50.8,38.7c-3.2-3-6.4-5.9-9.6-8.9c-1.2-1.1-2.2-2.4-3.1-3.8c-2.4-3.8-1.8-7.3,1.9-9.9
		c1.8-1.3,4-2,6.2-2.1c5.8-0.5,11.3,0.9,16.7,2.9c3.4,1.3,6.7,2.6,10,4.1c1.8,0.9,3.9,0.8,5.6-0.3c1.7-0.9,3.4-2.1,4.9-3.3
		c-0.3,2.1-1.2,3.8-1.1,5.6c-0.3,1.4-0.3,2.8,0,4.2c-1.3-0.9-0.7-2.4-1.8-3.2c-0.6,2.5-0.8,5.1-0.7,7.7c-1.3-2.4-1-5-1.2-7.6
		c-0.9,2.2-1.2,4.6-0.8,7c0.6,2.6-0.3,4-3,4.7c1.6-1.5,1.5-3,1-4.9c-1.7,3.1-3.1,6-7,6.9c1.5-1.9,2.2-3.8,1.6-6.1
		c-1.5,1-2.7,2.6-4.8,1.7c3.3-2.8,3.7-4,2.5-6.8c-1.6,1.2-2.9,3.4-5.6,1.9c0.5-0.2,1-0.4,1.5-0.6c1.3-0.8,1.7-2.5,0.9-3.7
		c-0.1-0.2-0.3-0.4-0.5-0.6c-1.8-1.5-3.8-2.8-6.6-2.2c0.9-1.4,2.2-1.6,3.9-1.8c-4.6-2.3-9.1-4-14.1-3.8c-1.5,0-3,0.5-4.3,1.2
		c-4.2,2.5-5.3,5.1-2,9c3.9,4.7,8.4,9,13.2,12.8c5.1,4,10.6,4.3,16.2,0.8c2.9-1.8,5.7-2.2,8.4,0.2C79,40,79,40.2,78.6,40
		c-3-1.8-5.8-1.1-8.2,1.1c-4.1,3.7-8.6,4-13.4,1.6C54.8,41.5,52.8,40.2,50.8,38.7"/>
	<path id="Path_88805" class="st0" d="M131.2,43.2c0.9,7.6,1.3,15.2-0.7,22.8c-0.8,3.7-2.6,7-5.2,9.7c-0.5,0.5-0.8,1.2-1.1,1.8
		c-1.2,3.1-3,6-5.3,8.4c-1,1.2-1.5,2.6-1.5,4.2c-0.2,2.8-0.2,5.6-0.4,8.4c0,1.5-0.4,3-1.4,4.2c1.2-3.7,0.5-7.4,0.5-11.1
		c0-2.8,0.4-5.3,2.7-7.2c0.7-0.7,1.3-1.5,1.7-2.4c0.2-0.4,1-1-0.3-1.1c-0.5-0.1-0.1-0.5,0-0.7c8.2-10.1,10.4-22,10.3-34.6
		C130.8,44.7,130.1,43.8,131.2,43.2"/>
	<path id="Path_88810" class="st0" d="M89.2,68.2c0.4-0.8,1.1-1.3,2-1.6c1.7-0.7,2.3,0.4,2.7,1.6c0.5,1.7,1.2,3.3,2.1,4.8
		c0.9,1.7,2.5,3,4.4,3.5c1.6,0.4,3.1,1.3,4.3,2.5c0.6,0.4,1.2,0.7,1.8,1c0.6,0.3,0.9,0.7,0.4,1.3c-3.5,2.4-7.9,3.2-12,2.3
		c-0.3-0.3-0.2-0.5,0.1-0.8c1.6-0.5,3.3-0.7,4.8-1.3c0.3-0.1,0.6-0.2,0.8-0.4c0.1-0.1,0.5-0.1,0.3-0.4c0-0.1-0.4,0-0.5,0
		c-4.8-1-7.6-4.2-8.1-9.3c0-0.4,0-0.8,0-1.2c-0.1-2.5-0.3-2.6-2.6-1.7C89.3,68.7,89.1,68.6,89.2,68.2"/>
	<path id="Path_88811" class="st0" d="M95.9,87.1c6.3,1.6,12.1,0.8,17.3-3.4c0.3-0.3,0.6-0.6,1-1c-0.2,5.4-4.5,8.5-9.9,7.4
		c-0.7-0.2-1.4-0.3-2.1-0.1c-5.2,1.6-7.9,0.3-10.1-4.8c-0.1-0.3-0.2-0.6-0.3-0.9C93.7,84.4,94.5,86.2,95.9,87.1"/>
	<path id="Path_88814" class="st0" d="M80.6,49.1c-1.6,9.2-1.6,18.6,0,27.8c0.4,2.2,0.9,4.3,1.1,6.5c-5-11.7-4.9-23.5-1.5-35.6
		C81.2,48,80.7,48.6,80.6,49.1"/>
	<path id="Path_88818" class="st0" d="M96.3,86.7c-0.7-0.6-1.9-0.4-2.4-1.7c2.1,0.5,4.1,1,6,0.3c3.4-1.3,7.1-1.2,10.2-3.4
		c1.1-0.8,2.5-0.1,3.8,0.2C108.9,85.7,102.6,87.4,96.3,86.7"/>
	<path id="Path_88821" class="st0" d="M114.7,82l-6.6-1.7l0.5-0.4c2.4,0.5,4.9,0.1,7.2,1.3c0.7,0.4,1.3-0.1,1.4-0.9
		c0.3-5.2,1.7-10.5-1.1-15.5c-0.6-1.2-1.4-2.2-2.4-3c-0.1-0.3,0-0.6,0.4-0.4c4,3,5.1,7.4,4.9,12c0,2.1-0.2,4.2-0.4,6.2
		C118,82.3,117.2,82.8,114.7,82"/>
	<path id="Path_88823" class="st0" d="M87.6,31c0.3,0.4,0.6,0.8,0.9,1.2c0.4,0.9,2.1,1.6,1,2.6c-1.3,1.3-3.4,1.2-4.7-0.1
		c-0.1-0.1-0.2-0.2-0.3-0.4c-0.9-1.2-0.9-2.8-1.5-4.2c0.2-1.2,1.1-0.8,1.7-0.7C85.9,29.6,86.7,30.4,87.6,31"/>
	<path id="Path_88824" class="st0" d="M130,30.1c-0.6,0.4-0.3,1.1-0.5,1.6c-1,4-2.7,4.7-6.5,2.6l1.1-1.8c0.8-1.3,2.1-2.3,3.6-2.8
		C128.4,29.3,129.5,28.7,130,30.1"/>
	<path id="Path_88826" class="st0" d="M114,107c6.5-3.9,8.6-10.4,10.4-17.6C125.3,97.1,119.6,106.6,114,107"/>
	<path id="Path_88827" class="st0" d="M95.5,39.2c1.7,3.6,2.5,7.6,2.4,11.6c-0.1,2.2-0.7,4.3-1.9,6.1c-0.3,0.5-0.6,1.1-1.4,1.2
		c3.2-6.1,1.8-12.3,0.5-18.4C94.9,39.2,95.1,39.1,95.5,39.2"/>
	<path id="Path_88829" class="st0" d="M83.9,39.1c0.8,3.7,4.3,5.8,3.3,10c-0.8,3.1,0,6.4,0.4,9.6c0.3,1.1,0.3,2.3,0,3.4
		c-1-3.7-1.5-7.6-1.4-11.5c0.2-3.9-1.7-7.2-2.6-10.7C83.5,39.8,83.6,39.7,83.9,39.1"/>
	<path id="Path_88830" class="st0" d="M93.9,97.7c-4.2-2.9-6.1-7.2-6.8-12.1c0-0.4-0.3-0.9,0.4-0.9c0.3,1.5,0.7,2.9,1.4,4.3
		c0.3-1.5,0.1-2.7,1-3.9c0,4.7,0.9,8.8,4.3,12.1C94.4,97.6,94.3,97.8,93.9,97.7"/>
	<path id="Path_88831" class="st0" d="M116,42.8c-2,6.1-2.1,7.2-0.9,16.9c-2.3-2.6-3-7.2-1.8-11.7c0.5-1.9,1.3-3.8,2.2-5.6
		C116,42.3,116.1,42.4,116,42.8"/>
	<path id="Path_88832" class="st0" d="M84.2,89.8c-2.7-6.2-2.4-12.7-1.6-19.2c0.8,0,0.5,0.5,0.4,0.9c-0.3,5.8,0.2,11.7,1.6,17.4
		C84.6,89.3,84.9,89.8,84.2,89.8"/>
	<path id="Path_88834" class="st0" d="M107.6,107.6c-2.8-0.7-5-2.8-5.9-5.5c-1.2-3.2-3.5-5.7-5.2-8.6c1.6,2,4.3,2.8,5.1,5.6
		c1,3.6,2.4,6.9,6.5,8.2C108.1,107.5,108,107.7,107.6,107.6"/>
	<path id="Path_88835" class="st0" d="M53.5,25.9c2.2-1.5,4.4-2.5,7-0.9c1,0.6,1.3,1,0.2,1.9c-1.7,1.5-2.8,3.4-3.3,5.6
		c-0.4,0.1-0.5,0-0.5-0.4c0.2-1.8,1-3.5,2.1-5c1-1.2,0.3-1.5-0.7-1.7c-1.4-0.2-2.9,0.2-4,1.1c-0.5,0.4-0.8,1.2-1.6,1.2
		C52.1,26.8,52.6,26.3,53.5,25.9"/>
	<path id="Path_88837" class="st0" d="M104.5,79.2c-1.5-1.1-3.2-2-4.9-2.6c-3.5-1.3-4.9-4.5-5.9-7.8c-0.4-1.3-0.9-2.3-2.5-2.2l0-0.7
		c1.8,0.1,2.7,1.1,3.2,2.8c1,3.2,2.3,6.3,5.8,7.4c1.8,0.6,3.4,1.6,4.7,2.9C105,79.2,104.9,79.4,104.5,79.2"/>
	<path id="Path_88839" class="st0" d="M94.7,83.5c-1.1,0-2.1-0.6-3.1-0.8c-4.1-2.4-5.4-5.9-4.3-10.5c0.6,0,0.6,0.4,0.7,0.8
		c0,4.2,1.5,7.4,5.6,9.1c0.6,0.2,1.3,0.2,1.5,1L94.7,83.5"/>
	<path id="Path_88840" class="st0" d="M106.9,94.5c1,2.8,2.9,5.2,5.3,6.8c-0.8,0.7-1.4-0.4-2.1,0c0.3,1,1.2,1.7,1.7,2.5
		c-3.4-2-4.2-5.6-5.3-8.9C106.3,94.5,106.5,94.4,106.9,94.5"/>
	<path id="Path_88842" class="st0" d="M53.5,25.9c-0.5,0.5-0.8,1.1-0.8,1.8c-0.2,0.5-0.4,1.1-1.1,1.5c0-1.8,0.7-3.5,1.8-4.9
		c0.7-1,0.4-1.4-0.5-1.9c-2-1.1-4.2-1.2-6.4-1.3c2.5-0.9,5.2-0.5,7.4,0.9c1,0.7,1.5,1.4,0.3,2.4C53.8,24.7,53.1,25.1,53.5,25.9"/>
	<path id="Path_88843" class="st0" d="M124.6,83.3c-0.6,4.1-1.7,8-4.5,11.2l4.1-11.7C124.6,82.8,124.7,82.9,124.6,83.3"/>
	<path id="Path_88844" class="st0" d="M122.9,26.5c-0.7-1.6-0.6-3.4,0.3-4.8c0.7-1.5,2-1.2,4,0.6c-0.8,0.3-1.7,0-2.2,0.9
		C123.9,23.9,123.1,25.1,122.9,26.5"/>
	<path id="Path_88845" class="st0" d="M86.1,24.3c0.2-1,1-1.8,2-2c1.2-0.1,1.3,1.1,1.8,1.7l0.4,3.6c-0.9-0.4-0.9-1.3-1.3-1.8
		C88.2,24.9,87.6,23.7,86.1,24.3"/>
	<path id="Path_88847" class="st0" d="M57.8,33.2c1.8-2.7,3.7-3.3,6.8-2c-2.8-0.1-5,0.2-6.4,2.4C57.8,33.8,57.7,33.6,57.8,33.2"/>
	<path id="Path_88848" class="st0" d="M124.6,83.3l-0.4-0.5c0.3-1.1,0.2-2.3,1-3.4c0.3,1.7,0.7,3.3,0.1,4.9c-0.1,0.2-0.2,0.2-0.3,0
		C124.9,84,125.1,83.5,124.6,83.3"/>
	<path id="Path_88850" class="st0" d="M131.2,43.1c-0.6,0.7-0.1,1.6-0.4,2.4c-0.2-2.5-0.5-5-0.7-7.5
		C130.8,39.7,131.1,41.4,131.2,43.1"/>
	<path id="Path_88855" class="st0" d="M90.3,62.7c0.9-1.6,2.8-2.4,4.6-1.8c-1.7,0.1-3.2,0.9-4.2,2.2C90.4,63.2,90.2,63.1,90.3,62.7"
		/>
	<path id="Path_88856" class="st0" d="M102.1,94.2c2,0.7,2.7,2.5,2.3,5.4C103.9,97.5,103.7,95.6,102.1,94.2"/>
	<path id="Path_88857" class="st0" d="M57.8,33.2l0.4,0.4c-0.2,0.6-0.7,1.2-1.2,1.5c-0.5-1-0.5-2.1,0-3.1l0.5,0.4
		C57.5,32.7,57.3,33.1,57.8,33.2"/>
	<path id="Path_88858" class="st0" d="M80.6,49.1c-0.2-0.4,0.1-0.9-0.4-1.2c0.2-1.3,0.7-2.5,1.5-3.5L80.6,49.1"/>
	<path id="Path_88859" class="st0" d="M87.7,73.1l-0.4-0.9c0.2-1.5,0.9-2.8,1.9-4l0.3,0.4C89.5,70.3,88.8,71.8,87.7,73.1"/>
	<path id="Path_88860" class="st0" d="M87.6,84.7l-0.4,0.9c-0.6-1.4-0.2-2.9-0.5-4.4C87.5,82.3,87.4,83.5,87.6,84.7"/>
	<path id="Path_88862" class="st0" d="M90.4,62.7l0.4,0.4c-0.7,1.1-1.2,2.3-1.6,3.5c-0.4,0.1-0.5,0-0.4-0.4
		C88.9,64.9,89.5,63.7,90.4,62.7"/>
	<path id="Path_88868" class="st0" d="M130.4,28.6c-1.2,0.6-2.8,0.3-3.7,1.5c-0.2-1.3,0.9-1.3,1.6-1.5
		C129,28.5,129.7,28.5,130.4,28.6"/>
	<path id="Path_88869" class="st0" d="M83,71.5l-0.4-0.9c0-1,0.2-2,0.6-2.9C83.4,69,83.4,70.3,83,71.5"/>
	<path id="Path_88870" class="st0" d="M116,42.8l-0.4-0.4c0.3-1.1,1-2,2-2.5L116,42.8"/>
	<path id="Path_88871" class="st0" d="M125,84.3c0.1,0,0.2,0,0.3,0c0.2,1.3,0,2.6-0.5,3.8C124.3,86.6,125.1,85.5,125,84.3"/>
	<path id="Path_88872" class="st0" d="M84.2,89.8c0.4-0.2,0.3-0.6,0.4-0.8l1.3,3.6C85,91.9,84.4,90.9,84.2,89.8"/>
	<path id="Path_88874" class="st0" d="M134.5,34.6l0.3,0.4c-0.9,0.7-1.9,0.8-3.3,1.1C132.3,35.2,133.4,34.7,134.5,34.6"/>
	<path id="Path_88875" class="st0" d="M106.9,94.5l-0.4,0.4c-0.5-0.9-0.8-1.9-0.7-3C106.4,92.7,106.8,93.6,106.9,94.5"/>
	<path id="Path_88876" class="st0" d="M86.5,29.8l-3.8-1.1C84.1,28.4,85.6,28.2,86.5,29.8"/>
	<path id="Path_88879" class="st0" d="M88.8,66.2l0.4,0.4l-1.8,2.7C87.3,67.9,88.2,67.1,88.8,66.2"/>
	<path id="Path_88880" class="st0" d="M95.5,39.2L95,39.6c-0.5-0.8-0.7-1.7-0.7-2.7C95,37.5,95.4,38.3,95.5,39.2"/>
	<path id="Path_88882" class="st0" d="M78.6,40l0.3-0.3l2.5,1C80.4,40.9,79.4,40.6,78.6,40"/>
	<path id="Path_88883" class="st0" d="M93.9,97.7c0.2,0,0.4-0.1,0.4-0.4l2.6,1.9C95.7,99,94.7,98.5,93.9,97.7"/>
	<path id="Path_88885" class="st0" d="M166.9,84.3l-0.5-0.5c0.8-0.5,1.7-0.8,2.6-0.9C168.5,83.6,167.8,84,166.9,84.3"/>
	<g id="Group_20558" transform="translate(134.785 45.596)">
		<path id="Path_88803" class="st0" d="M37,14.1c2.8-1.9,5.6-3.6,9.1-4c6.8-0.8,13.4,2.9,16.3,9.1c2.8,5.8,2.9,11.9,1.8,18.2
			c-0.8-3.3-1.2-6.7-2.2-10c-1.2-4.2-3-8.1-6.3-11.1c-1-0.9-2.2-1.7-3.5-2.1c-3.8-1.9-7.7-1.5-11.6-0.2c-1.6,0.5-3.2,1.2-4.9,1.8
			C35.9,14.8,36.8,14.7,37,14.1"/>
		<path id="Path_88804" class="st0" d="M52.6,16.9c5.9,6,7.5,15,4,22.6c0-3.3-0.3-6.6-0.8-9.9c-1-5.5-3.3-10.1-9-12.3
			c-1.1-0.5-2.4-0.7-3.6-0.6c-3.1-0.4-6,0.6-9.1,1.6C39.1,13.4,46,12.9,52.6,16.9"/>
		<path id="Path_88807" class="st0" d="M12.3,59.2c4.1-0.3,6.3-2.3,6.9-6.3c0.3-1.7-0.6-2.9-1.8-3.9c-2.2-1.7-4.4-3.2-6.8-4.6
			c-4.5-2.9-8.5-6.3-10-11.8c-1.1-4.2-0.9-8.6,0.6-12.7c0.8-0.1,0.5,0.4,0.4,0.8C0,30.3,4.1,37.1,11.6,42.5c2.1,1.5,4.2,2.9,6.2,4.5
			c2,1.6,3.6,3.5,2.8,6.4c-0.9,3.1-2.3,5.7-5.9,6.3C13.8,59.6,12.9,60.3,12.3,59.2"/>
		<path id="Path_88808" class="st0" d="M41.6,17.6c7.6,1.9,11.1,5.6,11.7,12.7c0.2,3.3-0.3,6.7-1.5,9.8c-0.3,0.7-0.5,1.5-0.8,2.2
			c-0.2,0-0.7,1-0.6-0.1c0.1-1.4,0.3-2.9,0.5-4.3c0.3-2.3,0.2-4.7-0.1-7c-1-7.6-6.7-12-14.3-11.1c-1,0.2-2.1,0.3-3.1,0.1
			C36,18.2,38.7,17.8,41.6,17.6"/>
		<path id="Path_88809" class="st0" d="M1.4,10.1C0.6,8.8,2.6,7.5,2,7.1C0.6,6,1.4,4.8,1.8,4c0.5-1.1,0.9-2.9,2.8-2.8
			c0.1,0,0.1,0,0.2-0.1C6-0.5,8.1,1.2,9.4,0c1.1,1.3,2.5,0.7,3.9,0.3c0.1,1.3-0.7,1.8-1.6,2.1C10.6,2.8,9.5,3,8.4,3.2
			c-1,0.2-1.5,0.6-0.7,1.7c0.8,0.9,0.7,2.2-0.2,3C7.2,8.1,7,8.2,6.7,8.3c-0.9,0.4-0.9,1-1,1.7c0,1.7-0.5,3.4-1.3,4.9
			c-0.4,0.8-1.1,1.3-2,1.4c-0.6,0-1.2-0.4-1.3-1c-0.3-1,0.3-1.6,0.9-2.2c0.9-0.7,1.6-1.6,2-2.6C4.3,10,4.6,9.4,4.3,9
			c-0.4-0.4-1,0-1.4,0.2C2.3,9.5,1.9,9.8,1.4,10.1"/>
		<path id="Path_88813" class="st0" d="M31.9,21.1c3.6-1.1,7.1-1.3,10.4,0.7c3.7,2.1,5.8,6.1,5.5,10.3c-0.2,4.1-1.6,8-4.1,11.2
			c0.5-2.8,1.3-5.6,1.7-8.4c0.9-6.9-2.8-12.1-9.2-13.1c-0.9-0.3-1.8,0.4-2.7,0.2C32.9,21.9,32,22.2,31.9,21.1"/>
		<path id="Path_88815" class="st0" d="M27.9,38.3c-3.8,2-7.7,3.6-12.1,2.4c-4.3-1.2-8.5-6.1-9-10.6c0.6,0.2,0.7,0.7,0.9,1.1
			c4.2,6.2,10,8.5,17.3,7.2c0.8-0.2,1.7-0.4,2.5-0.6C27.9,37.7,28,37.9,27.9,38.3"/>
		<path id="Path_88816" class="st0" d="M35.4,22.2c5.2,1.1,8,5,7.5,10.2c-0.4,3.2-1.8,6.2-4,8.6c0.5-1.8,1.1-3.6,1.6-5.4
			c1.8-7.6-1.5-12-9.3-12.6c-0.2,0-0.3-0.1-0.5-0.1c0.2-0.7,0.8-0.4,1.1-0.6C33,21.7,34.3,21.7,35.4,22.2"/>
		<path id="Path_88817" class="st0" d="M28.5,24.8c-5.6,1.5-10.4-1.3-11.9-6.7c-0.4-1.5-0.6-2.9-0.8-4.4c-0.4-3.2-1.2-6.2-3.7-8.5
			c1.1-0.3,1.5,0.5,2,1c1.6,1.8,2.7,4,3.2,6.4c0.5,2,1,3.9,1.6,5.9c1.2,3.9,4,5.8,7.9,6.2C27.2,24.7,27.6,24.7,28.5,24.8"/>
		<path id="Path_88819" class="st0" d="M30.3,28c1.1,0.4,1.3,1.1,1.6,1.7c2.8,5.2,3.2,10.8,2.5,16.5c-0.2,1.2-0.6,1.5-1.8,1.3
			c-2.5-0.3-4.7-1.7-6.2-3.7c1,0.5,2,1,3,1.4c2.3,0.8,3.1,0.3,3.4-2.1C33.6,38,32.7,32.7,30.3,28"/>
		<path id="Path_88836" class="st0" d="M34.3,27c3.1,1.8,4.7,4.3,4.4,8c-0.1,1.4-0.5,1.8-1.8,1c-0.9-0.4-1.6-1.1-1.9-2
			c0.1,0,0.3-0.1,0.3-0.1c0.5,0.3,1.1,1.1,1.7,0.7c0.7-0.4,0.2-1.3,0-2c-0.5-2-1.6-3.9-3.1-5.3C33.8,27,33.8,26.8,34.3,27"/>
		<path id="Path_88838" class="st0" d="M23.6,60.8c-3,0.2-3.6-0.6-2.6-3.4c0.8-2,1.8-3.9,3.1-5.6c0.4-0.1,0.6,0,0.4,0.4
			c-0.6,1.4-1.2,2.7-1.7,4.1c-1.1,2.9-1,2.9,1.7,4.2C24.4,61.1,23.9,60.9,23.6,60.8"/>
		<path id="Path_88852" class="st0" d="M35.4,22.2l-3.6,0c-0.3-0.4-1.2-0.8,0.1-1.1c1.3,0.8,3-0.1,4.3,0.7L35.4,22.2"/>
		<path id="Path_88854" class="st0" d="M12.3,59.2c0.7,0.6,1.6,0.2,2.4,0.4c-1.8,0.8-3.8-0.1-5.7,0.4C9.8,59.2,11.1,58.9,12.3,59.2"
			/>
		<path id="Path_88877" class="st0" d="M34.3,27l-0.4,0.4l-2.4-1.5C32.5,25.9,33.5,26.2,34.3,27"/>
		<path id="Path_88881" class="st0" d="M1.7,20.7c-0.1-0.3,0-0.7-0.4-0.8c0.1-0.9,0.5-1.7,1.1-2.3C2.4,18.7,2.1,19.8,1.7,20.7"/>
		<path id="Path_88884" class="st0" d="M24.5,52.1l-0.4-0.4l1.6-2.4C25.6,50.4,25.2,51.4,24.5,52.1"/>
		<path id="Path_88888" class="st0" d="M23.6,60.8l0.8-0.4c0.9,0.3,1.5,1,1.7,1.9C25.3,61.6,24.5,61.1,23.6,60.8"/>
	</g>
	<path id="Path_88890" class="st0" d="M107.6,107.6l0.4-0.4c0.8-0.2,1.5,0.1,2,0.7C109.1,107.9,108.3,108.1,107.6,107.6"/>
	<path id="Path_88891" class="st0" d="M124.5,9.7c-0.4-1.4-1.7-1.3-2.7-1.3c-3.4-0.2-6.6-1.3-9.4-3.1c-0.1-0.7,1.3-1.1,0.5-1.7
		c-1.1-0.9-2.4-2.2-3.9-1.5c-1.8,0.9-3.9,1.1-5.9,0.4c-1.2-0.4-2.4,0.7-3.4,1.6c-1,1-0.8,1.6,0.7,1.9c-2.9,3.1-6.5,4.4-10.4,5.4
		c-0.4,0.2-0.5,0-0.5-0.4c2.1-1.2,4.7-1.5,6.7-3.1c0.3-0.2,0.6-0.4,1-0.7c-1-1.3,0.5-1.7,1-2.4c0.7-0.9,1.5-1.8,2.4-2.5
		c2.5-2.5,7.6-3.1,10.5-1c1.7,1.2,3.7,2.1,4.8,4.4c0.6,1.3,3.1,1.7,5,1.8c1.6,0.1,3.2,0.7,4.6,1.6c0.5,0.3,0.7,0.6-0.1,0.8
		C125.1,9.8,124.8,10,124.5,9.7"/>
	<path id="Path_88892" class="st0" d="M89.6,11l0.5,0.4c-0.4,0.5-1.5,0.5-0.9,1.7c-0.5,0.8-1.4,1.4-2.3,1.4
		C88.1,13.5,87.7,11.3,89.6,11"/>
	<path id="Path_88893" class="st0" d="M124.5,9.7c0.3-0.1,0.6-0.4,0.8,0c0.4,0.8,1.5,0.9,1.9,2c-1.1-0.5-2.1-1.1-3-1.8
		c0,0,0-0.1,0-0.2C124.4,9.8,124.4,9.8,124.5,9.7"/>
	<path id="Path_88894" class="st0" d="M157.9,22.3c0.7,1.4,2.1,2.5,2.1,4.2c0.2,0.4,0.3,0.8-0.4,0.8c-0.8-2.8-2.8-4.6-5.1-6.3
		c2.3-2.1,5.8-2.4,8.5-0.6c1,0.3,1.8,1,2.2,1.9c0,0.3-0.2,0.5-0.5,0.6c-0.6,0-0.9-0.5-1.2-1c-0.3-0.4-0.7-0.7-1.2-0.7
		c-1.2,0.2-2.2-0.7-3.4-0.3C157.9,21.1,157.7,21.5,157.9,22.3"/>
	<path id="Path_88895" class="st0" d="M163.5,19.9l-1.6-1.8c2.6-2.4,5.6-2.8,8.9-2.4c-2.6,0.5-5.4,0.5-7.7,2.4
		c0.9,1,1.7,2.1,2.4,3.3c0.2,0.4,0,0.5-0.3,0.5C164.3,21.5,163.8,20.8,163.5,19.9"/>
	<path id="Path_88896" class="st0" d="M158.7,28.2c-0.7-0.8-1.7-1.4-2.7-1.7c-1.3-0.7-2.8-0.3-4.2-0.4c2.3-1.6,5.1-0.9,7.4,1.6
		C159.2,28.2,159.1,28.3,158.7,28.2"/>
	<path id="Path_88897" class="st0" d="M91.2,65.8c0.9-2.2,2.7-2.5,4.7-2.2c3.4,0.4,6.8,1,10.2,1.6c1.6,0.3,3,0.4,4.4-0.9
		c0.6-0.7,1.7-0.8,2.4-0.2c0.2,0.2,0.4,0.5,0.5,0.8c1.4,2.7,1.7,5.8,0.8,8.7c-0.3,0.9-0.9,1.6-1.8,2c-0.6,0.3-1.2,0.7-1.1,1.3
		c0.3,2.2-1.2,2.6-2.8,3c-0.1,0.3-0.3,0.5-0.5,0.6c-0.2,0-0.4,0-0.5,0c-1.1-0.3-2.1-0.8-2.9-1.4c-1.3-1.2-2.8-2-4.5-2.6
		c-3-1-4.6-3.5-5.6-6.4C94,68.4,92.8,66.8,91.2,65.8 M110.5,61.3c1.1-0.1,2.2,0.1,3.1,0.5l0.4-0.4C113,60.6,111.5,60.5,110.5,61.3
		 M111.9,69.9c1.3-0.6,1.9-2.2,1.3-3.5c-0.3-0.6-0.7-1-1.2-1.3c-0.5-0.3-1.1-0.5-1.2,0.3c-0.2,2.5-2.2,3.7-3.9,5.6
		C108.7,71.1,110.4,70.7,111.9,69.9"/>
	<g id="Group_20559" transform="translate(0 40.009)">
		<path id="Path_88802" class="st0" d="M5.1,46.3c-4.3-4.2-5.3-9.6-4.6-15.2C1.3,24.5,2.2,18,0.1,11.5c-0.4-1.2,0.5-0.9,1.1-1
			C10.3,9.9,18,13,24,19.9c1,0.9,1.8,2.1,2,3.5c-1.7-1.8-3.6-3.4-5.6-4.7c-3.8-2.4-7.8-3.5-12.3-2.3c-0.6,0.2-1.4,0.3-1.6,1
			c-0.3,0.9,0.7,0.9,1.2,1.2c2.1,1.6,3.7,3.7,4.7,6.1c-0.8-0.5-1.4-0.9-1.9-1.2c-2-1.1-3.5-0.7-4.6,1.2c-0.7,1.1-0.7,1.6,0.8,2
			c2.8,0.5,5,2.5,5.8,5.2c-1.1-0.1-1.9-0.7-2.9-0.9c-3-0.5-5,0.7-5.5,3.7c-0.7,2.8,0,5.8,1.9,8.1c0.5,0.2,1,0.6,1.2,1.2
			c1.8,1.6,3.8,1.4,5.9,0.9c1.6-0.4,3.1-1,4.4-2c1-0.2,0.6,0.3,0.2,0.6C16,44.9,14.1,46,12.2,47c-1.7,0.5-3.4,0.6-5.1,0.2
			C6.2,47.3,5.5,47.2,5.1,46.3"/>
		<path id="Path_88806" class="st0" d="M35.8,17.2c-0.2-3.3,0.4-6.6,0.7-9.9c0.2-2.4,0.1-4.8-0.2-7.2c4.3,0.7,7.3,3.2,10,6.3
			c2.7,4.1,4.4,8.9,4.7,13.9c-1.3-2.7-2.3-5.5-3.8-8.1c-1.5-2.8-3.5-5.3-5.9-7.3c-0.1,3.4-0.1,6.6-1.8,9.6c-0.1-3.2,0.1-6.4-1-9.5
			c-0.1,4.5-2.2,8.6-2,13.2C35.7,18.2,36.1,17.4,35.8,17.2"/>
		<path id="Path_88812" class="st0" d="M35.8,61.5c12.7,0.1,23.4-4.1,31.6-14.1c-6.2,12.1-20,18.2-33.1,14.5
			C34.5,60.9,35.2,61.5,35.8,61.5"/>
		<path id="Path_88820" class="st0" d="M27.9,26.4c0.9-2.1,2.9-2.8,4.7-3.7c3.1-1.5,6.5-1.3,9.8-1.2c3.1,0.5,6.1,1.3,9,2.4
			c0,0.7-0.4,0.5-0.8,0.4c-5.8-1.4-11.7-1.9-17.5-0.1C31.3,24.8,29.5,25.5,27.9,26.4"/>
		<path id="Path_88822" class="st0" d="M84.9,66c-1.9-6.7-6.2-11.1-12.7-13.7C79,51.4,85.3,58.1,84.9,66"/>
		<path id="Path_88825" class="st0" d="M51,65.5c-3.7,3-7.6,5.4-12.6,5.2c-2.2,0-4.3-0.8-5.9-2.3c6.6,2,12.5,0.3,18.1-3.3
			C51.1,64.9,51.1,65.1,51,65.5"/>
		<path id="Path_88828" class="st0" d="M46.1,47.5c2.3,0.7,4.8,0.3,6.7-1.1c0.2-0.1,0.4-0.1,0.6-0.1c4.4,1.8,8.2-0.3,12.1-1.9
			c0.3,0,0.6,0,0.9,0c-3.8,2.5-7.2,4.4-11.5,3.7c-1-0.2-2-0.1-3,0.3C50,49.1,47.8,48.8,46.1,47.5"/>
		<path id="Path_88833" class="st0" d="M19.6,51c0.7,5,3.6,8.6,8,11.9c-6.1-2-9.4-7.2-8.7-13.1C19.9,49.7,19.1,50.7,19.6,51"/>
		<path id="Path_88841" class="st0" d="M30.7,37.7c0.7-2.4,1.3-4.2,3.2-5c1.2-0.5,2.1,0.2,3.1,1.3C34.7,34.8,32.5,36.1,30.7,37.7"/>
		<path id="Path_88846" class="st0" d="M70.8,53.3c3.9,2,5.2,4.2,4.5,8.3c-0.5-3.2-2.3-6-4.9-7.9C70.2,53.3,70.3,53.1,70.8,53.3"/>
		<path id="Path_88849" class="st0" d="M19.2,34.9c-0.6-0.2-1.1-0.6-1-1.2c0.1-0.7,0.9-0.5,1.3-0.4c0.9,0.1,1.3-1.1,2.2-0.7
			c-1.1,0.8-1.8,2.1-1.7,3.5C19,36.2,19.8,35.1,19.2,34.9"/>
		<path id="Path_88851" class="st0" d="M35.2,29.4C33,29,31.5,30,30.1,31.5C31.9,28.4,32.9,28,35.2,29.4"/>
		<path id="Path_88853" class="st0" d="M21.2,28.7c-2-0.3-0.2,1.4-1,1.9c-0.2-0.4-0.4-0.9-0.6-1.3c-0.6-1.2-0.4-1.8,1-1.3
			c0.8,0.3,1.7-0.4,2.4,0.2C22.4,28,21.9,28.6,21.2,28.7"/>
		<path id="Path_88861" class="st0" d="M13.8,53c0-1.1,0.4-2.2,1-3.2c-0.1,1.3,0,2.7-0.6,4C13.8,53.6,14,53.2,13.8,53"/>
		<path id="Path_88863" class="st0" d="M19.6,51l-0.7-1.2c0-1,0.2-1.9,0.7-2.7V51z"/>
		<path id="Path_88864" class="st0" d="M44,44.8c-0.9,0.7-1.3,1.7-1.3,2.8C41.8,45.8,42.4,45,44,44.8"/>
		<path id="Path_88865" class="st0" d="M50.6,24.3l0.8-0.4l3.1,1.2c0.1,0.4,0,0.5-0.4,0.4L50.6,24.3"/>
		<path id="Path_88866" class="st0" d="M19.2,34.9c0.7,0.1,0.2,1,0.8,1.1c-0.2,0.8-0.9,1.1-1.5,1.6c-0.4-0.4-0.6-0.9,0.2-1.1
			C19.5,36.2,19.3,35.5,19.2,34.9"/>
		<path id="Path_88867" class="st0" d="M54.1,25.5l0.4-0.4l3.4,1.6C56.6,26.7,55.3,26.3,54.1,25.5"/>
		<path id="Path_88873" class="st0" d="M13.8,53c0.4,0.1,0.3,0.5,0.4,0.8c-0.1,0.9,0.1,1.9-0.4,2.7l-0.4-0.8
			C13.2,54.8,13.8,53.9,13.8,53"/>
		<path id="Path_88878" class="st0" d="M35.8,17.2l0.6,0.8c0,0.8,0,1.6,0,2.4C35.7,19.4,35.5,18.3,35.8,17.2"/>
		<path id="Path_88886" class="st0" d="M51,65.5l-0.4-0.4l2.1-1.7C52.5,64.3,51.9,65.1,51,65.5"/>
		<path id="Path_88887" class="st0" d="M35.8,61.5c-0.5,0.3-1.2-0.2-1.6,0.4c-0.6,0.1-1.2-0.2-1.5-0.7
			C33.8,61.1,34.8,61.2,35.8,61.5"/>
		<path id="Path_88889" class="st0" d="M70.8,53.3l-0.4,0.4l-2.1-1.2C69.1,52.3,70.1,52.6,70.8,53.3"/>
		<path id="Path_88898" class="st0" d="M59.7,34c-0.1-2,0.3-4.1,1.1-5.9c1.9-3.6,7.1-4.2,10.2-1.3c2.5,2.4,4.1,5.6,4.6,9.1
			c0.5,4.2-1.7,6-5.7,5.1c-0.4,0-0.9,0-1.3,0.2C62.6,42.3,59.6,39.9,59.7,34 M63.2,35.4c0.1,0.9,0.9,1.4,1.8,1.3
			c0.1,0,0.2,0,0.3-0.1c0.8-0.1,1.3-0.9,1.2-1.6c0-0.1-0.1-0.2-0.1-0.3c-0.4-1.4-1.1-2.7-2-3.7C63.4,32.5,62.8,33.9,63.2,35.4
			 M71.5,34.3c0.2,0.4,0.4,0.9,1,0.6c0.5-0.3,0.4-0.8,0.2-1.2c-0.4-1.3-1.3-2.4-2.4-3.1C70.6,31.9,71,33.1,71.5,34.3"/>
	</g>
	<path id="Path_88899" class="st0" d="M100.2,81.9l-0.8-0.7c0.1-0.2,0.2-0.3,0.3-0.4l0.8-0.4c0.5-0.1,1.1,0,1.5,0.2
		C101.6,81.3,100.9,81.7,100.2,81.9"/>
	<path id="Path_88900" class="st0" d="M90.7,74.2c0.1,1.6,1,2.8,1.6,4.2c-1.2-0.8-1.9-2.1-2-3.5C90.2,74.5,90,74.1,90.7,74.2"/>
	<path id="Path_88901" class="st0" d="M99.7,80.8l-0.3,0.4c-1.1,0.1-2.2,0-3.3-0.4C97.6,80.1,98.7,81,99.7,80.8"/>
	<path id="Path_88902" class="st0" d="M90.7,74.2l-0.4,0.7c-0.6-0.9-0.4-1.9-0.2-3C90.7,72.5,90.9,73.4,90.7,74.2"/>
	<path id="Path_88903" class="st0" d="M92.9,78.7l2.6,1.4C94.4,80.3,93.3,79.7,92.9,78.7"/>
</g>
</svg>
