<?xml version="1.0" encoding="utf-8"?>
<!-- Generator: Adobe Illustrator 26.5.0, SVG Export Plug-In . SVG Version: 6.00 Build 0)  -->
<svg version="1.1" id="Layer_1" xmlns="http://www.w3.org/2000/svg" xmlns:xlink="http://www.w3.org/1999/xlink" x="0px" y="0px"
	 viewBox="0 0 200 200" style="enable-background:new 0 0 200 200;" xml:space="preserve">
<style type="text/css">
	.st0{clip-path:url(#SVGID_00000160892715746046959940000001167387407331322512_);}
	.st1{fill:#00296B;}
</style>
<g id="Group_20701" transform="translate(15 32.248)">
	<g>
		<defs>
			<rect id="SVGID_1_" y="0" width="170.4" height="137.5"/>
		</defs>
		<clipPath id="SVGID_00000129166135044824610670000017177031390991272869_">
			<use xlink:href="#SVGID_1_"  style="overflow:visible;"/>
		</clipPath>
		
			<g id="Group_20563" transform="translate(0)" style="clip-path:url(#SVGID_00000129166135044824610670000017177031390991272869_);">
			<path id="Path_88905" class="st1" d="M157.1,65.5h-1.3c-0.3,0-0.7,0.1-0.9,0.4c-0.2,0.2-0.5,0.3-0.8,0.3c-0.8,0-1.6-0.3-2.3-0.8
				v-5.1c0-0.2-0.1-0.3-0.2-0.4V23.4c0.2-0.1,0.3-0.2,0.3-0.4v-6.3c0.1-0.4,0.3-0.8,0.5-1.2c0.4-0.6,0.8-1.1,1.2-1.6
				c0.7-1,1.1-2.1,1.3-3.3c0.1-0.6,0.1-1.1,0.1-1.7c0,0,0-0.6,0-1.1c0-0.6-0.5-1.1-1.2-1.1h-7.2c-0.6-0.1-1.1,0.4-1.2,1
				c0,0.4,0,0.9,0,1c0,0.7,0,1.3,0.1,2c0.2,1.2,0.6,2.3,1.3,3.3c0.4,0.6,0.9,1.1,1.2,1.6c0.3,0.4,0.4,0.9,0.5,1.3v6.2
				c0,0.2,0.1,0.4,0.3,0.4V60c-0.2,0.1-0.3,0.2-0.2,0.4v5.1l0,0c0,0.1,0,0.6,0,1.5c0,1,0,2.2,0.1,3.5c0,0.3,0,0.6,0.1,0.9
				s0.1,0.6,0.1,0.9s0.1,0.6,0.1,0.8c0.1,0.3,0.1,0.5,0.2,0.7s0.1,0.4,0.2,0.6s0.1,0.3,0.2,0.5c0.1,0.3,0.2,0.4,0.2,0.4l-0.2-0.4
				c-0.1-0.1-0.1-0.3-0.2-0.5s-0.2-0.4-0.2-0.6s-0.2-0.5-0.3-0.7c-0.1-0.3-0.2-0.5-0.2-0.8s-0.1-0.6-0.2-0.9s-0.1-0.6-0.2-0.9
				c-0.2-1.2-0.3-2.3-0.4-3.2l-0.2,0c-0.1,0-0.2,0-0.3,0.1s-0.2,0-0.4,0c-0.5,0-0.9-0.1-1.3-0.2c-0.1-0.1-0.3-0.1-0.4-0.2
				c-0.1,0-0.1-0.1-0.2-0.1s-0.1-0.1-0.2-0.1c-0.2-0.1-0.4-0.2-0.7-0.3c-0.2,0-0.3-0.1-0.5-0.1c-0.1,0-0.2,0-0.2,0s0.1,0,0.2,0
				c0.2,0,0.4,0,0.5,0c0.3,0,0.5,0.1,0.8,0.2c0.1,0,0.1,0.1,0.2,0.1s0.1,0.1,0.2,0.1c0.1,0.1,0.3,0.1,0.4,0.1
				c0.3,0.1,0.5,0.1,0.8,0.1c0.1,0,0.2,0,0.4,0c0.1,0,0.2,0,0.3-0.1c0.1,0,0.2-0.1,0.3-0.1s0.1-0.1,0.2-0.1l0.1,0l-0.1-0.6
				c-0.4,0.1-0.8,0.2-1.3,0.2c-0.3,0-0.6-0.1-0.8-0.3c-0.2-0.2-0.6-0.4-0.9-0.4h-1.3c-0.6,0-1.1,0.3-1.1,0.9v7.7
				c0,4.3,2.8,9.8,7.8,11.5c0.1,0,0.3,0,0.4,0c5-1.4,7.8-7.2,7.8-11.5v-7.7C158.2,65.8,157.7,65.5,157.1,65.5 M149.5,18.7
				c0,0.2,0,0.3,0,0.5s0,0.4,0,0.5s0,0.4,0,0.5s0,0.3,0,0.5c0,0.3-0.1,0.6-0.1,0.9s-0.1,0.5-0.1,0.6s0,0.2,0,0.2s0-0.1,0-0.2
				s0-0.4,0-0.6s0-0.6,0-0.9s0-0.7,0-1s0-0.7,0-1s0-0.6,0-0.9s0-0.5,0-0.6s0-0.2,0-0.2s0,0.1,0,0.2s0.1,0.4,0.1,0.6
				S149.5,18.3,149.5,18.7 M150.9,59.9h-1.5V23.4h1.5V59.9z M146.7,7.2c0.2,0,0.5,0,0.9,0s0.8,0,1.2,0s0.9,0,1.4,0s0.9,0,1.4,0
				s0.9,0,1.2,0s0.7,0,0.9,0l0.3,0l-0.3,0c-0.2,0-0.5,0-0.9,0s-0.8,0-1.2,0s-0.9,0-1.4,0s-0.9,0-1.4,0s-0.9,0-1.2,0
				S146.9,7.2,146.7,7.2l-0.3,0L146.7,7.2 M147.8,13.4c-0.7-0.8-1.2-1.7-1.5-2.7c-0.1-0.5-0.3-1-0.3-1.5c0-0.2,0.1-0.4,0.4-0.4
				c0,0,0,0,0.1,0h7.5c0.2,0,0.4,0.2,0.4,0.4c0,0,0,0,0,0.1c-0.1,0.5-0.2,1-0.3,1.5c-0.3,1-0.8,1.9-1.5,2.7c-0.5,0.5-1,1.1-1.4,1.7
				c-0.2,0.3-0.3,0.6-0.4,0.9c-0.1,0.3-0.3,0.5-0.6,0.4c-0.2,0-0.4-0.2-0.4-0.4c-0.1-0.3-0.3-0.6-0.4-0.9
				C148.8,14.5,148.3,13.9,147.8,13.4 M157.1,74.7c0,0.5,0,1-0.1,1.5c0,0.3-0.1,0.7-0.2,1c-0.1,0.4-0.2,0.7-0.3,1.1
				c-0.1,0.4-0.3,0.7-0.4,1.1c-0.2,0.4-0.4,0.7-0.6,1.1c-0.2,0.3-0.5,0.7-0.7,1c-0.2,0.3-0.5,0.6-0.8,0.9c-0.3,0.3-0.6,0.5-0.8,0.8
				c-0.3,0.2-0.5,0.4-0.8,0.6s-0.5,0.3-0.7,0.5s-0.4,0.2-0.6,0.3l-0.5,0.3l0.5-0.3c0.1-0.1,0.3-0.2,0.5-0.4s0.4-0.3,0.6-0.5l0.7-0.7
				c0.1-0.1,0.2-0.3,0.4-0.4s0.3-0.3,0.4-0.4c0.2-0.3,0.5-0.6,0.7-0.9c0.2-0.3,0.5-0.6,0.7-1c0.2-0.3,0.4-0.7,0.6-1
				c0.2-0.3,0.3-0.7,0.5-1.1c0.1-0.4,0.2-0.7,0.3-1c0.1-0.3,0.2-0.7,0.2-0.9c0.1-0.3,0.1-0.6,0.1-0.8S157,74.8,157.1,74.7
				c0-0.4,0-0.6,0-0.6S157.1,74.3,157.1,74.7"/>
			<path id="Path_88906" class="st1" d="M137,68.5c-0.3-0.8-1-1.5-1.9-1.8c-0.5-0.1-1-0.2-1.5-0.2c-0.5,0-1.1,0-1.6,0
				c-0.5,0-1-0.5-1-1v-4.6c0-0.2-0.1-0.3-0.2-0.4V23.9c0.2-0.1,0.3-0.2,0.3-0.4v-6.3c0.1-0.4,0.3-0.8,0.5-1.2
				c0.4-0.6,0.8-1.1,1.2-1.6c0.7-1,1.1-2.1,1.3-3.3c0.1-0.6,0.1-1.1,0.1-1.7c0,0,0-0.6,0-1.1c0-0.6-0.5-1.1-1.2-1.1h-7.2
				c-0.6-0.1-1.1,0.4-1.2,1c0,0.4,0,0.9,0,1c0,0.7,0,1.3,0.1,2c0.2,1.2,0.6,2.3,1.3,3.3c0.4,0.6,0.9,1.1,1.2,1.6
				c0.3,0.4,0.4,0.9,0.5,1.3v6.2c0,0.2,0.1,0.4,0.3,0.4v36.6c-0.2,0.1-0.3,0.2-0.2,0.4v4.6c0,0.5-0.4,1-1,1c-0.7,0-1.6,0-2.1,0.1
				c-0.7,0-1.4,0.3-2,0.8c-0.7,0.6-1.1,1.5-1.2,2.5c0,0.7,0,1.4,0.1,2.1c0.1,2,0.2,4.1,0.2,6.1c0.1,1.4,0.1,3.9,0.2,5.3
				c0,0.9,0.1,0.9,0.1,1.8c0-0.9,0.1-0.9,0.1-1.8c0.2-4,0.3-9.1,0.5-13.1c-0.1-0.8,0.5-1.5,1.2-1.7c0.4-0.2,0.9,0,1.1,0.5
				c0.1,0.1,0.1,0.3,0.1,0.4c0,0.3,0,0.3,0,0.7c0,0.8,0,1.8,0.1,2.9s0.1,2.2,0.1,3.3c0.1,2.2,0.2,5.5,0.2,7.1c0,0.6,0,1.2,0.1,1.8
				c0.1-0.6,0.1-1.2,0.1-1.8c0.1-1.7,0.1-4.9,0.2-7.1c0-1.1,0.1-2.2,0.1-3.3s0.1-2,0.1-2.9c0-0.4,0-0.4,0-0.7c0-0.5,0.4-1,1-1
				c0.3,0,0.6,0,0.8,0c0.5,0,1,0.2,1,1.1s0,2.5,0.1,3.5s0.1,2.2,0.1,3.3c0.1,2.2,0.2,5.5,0.2,7.1c0,0.6,0,1.2,0.1,1.8
				c0.1-0.6,0.1-1.2,0.1-1.8c0.1-1.7,0.1-4.9,0.2-7.1c0-1.1,0.1-2.2,0.1-3.3s0.1-2.7,0.1-3.5s0.5-1.1,1-1.1h0.8c0.5,0,1,0.6,1,1.4
				c0.1,1.7,0.1,4.2,0.2,6.5s0.1,5.5,0.2,7.1c0,0.6,0,1.2,0.1,1.8c0.1-0.6,0.1-1.2,0.1-1.8c0.1-1.7,0.1-4.9,0.2-7.1s0.2-4.8,0.2-6.5
				c0-1.2,0.8-1.3,0.9-1.3c0.2,0,0.4,0,0.4,0c0.6,0.1,0.9,1,1,1.5c0.1,0.6,0.2,1.3,0.1,1.9c0.1,2,0.2,4.1,0.2,6.1
				c0.1,1.4,0.1,3.9,0.2,5.3c0,0.9,0.1,0.9,0.1,1.8c0-0.9,0.1-0.9,0.1-1.8c0.1-3,0.2-7.1,0.4-10.1c0-1,0.1-2,0.1-2.9
				C137.3,69.7,137.2,69.1,137,68.5 M128.7,19.2c0,0.2,0,0.3,0,0.5s0,0.3,0,0.5s0,0.4,0,0.5s0,0.3,0,0.5c0,0.3-0.1,0.6-0.1,0.9
				s-0.1,0.5-0.1,0.6s0,0.2,0,0.2s0-0.1,0-0.2s0-0.4,0-0.6s0-0.6,0-0.9s0-0.7,0-1s0-0.7,0-1s0-0.6,0-0.9s0-0.5,0-0.6l0-0.2
				c0,0,0,0.1,0,0.2s0.1,0.4,0.1,0.6S128.7,18.8,128.7,19.2 M130.1,60.5h-1.5V23.9h1.5V60.5z M125.8,7.7c0.2,0,0.5,0,0.9,0
				s0.8,0,1.2,0s0.9,0,1.4,0s0.9,0,1.4,0s0.9,0,1.2,0s0.7,0,0.9,0l0.3,0l-0.3,0c-0.2,0-0.5,0-0.9,0s-0.8,0-1.2,0s-0.9,0-1.4,0
				s-0.9,0-1.4,0s-0.9,0-1.2,0S126.1,7.7,125.8,7.7l-0.3,0L125.8,7.7 M127,13.9c-0.7-0.8-1.2-1.7-1.5-2.7c-0.1-0.5-0.3-1-0.3-1.5
				c0-0.2,0.1-0.4,0.4-0.4c0,0,0,0,0.1,0h7.5c0.2,0,0.4,0.2,0.4,0.4c0,0,0,0,0,0.1c-0.1,0.5-0.2,1-0.3,1.5c-0.3,1-0.8,1.9-1.5,2.7
				c-0.5,0.5-1,1.1-1.4,1.7c-0.2,0.3-0.3,0.6-0.4,0.9c-0.1,0.3-0.3,0.5-0.6,0.4c-0.2,0-0.4-0.2-0.4-0.4c-0.1-0.3-0.3-0.6-0.4-0.9
				C128,15,127.5,14.5,127,13.9"/>
			<path id="Path_88907" class="st1" d="M110.7,73.3c0.1-0.3,0.2-0.5,0.3-0.8c-1.3,0-2.5,0.1-3.8,0.3
				C108.3,73,109.5,73.2,110.7,73.3"/>
			<path id="Path_88908" class="st1" d="M90.5,90.6c-2.2-3-6-4.4-9.6-3.4c-1.9,0.5-3.7,1.6-5,3.1c-4.2,4.5-5.9,9.9-6.1,16
				c0.1-0.4,0.2-0.9,0.4-1.3c0.9-3.5,2.6-6.7,5-9.4c1.3-1.4,2.9-2.5,4.7-3c1.3-0.4,2.6,0,3.5,1c0.7,0.7,1.2,1.5,1.6,2.3
				c2.6,5.2,3.6,11.1,3,16.9c0,1.7-0.8,3.4-2.1,4.6c0.1,0.1,0.2,0,0.3-0.1c0.2-0.1,0.5-0.3,0.7-0.4c1.4-1.1,2.3-2.6,2.8-4.3
				c1.1-3.8,1.4-7.7,0.9-11.6c-0.1-2-0.5-3.9-1-5.8c0.2,0.1,0.3,0.2,0.4,0.4c1,1.3,1.7,2.9,2,4.5c1.2,5.1,0.6,10.4-1.6,15.1
				c-1.4,3.3-3.8,6.1-7,7.9c0,0,0,0.1,0,0.1c1.5-0.2,2.9-0.7,4.2-1.4c2.7-1.6,4.8-4.2,5.7-7.2c1.7-5,2-10.4,0.9-15.6
				C93.6,95.9,92.4,93,90.5,90.6"/>
			<path id="Path_88909" class="st1" d="M108.9,75.6c0.4,0,0.7,0.1,1.1,0.1c0-0.1,0.1-0.3,0.1-0.4C109.7,75.4,109.3,75.5,108.9,75.6
				"/>
			<path id="Path_88910" class="st1" d="M83.5,104.3c0,0.9-0.3,1.7-0.8,2.5c-0.8,1.3-2.4,1.7-3.7,0.9c-0.4-0.3-0.8-0.7-1-1.1
				c-0.3-0.7-0.6-1.5-0.7-2.3c-0.8,1.5-0.9,3.3-0.3,5c0.5,1.6,2.1,2.5,3.7,2.2c0.7-0.1,1.3-0.3,1.9-0.6c2-1.2,2.6-3.9,1.4-5.9
				C83.9,104.7,83.7,104.5,83.5,104.3"/>
			<path id="Path_88911" class="st1" d="M92,51.2c-0.1-0.5-0.4-0.9-0.9-1.2c-1.7-1.1-3.4-2.1-5.1-3c-8-4-16.3-7.4-24.8-10
				c-4.4-1.4-8.9-2.6-13.4-3.4c-0.5-0.1-1-0.1-1.4-0.2c-0.5-0.1-1-0.1-1.4,0c6.9,2.3,13.6,4.8,20.3,7.5c7.4,3.1,18,8.3,19.4,9.5
				c-2.5-0.8-4.9-1.6-7.4-2.3c-5.8-1.9-11.7-3.3-17.7-4.3c-1.2-0.2-2.4-0.3-3.6-0.3c0.1,0.1,0.2,0.1,0.3,0.2c4.9,1.4,9.7,3,14.5,4.8
				C75.3,50,79.7,51.9,84,54c0.5,0.2,1,0.5,1.3,0.9c-4.3-1.3-8.4-2.8-12.5-4c-4.1-1.3-8.4-2.2-12.7-2.7c8.7,2.9,17.4,5.9,25.4,10.7
				c-6.5-2-12.9-4.1-19.6-5.1c0.2,0.1,0.5,0.2,0.7,0.3c4.4,1.5,8.7,3.2,13,5.2c3.6,1.6,7,3.6,10.2,6c0.5,0.5,1.2,0.7,1.9,0.5
				c0.8-0.3,0.9-1,1-1.7c0-0.1,0-0.1,0-0.2c0.2-2.1,0.3-4.3,0.2-6.4C92.8,55.4,92.5,53.3,92,51.2"/>
			<path id="Path_88912" class="st1" d="M39,27.4c-2.9-0.7-5.9-1.1-9-1.2c-4-0.2-8,0.2-11.8,1.2c-1.1,0.2-2,1-2.4,2.1
				c-0.2,0.7-0.3,0.7,0.5,0.7c5.9,0,11.8,0.1,17.7,0.4c0.6,0,1.2,0.1,1.7,0.1c-0.5,0.4-1.1,0.6-1.8,0.6c-2.5,0.2-5,0.2-7.5,0.1
				c-3.5-0.1-7-0.2-10.5-0.3c-0.4,0-0.7,0.1-0.7,0.5c-0.1,0.9-0.3,1.7-0.4,2.6c-0.1,0.5,0,0.6,0.5,0.6c6.5-0.1,13-0.3,19.5-0.1
				c0.2,0,0.4-0.1,0.6,0.1c-0.3,0.2-0.7,0.3-1.1,0.3c-2.4,0.3-4.8,0.4-7.2,0.4c-4,0.1-8,0.1-11.9,0.1c-0.5,0-0.6,0.1-0.6,0.6
				c0,0.6-0.1,1.3-0.2,1.9c-0.1,0.4,0.1,0.6,0.5,0.6c5.8-0.1,11.6,0,17.4,0.2c1,0,1.9,0.1,3,0.1c-0.5,0.4-1.2,0.6-1.9,0.6
				c-3.5,0.3-6.9,0.3-10.4,0.2c-2.7,0-5.4-0.1-8.1-0.2c-0.5,0-0.6,0.1-0.6,0.6c0,0.7-0.1,1.4-0.1,2c0,0.8,0,0.7,0.7,0.7
				c6.4-0.1,12.8-0.1,19.2,0.3c0.3,0,0.6,0,0.9,0.2c-0.1,0.1-0.2,0.1-0.3,0.1c-0.2,0.1-0.4,0.1-0.6,0.1c-3.3,0.3-6.7,0.4-10,0.3
				c-3.1,0-6.3-0.1-9.4-0.2c-0.4,0-0.5,0.1-0.5,0.5c0,0.5,0,1.1,0,1.6c0,0.8,0,0.8,0.8,0.8c5.4,0,10.8,0.1,16.2,0.4
				c1.3,0.1,2.5,0.2,3.9,0.3c-0.3,0.3-0.7,0.5-1.1,0.5c-3,0.3-5.9,0.3-8.9,0.2c-3.4-0.1-6.9-0.2-10.3-0.4c-0.4,0-0.6,0.1-0.5,0.5
				c0,0.8,0,1.6-0.1,2.4c-0.1,0.6,0.1,0.7,0.7,0.7c5.8-0.1,11.7-0.2,17.5,0c0.8,0,1.6,0.1,2.5,0.1c-0.1,0.2-0.4,0.3-0.6,0.3
				c-0.7,0.1-1.4,0.2-2.1,0.2c-4.4,0.3-8.8,0.2-13.1,0.2c-1.4,0-2.9,0-4.3,0c-0.4,0-0.5,0.1-0.5,0.5c0,0.7,0,1.5,0,2.2
				c0,0.3,0.1,0.4,0.4,0.4c1.3,0,2.7,0,4,0c5.1,0,10.3,0.1,15.4,0.3c0.2,0,0.4,0,0.6,0.1c-0.4,0.3-0.9,0.4-1.4,0.4
				c-2.7,0.2-5.4,0.3-8.1,0.2c-3.4,0-6.9-0.1-10.3-0.2c-0.6,0-0.7,0.2-0.7,0.7c0,0.6,0,1.2,0,1.7c0,0.5,0.1,0.7,0.7,0.7
				c6.4-0.1,12.7-0.1,19.1,0.2c0.2,0,0.4,0,0.6,0.1C34,59.9,33.6,60,33.2,60c-2.6,0.3-5.2,0.4-7.8,0.3c-3.7,0-7.3-0.1-11-0.1
				c-0.4,0-0.5,0-0.5,0.5c0,0.7,0,1.3,0,2c0,0.3,0.1,0.4,0.4,0.4c1.2,0,2.5,0,3.7,0c4.4,0,8.7,0.1,13.1,0.3c1,0,1.9,0.1,2.9,0.2
				c-0.1,0.2-0.4,0.4-0.7,0.4c-0.7,0.2-1.5,0.2-2.2,0.3c-3.4,0.2-6.8,0.1-10.2,0c-2.2-0.1-4.3-0.1-6.5-0.2c-0.4,0-0.6,0.1-0.5,0.5
				c0.1,0.9,0.1,1.7,0.1,2.6c0,0.4,0.2,0.6,0.6,0.5c3.1-0.1,6.2-0.1,9.2-0.2c3.3,0,6.6-0.1,10,0.1c-0.2,0.2-0.4,0.4-0.7,0.4
				c-0.9,0.2-1.9,0.3-2.8,0.3c-4.9,0.3-9.8,0.3-14.7,0.3c-1.6,0-1.7,0.1-0.9,1.6c0.4,0.9,1.4,1.5,2.4,1.5c5.2,0,10.3,0,15.5,0.2
				c1.1,0.1,2.1,0,3.1-0.3c1.1-0.2,1.9-1.2,1.8-2.3c0.1-1.2,0.2-2.4,0.2-3.6c0.3-8.3,0.5-16.7,0.8-25c0.1-4.2,0.3-8.4,0.8-12.6
				C39.6,27.6,39.4,27.5,39,27.4"/>
			<path id="Path_88913" class="st1" d="M107.6,94.5c0-3.7,0.3-7.4,0.8-11.1c-0.4-0.5-0.6-1.1-0.6-1.8c0-1,0-2-0.2-3
				c-0.6-3.6-1.7-5.1-5-6.6c0.9-0.4,4.9-0.4,8.5-0.2c1.2-3.8,2.9-7.4,4.9-10.9c1-3.4,2.4-6.6,3.3-10c0.3,1.5,0.5,2.8,0.8,4.2
				c1.2-1.5,2.6-2.9,4-4.2c-0.2-1.1-0.5-2.2-0.7-3.4c-1.2-5.6-2.5-11.1-3.7-16.7c-0.1-0.4,0-0.6,0.4-0.6c1-0.1,1.9-0.2,2.9-0.4
				c0.6-0.1,1.3,0,1.6-0.3c0.4-0.4,0-1.1,0-1.7c0-0.5-0.2-0.7-0.7-0.8c-5.2-1.5-10.4-2.9-15.7-4.4c-0.7-0.2-1.4-0.3-2.1-0.2
				c-7.2,0.5-14.5,0.9-21.7,1.4c-3.3,0.2-6.5,0.4-9.8,0.6c-0.4,0-0.5,0.1-0.5,0.5c0,0.5,0,1,0,1.4c-0.1,0.5,0.1,0.8,0.7,0.8
				c0.4,0,0.5,0.2,0.4,0.6c-0.3,1.1-0.5,2.3-0.7,3.4c-0.1,0.4-0.2,0.4-0.5,0.3c-6.3-2.8-12.7-5.2-19.2-7.4c-0.3,0-0.5-0.3-0.4-0.6
				c0,0,0,0,0,0c0.1-1.4,0.1-2.9,0.2-4.3c0.1-1.4,0.1-2.8,0.1-4.2c-0.1-1.2-0.8-2.3-2-2.7c-0.3-0.1-0.5-0.4-0.4-0.7
				c0.1-1.4,0-2.8,0-4.2c-0.3-5.5-4.3-7.4-7.8-7.7c-0.3-0.1-0.6,0-0.9,0.1c-0.6,0.5-0.9,1.3-0.7,2.1c0,0.7,0.5,1.3,1.3,1.4
				c0.8,0.1,1.5,0.3,2.2,0.6c1.1,0.4,2,1.4,2.2,2.6c0.3,1.7,0.4,3.4,0.2,5.1c0,0.2,0,0.3-0.2,0.4c-1.6,0.4-2.2,1.6-2.2,3.2
				c-0.1,1.9-0.2,3.9-0.2,5.8c0,0.5-0.1,0.6-0.6,0.5c-8.3-2.1-17-2.6-25.5-1.3c-4.4,0.6-8,3.9-8.9,8.2c-0.9,4.6-1.5,9.3-1.9,14
				c-0.5,5.5-0.8,11-0.9,16.5C8.1,64.4,8,69.8,9,75c0.4,2.2,0.7,4.4,2.1,6.2c0.2,0.2,0,0.3-0.1,0.4c-1.3,1-2.5,2.1-3.4,3.4
				c-0.1,0.2-0.3,0.2-0.5,0.1c0,0,0,0,0,0c-0.8-0.4-1.8,0-2.2,0.8c-0.1,0.1-0.1,0.2-0.1,0.3c-0.2,0.7-0.1,1.5,0.1,2.2
				c0,0.3,0.2,0.5,0,0.8c-0.5,0.9-0.9,1.9-1.2,2.8c-0.1,0.2-0.1,0.3-0.4,0.2c-1.4-0.2-2.1,0.5-2.1,1.9C1.2,95.1,1.5,96,2,96.8
				c0.1,0.2,0.2,0.5,0.2,0.8c-0.2,0.9-0.3,1.9-0.4,2.9c0,0.2,0,0.3-0.3,0.4c-1,0.2-1.6,1.2-1.4,2.2c0,0.1,0.1,0.2,0.1,0.4
				c0.3,0.8,0.7,1.5,1.2,2.2c0.1,0.2,0.2,0.4,0.2,0.6c0.1,1.8,0.4,3.5,0.8,5.2c0,0.2,0.1,0.3-0.1,0.5c-0.8,0.7-0.9,1.9-0.2,2.7
				c0.1,0.1,0.1,0.1,0.2,0.2c0.4,0.4,0.8,0.7,1.2,1c0.4,0.3,0.8,0.6,1,1.1c1.4,2.5,3.3,4.6,5.6,6.2c3.5,2.3,7.7,3.6,11.9,3.7
				c4.6,0.1,9.1-1.3,12.8-3.9c4.3-3,7.7-6.9,10.2-11.5c0.3-0.6,0.6-1.1,1-1.8c0.1,0.3,0.1,0.4,0.2,0.6c0.6,2.8,1.5,5.5,2.6,8.2
				c2.6,6.9,8.1,12.4,15,15c6.2,2.4,12.8,3,19.3,1.8c2.9-0.4,5.7-1.3,8.2-2.6c0.2-0.1,0.4-0.2,0.6-0.4c-3.2,0.6-6.5,0.9-9.8,0.7
				c-4.4-0.1-8.7-1.8-11.9-4.8c-2.8-2.6-4.9-5.8-6.3-9.4c-2.6-6.7-2.5-14.1,0.2-20.7c2.4-6.3,6.8-11.5,12.5-15.1
				c0.3-0.2,0.6-0.4,0.9-0.6c-4.1,1.2-8,3.1-11.6,5.5c2.8-4.3,7.1-7.5,12-9c7-1.8,14.4,0.7,18.9,6.4c2.8,3.8,4.6,8.3,5.3,13
				c1,6.4,0.8,13-0.7,19.3c-0.4,1.7-0.8,3.4-1.4,5l0.1,0.1c0.2-0.2,0.4-0.5,0.6-0.7c0.7-0.8,1.3-1.7,1.8-2.6
				c2.5-4.7,4.2-9.8,5.1-15.1c0.1-0.3,0.1-0.5,0.4-0.5C107.8,100.7,107.6,97.6,107.6,94.5 M2.7,93.4c0.3-0.1,0.6,0.2,0.7,0.4
				c0.1,0.2,0.2,0.4,0.3,0.6c0.8,2.5,2.3,4.8,4.2,6.6c0.1,0.1,0.3,0.2,0.4,0.5c-0.6,0-1.2-0.2-1.7-0.6c-1.6-1.1-2.9-2.7-3.7-4.6
				c-0.2-0.5-0.4-1-0.6-1.5c-0.1-0.2-0.1-0.4-0.1-0.6C2.2,93.9,2.3,93.5,2.7,93.4 M1.3,103.3c0-0.1-0.1-0.1-0.1-0.2
				c-0.1-0.4-0.2-0.8,0.3-1s0.7,0.2,0.9,0.5c0.1,0.1,0.1,0.2,0.2,0.3c1.2,2.5,3,4.7,5.4,6.2c0.1,0,0.1,0.1,0.3,0.2
				c-0.9,0-1.7-0.2-2.4-0.7C3.8,107.3,2.2,105.4,1.3,103.3 M7.6,116.6c-1.6-0.5-3.1-1.3-4.3-2.4c-0.5-0.4-0.6-1-0.3-1.3
				c0.4-0.3,0.8,0,1.2,0.2c0.1,0.1,0.2,0.1,0.3,0.2c1.3,1.5,3.1,2.6,5.1,3.1C8.9,116.8,8.2,116.8,7.6,116.6 M8.9,94.2
				c-1.8-1.9-2.9-4.4-3-7c0-0.1,0-0.2,0-0.4c0.1-0.3,0.2-0.7,0.6-0.7c0.4,0,0.5,0.3,0.6,0.6c0.1,0.2,0.1,0.4,0.1,0.6
				c0.3,2.8,1.4,5.4,3.1,7.6c0,0.1,0.1,0.1,0.2,0.3C9.9,94.9,9.3,94.6,8.9,94.2 M84.7,26.3c4.7-0.4,9.4-0.8,14.1-1.2
				c2.5-0.2,5-0.4,7.6-0.6c0.2,0,0.4,0,0.7,0.1c3.5,1,7.1,2,10.6,3c1.2,0.3,2.4,0.6,3.5,1c-1.3-0.2-2.5-0.5-3.8-0.9l-8.6-2.1
				c-0.8-0.2-0.8-0.2-0.9,0.6c-0.1,1.5-0.1,3-0.2,4.5c0,0.5,0.1,0.6,0.5,0.5c2.3-0.2,4.7-0.3,7-0.5c0.4,0,0.6,0,0.6,0.5
				c1,5.5,1.9,11.1,2.9,16.6c0,0.1,0,0.1,0,0.2c-2.9-1.5-6-1.2-9.1-0.9c-1,0.1-1.9,0.8-2.3,1.7c-0.6,1.3-0.9,2.7-0.9,4.2
				c0,0.7,0.3,1,0.9,1c0.8,0.1,1.6,0,2.4,0c1.6-0.1,3.2,0.1,4.7,0.5c-0.3,0-0.7,0-1,0c-1.9,0-3.9,0.1-5.8,0.4
				c-0.9,0.1-1.7,0.8-2,1.7c-0.1,0.1-0.1,0.3-0.3,0.6c0.1-1.5,0.2-2.9,0.2-4.2c0.3-5,0.6-10,0.9-15c0.3-4.1,0.5-8.1,0.8-12.2
				c0-0.5-0.1-0.8-0.6-0.8c-0.5,0-0.8,0-1,0.6c-0.8,4.5-1.7,9-2.6,13.4c0,0.2-0.1,0.4-0.2,0.5c-1.2-0.9-2.7-1.5-4.2-1.6
				c-0.3,0-0.3-0.1-0.3-0.4c0.4-1.9,0.9-3.8,1.3-5.6c0.1-0.3,0.3-0.3,0.5-0.3c0.9,0,1.8-0.1,2.8-0.2c0.3,0,0.6-0.2,0.6-0.5
				c0,0,0,0,0,0c0.4-1.8,0.8-3.5,1.2-5.3c0.1-0.5,0-0.6-0.5-0.5c-3.9,0.2-7.7,0.4-11.6,0.7c-2.6,0.1-5.3,0.3-7.9,0.4
				c-0.1,0-0.2,0.1-0.3,0c-1.2,0.1-2.4,0.2-3.6,0.1C82.3,26.5,83.5,26.4,84.7,26.3 M54.1,15c0.1,1.4,0.1,2.7,0,4.1
				c-0.1,1.8-0.2,3.5-0.3,5.3c0,0.2,0.2,0.6-0.3,0.5c-0.3,0-0.6-0.1-0.6-0.6c0.2-2.9,0.4-5.7,0.4-8.6c0-1.1-0.4-2.1-1.2-2.7
				C53.1,13.1,53.9,13.9,54.1,15 M46.4,1.3C46.2,1.2,46,1.2,45.7,1c3,0.3,5.4,2.6,5.8,5.6c0.3,1.8,0.3,3.6,0.2,5.4
				c0,0.2,0,0.4-0.3,0.3c-0.3,0-0.4-0.1-0.4-0.4c0.1-0.5,0.1-1,0.1-1.5c0.2-1.7-0.1-3.4-0.6-5C49.7,3.5,48.3,2,46.4,1.3 M34.1,115.4
				c-4.6,3.4-11,2.7-14.8-1.6c-5.5-6-5.4-16.5,0.3-22.3c1.7-1.7,3.8-2.9,6.2-3.3c0.4-0.1,0.6,0,0.6,0.5c0,0.6,0.2,1.3-0.1,1.8
				C26,91,25.2,90.8,24.6,91c-2.7,0.8-4.9,2.8-5.8,5.4c-2,5-1.6,10.6,1.1,15.3c1.1,2.1,3.2,3.5,5.6,3.7c-0.2-0.1-0.5-0.2-0.7-0.4
				c-2.6-1.4-4.5-3.9-5.2-6.7c-0.9-3.3-0.9-6.7,0-10c0.3-1.4,1.1-2.7,2.1-3.7c0.5-0.5,1.1-0.8,1.7-1c-3.3,4.4-3.8,9.2-2.5,14.4
				c0.3,1,0.7,1.9,1.4,2.6c0.4,0.4,0.8,0.8,1.4,0.9c-1-1.4-1.7-3-2.1-4.7c-0.8-3.1-0.4-6.4,0.9-9.4c0.5-1.1,1.3-2,2.3-2.7
				c0.3-0.2,0.7-0.4,1-0.4c0,0.4-0.1,0.8-0.3,1.2c-1.6,2.8-2.2,6-1.8,9.2c0.2,2,0.8,3.9,1.9,5.6c0.7,1,1.7,1.8,2.8,2.3
				c2.1,1.3,4.2,0.9,6.4,0.3c0.7-0.2,1.4-0.4,2.2-0.7C36.2,113.6,35.3,114.6,34.1,115.4 M48.2,108.7c-0.2-0.3-0.3-0.7-0.2-1.1
				c0.1-0.6,0.5-0.8,1-0.4c0.3,0.2,0.5,0.5,0.7,0.9c1.4,2.9,3.4,5.3,6.1,7.1c0.2,0.1,0.3,0.2,0.6,0.4c-0.8,0.1-1.5-0.1-2.2-0.4
				c-1.9-0.9-3.4-2.4-4.6-4.1C49,110.4,48.6,109.6,48.2,108.7 M53.9,104.1c0.6,0.7,1.2,1.3,1.9,2c-0.8,0-1.6-0.3-2.2-0.8
				c-1.8-1.3-3.2-3.1-4.1-5.1c-0.3-0.6-0.6-1.3-0.8-2c-0.3-0.9-0.2-1.6,0.3-1.7s1,0.3,1.2,1.2C50.9,100.1,52.2,102.3,53.9,104.1
				 M51.4,88c0.1-0.4,0.2-0.8,0.7-0.9c0.5,0,0.6,0.4,0.8,0.7c0.1,0.2,0.2,0.5,0.2,0.8c0.4,3.2,1.6,6.2,3.6,8.7
				c0.1,0.1,0.1,0.2,0.2,0.3c0,0,0,0.1,0,0.2c-0.7-0.2-1.4-0.6-1.9-1.1c-1.6-1.7-2.7-3.8-3.2-6c-0.2-0.7-0.3-1.4-0.4-2.1
				C51.3,88.4,51.3,88.2,51.4,88 M56.1,123.1c-1.9-0.6-3.7-1.6-5.2-2.9c-0.6-0.5-0.7-1.2-0.4-1.5s0.9-0.2,1.5,0.3
				c0.4,0.3,0.8,0.7,1.2,1.1c1.2,1.2,2.7,2.1,4.3,2.6c0.3,0,0.5,0.2,0.7,0.3C57.5,123.3,56.8,123.4,56.1,123.1 M96.6,64
				c-0.1,1.4-0.4,2.9-0.8,4.2c-0.7,2-1.7,2.5-3.7,1.8c-2.4-1-4.8-2.1-7.2-3.1c-5.3-2.4-10.8-4.5-16.3-6.3c-1.6-0.5-3.3-0.9-5-1.1
				c-1.6-0.2-3.3,0.6-4.1,2c-1.1,1.5-1.9,3.2-2.4,5c-0.8,2.3-1.5,4.7-2.2,7c-0.1,0.5-0.5,0.9-1,1c-2.7,0.7-5.5,1-8.4,1
				C45,75.6,45,75.3,45,75c-0.5-2.4-0.8-4.8-1-7.3c-0.8-8.6-1-17.3-1.2-26c0-0.2,0-0.5,0-0.7h-0.2c-0.4,9.1-1.1,18.1-1.3,27.2
				c0,2.2,0,4.3,0,6.5c0,0.5-0.1,0.6-0.6,0.6c-2-0.1-4,0-6,0c-4.8,0.1-9.6,0.3-14.5,0.1c-1.4,0-2.9-0.2-4.3-0.5
				c-0.6-0.1-1.2-0.3-1.8-0.6c-1.3-0.6-2.2-1.9-2.4-3.3c-0.4-2.8-0.6-5.7-0.6-8.5c-0.2-7.1,0.1-14.1,0.8-21.1
				c0.4-3.8,1-7.6,1.8-11.4c0.5-2.3,2.1-4.1,4.3-4.9c2.7-1,5.5-1.5,8.3-1.5c4.4,0,8.8,0.4,13.1,1.1C55.8,27.2,71,33,85.4,41.2
				c2.9,1.6,5.6,3.5,8.1,5.7C95,48.2,96,50,96.1,52C96.7,56,96.8,60,96.6,64 M93.8,41.6c0.2-0.2,0.5-0.3,0.8-0.4
				c0,0.3,0,0.6-0.2,0.7C94.2,42,94,41.8,93.8,41.6 M97,32.4c-0.5,1.8-1,3.6-1.5,5.5c0,0.3-0.3,0.6-0.6,0.6
				c-1.2,0.3-2.3,0.8-3.3,1.5c-0.2,0.2-0.5,0.2-0.8,0c-4-2.2-8.1-4.3-12.3-6.2c-0.3-0.1-0.5-0.4-0.4-0.7c0.2-1.5,0.3-2.9,0.4-4.4
				c0-0.2-0.1-0.4,0.2-0.4c1.3,0.2,2.4,0.5,3.6,0.7c4.7,0.9,9.5,1.8,14.2,2.7C97.1,31.8,97.1,32,97,32.4 M97.5,44.4
				c-0.3-0.1-0.4-0.4-0.3-0.7c0.2-0.8,0.4-1.7,0.6-2.6c0.1-0.3,0.2-0.4,0.5-0.3c0.1,0,0.1,0,0.2,0c0.6,0.1,1.4,0.2,1.7,0.7
				c0.2,0.3-0.6,0.8-1,1.2c-0.4,0.5-0.8,0.9-1.3,1.4C97.8,44.2,97.7,44.5,97.5,44.4 M102.3,44.2c-0.3,1.6-0.7,3.2-0.9,4.8
				c-0.1,0.6-0.5,1.1-1.1,1.4c-0.2,0.2-0.3,0.1-0.3-0.2c-0.2-1.2-0.6-2.5-1.1-3.6c-0.1-0.2,0-0.3,0.2-0.4c1-0.7,1.9-1.5,2.9-2.2
				c0.1-0.1,0.2-0.2,0.3-0.1S102.3,44,102.3,44.2"/>
			<path id="Path_88914" class="st1" d="M84.7,26.5c0.1,0,0.2,0,0.3,0l-0.3-0.1C84.7,26.4,84.7,26.4,84.7,26.5"/>
			<path id="Path_88915" class="st1" d="M117.3,27.8c0.1,0,0.3,0.1,0.3-0.1C117.5,27.8,117.4,27.7,117.3,27.8"/>
			<path id="Path_88916" class="st1" d="M42.6,41c0.1-0.1,0.1-0.3,0.1-0.5c0,0.2,0,0.3,0.1,0.5v-1.8C42.6,39.8,42.5,40.4,42.6,41
				 M42.7,40.1c0-0.2,0-0.4,0-0.6C42.7,39.7,42.7,39.9,42.7,40.1"/>
			<path id="Path_88917" class="st1" d="M108.4,108.5L108.4,108.5c0,5.9,2.3,8.9,4.6,12.2c2,2.5,3.6,5.3,4.7,8.3v2.3
				c0,3.2,6.9,6.2,14.5,6.2s14.5-3,14.5-6.2v-3.8l14.9-25l6.7-0.9c0.5,0,0.9-0.1,1.3-0.3c0.4-0.2,0.7-0.6,0.7-1.1
				c0.1-1.6-2-4.3-5.1-6.5c-2.6-1.8-5-2.8-6.6-2.8c-1.4,0-1.7,0.8-1.7,1.1c0,0.2,0,0.4,0,0.5c0,0.1,0,0.1,0,0.2l0,0
				c0,0.2,0.1,0.4,0.1,0.6v0c0.6,1.2,1.4,2.3,2.4,3.2c0.9,0.9,2,1.7,3.1,2.4c-1.2-0.7-2.3-1.4-3.4-2.3c-0.6-0.5-1.2-1.1-1.7-1.7
				l1,4.9l-11.5,13.4v-13.1c0-1.3-1.1-2.4-3.1-3.4h0c-0.8-0.4-1.3-1.1-1.5-1.9c-0.9-4.4-3.6-7.2-7.1-7.3v0h-2.5l0,0
				c-0.1,0-0.1,0-0.2,0c-0.3,0-0.7,0-1,0.1c-4,0.6-6.1,4.2-7.3,8.1c-0.6,0.2-1.3,0.3-1.9,0.5c-0.6,0.2-1.2,0.5-1.8,0.8
				c-3.8,0.1-7,1.2-9.1,3.4c-1.8,1.9-2.8,4.3-2.8,6.9c0,0.2,0,0.3,0,0.4C108.4,108,108.4,108.2,108.4,108.5 M141.9,134.7
				c-3.1,1.2-6.4,1.8-9.7,1.8c-1.6,0-3.2-0.1-4.8-0.4l0,0c-0.1,0-0.2,0-0.3,0v0c-1.4-0.2-2.8-0.6-4.1-1.2c-0.9-0.4-1.7-0.8-2.5-1.2
				c-0.6-0.4-1.2-0.9-1.8-1.4c0.6,0.4,1.2,0.8,1.9,1.2c0.8,0.4,1.7,0.7,2.6,1c1.3,0.4,2.5,0.6,3.8,0.7v-3.7l-0.7-20.1l-0.6,20.1
				l-0.8-24.4l0-0.1l-0.6,18.5l-0.7-19.7l0,0l-0.5,12.7l-0.6-13.4c-1.5-0.5-2.9-1.5-3.8-2.9v-0.1c0.8,0.7,1.7,1.2,2.6,1.6
				c0.2,0.1,0.5,0.1,0.7,0.1c0.9,0,1.7-0.8,1.7-1.7c0.4-3.8,1.8-12.6,7.5-13.6c-3.8,2.6-4.4,9.3-4.6,14.4c0,1.2,0.9,2.3,2.1,2.4
				c1.1,0.1,2.2,0.1,3.4,0.1c3.4,0.1,6.8-0.4,10.1-1.5c0.8-0.3,1.6-0.7,2.4-1.1l0.3,2.6l0.4-3.1c0.1-0.1,0.2-0.2,0.3-0.3v3l0,0.1
				c0,0.1,0,0.1,0,0.1c0,0,0,0.1,0,0.1c0,0,0,0.1,0,0.1c0,0.1-0.1,0.2-0.1,0.2c-0.1,0.1-0.1,0.2-0.2,0.3c-0.1,0.1-0.2,0.2-0.3,0.3
				s-0.2,0.2-0.4,0.3c-0.3,0.2-0.6,0.4-0.9,0.6c-0.4,0.2-0.7,0.4-1.1,0.6c-0.4,0.2-0.8,0.4-1.3,0.5s-0.9,0.3-1.4,0.4
				s-0.9,0.2-1.4,0.3s-0.9,0.2-1.4,0.3c-0.9,0.2-1.7,0.3-2.5,0.4s-1.3,0.1-1.8,0.2l-0.7,0l0.7,0c0.4,0,1,0,1.8,0s1.6,0,2.5-0.1
				c0.5,0,0.9-0.1,1.4-0.2s1-0.2,1.5-0.2s1-0.2,1.5-0.3s0.9-0.3,1.4-0.4c0.4-0.2,0.9-0.3,1.3-0.5c0.4-0.2,0.7-0.4,1.1-0.7
				c0.1-0.1,0.3-0.2,0.4-0.3v0.3c0,0,0,0.1,0,0.1c0,0,0,0.1,0,0.2c0,0,0,0.1,0,0.1c0,0,0,0.1-0.1,0.1c-0.1,0.2-0.3,0.4-0.4,0.6
				c-0.2,0.3-0.5,0.5-0.8,0.7c-0.4,0.2-0.8,0.5-1.1,0.6c-0.5,0.2-0.9,0.4-1.4,0.6c-0.5,0.2-1,0.4-1.6,0.5s-1.1,0.3-1.6,0.4
				s-1.1,0.2-1.7,0.3s-1.1,0.2-1.6,0.2s-1.1,0.1-1.5,0.2c-0.2,0-0.5,0-0.7,0l-0.7,0l-1.2,0c-0.4,0-0.7,0-0.9,0h-0.8l0.8,0.1
				c0.3,0,0.6,0.1,0.9,0.1s0.8,0,1.2,0.1l0.7,0c0.2,0,0.5,0,0.7,0c0.5,0,1,0,1.6,0s1.1-0.1,1.7-0.1s1.2-0.1,1.7-0.2s1.2-0.2,1.7-0.3
				s1.1-0.3,1.7-0.4c0.5-0.2,1-0.3,1.5-0.6c0.5-0.2,0.9-0.4,1.3-0.7c0.3-0.2,0.5-0.4,0.8-0.6v4.7c-0.1,0.1-0.2,0.2-0.3,0.3l-0.3-4.1
				l-0.4,5c-1.5,2-2.2,4.4-2.2,6.9c0,0.8,0.1,1.7,0.4,2.5l0.4,8.3l0.3-6.8c0.1,0.1,0.1,0.2,0.2,0.3l0.4,5.8l0.4-5.2
				c0.1,0,0.1,0.1,0.2,0.1l0.4,4.4l0.4-4.2c0,0,0.1,0,0.1,0v3.5C145.7,132.4,144.3,133.6,141.9,134.7 M158.6,91.8
				c1.1,0,3.2,0.7,6,2.7c3.3,2.3,4.8,4.6,4.7,5.6c0,0.2-0.1,0.2-0.1,0.3c-0.3,0.1-0.6,0.2-0.9,0.2c-1.4,0-3.5-0.9-5.8-2.7
				c-3.1-2.3-4.8-4.4-4.6-5.7C157.9,91.9,158.3,91.8,158.6,91.8 M160.5,102.4l-14.5,24.4c-0.2,0-0.3-0.1-0.5-0.1l12.4-20.6
				L144.4,126c-0.1-0.1-0.2-0.3-0.3-0.5l9.2-13.9l-9.7,12.6c-0.1-0.5-0.2-1.1-0.2-1.6c-0.1-2.8,1.1-5.6,3.1-7.5l0,0l12-14
				c0.2,0.3,0.5,0.6,0.8,0.8C159.7,102.1,160.1,102.3,160.5,102.4 M132.2,94.8c-1.2,0-2.4,0.1-3.5,0.2c0.8-3.1,2.3-5.6,5-6.2
				c2.1,0.5,3.5,2.4,4.1,5.6c0.1,0.2,0,0.4-0.1,0.6c-0.2,0.2-0.5,0.3-0.8,0.2c-0.1,0-0.1,0-0.1,0C135.3,94.9,133.8,94.8,132.2,94.8
				 M145.7,100.2c0,2.1-5.5,4.4-13.5,4.4c-0.5,0-1.1,0-1.6,0h0c-0.5,0-1.1-0.1-1.6-0.1h0c-0.7-0.1-1.2-0.7-1.2-1.4c0,0,0,0,0-0.1
				c0.1,0,0.2,0,0.2,0c0.6,0,1.2-0.1,1.7-0.4l6.7-4.2c0,0,0.1-0.1,0.1-0.1l0.3,0c0.4,0,0.9,0,1.4,0.1s1.1,0.1,1.7,0.2
				c0.3,0,0.6,0.1,0.8,0.1s0.5,0.1,0.8,0.2s0.5,0.1,0.7,0.2c0.2,0.1,0.4,0.2,0.6,0.3c0.2,0.1,0.3,0.2,0.5,0.3
				c0.1,0.1,0.2,0.2,0.3,0.3c0,0.1,0.1,0.2,0.1,0.3c0,0.1,0,0.1,0,0.1s0,0,0-0.1c0-0.1,0-0.2,0-0.3c0-0.1-0.1-0.3-0.2-0.4
				c-0.1-0.2-0.3-0.3-0.4-0.4c-0.9-0.6-1.9-1-2.9-1.3c-1-0.3-2.1-0.5-3.1-0.6c-0.3,0-0.6-0.1-0.8-0.1h0l-0.1,0l-0.1,0l-0.4,0l0,0
				c-1-0.1-2-0.1-3-0.1c-1.4,0-2.8,0.1-4.3,0.2c0.1-0.4,0.1-0.9,0.2-1.3c1.2-0.1,2.4-0.2,3.8-0.2C140.2,95.9,145.7,98.2,145.7,100.2
				 M111.1,102.2c1.8-2.4,4.6-3.9,7.7-4c-0.4,0.3-0.6,0.7-0.8,1.1c-0.2,0-0.4,0-0.6,0C114.9,99.4,112.7,100.5,111.1,102.2
				 M123.7,96.9c-0.1,0.5-0.2,1-0.3,1.5c-1.5,0.5-2.4,1.2-2.4,1.9c0,0.6,0.7,1.2,1.9,1.7c0,0.1,0,0.2,0,0.3c0,0.5-0.3,0.8-0.7,0.8
				c-0.1,0-0.1,0-0.2,0c-1.1-0.4-2.1-1-2.9-1.9l0,0c0-0.1-0.1-0.1-0.1-0.2c0,0,0,0,0,0c0,0,0-0.1-0.1-0.1c0,0,0,0,0-0.1
				c0,0,0-0.1,0-0.1c0,0,0,0,0-0.1c0-0.1,0-0.1,0-0.2C118.7,99,120.6,97.7,123.7,96.9 M119.8,106.1c0.3,3.8,0.3,7.5,0.3,11.3
				c0,2.2,0,4.4-0.1,6.5c0,1.7-0.1,3.4-0.2,5.1c-0.3-3.6-0.3-7.3-0.3-10.9C119.4,114.1,119.5,110.1,119.8,106.1 M121.4,121
				C121.4,121,121.4,121,121.4,121c0.2,1.9,0.3,3.7,0.2,5.5c0,1.7-0.1,3.4-0.3,5.1c0,0,0,0,0,0c-0.2-1.8-0.3-3.6-0.3-5.5
				C121.1,124.4,121.2,122.7,121.4,121 M117.7,125.6l-0.5-5.2c-0.6-0.9-1.4-1.8-2.1-2.8c-2.8-3.3-5.6-6.8-4.1-13.6
				c1.4-2.1,3.8-3.5,6.4-3.7c0.1,0,0.3,0,0.4,0v19.8l0,0L117.7,125.6z"/>
		</g>
	</g>
</g>
</svg>
