<svg xmlns="http://www.w3.org/2000/svg" xmlns:xlink="http://www.w3.org/1999/xlink" width="200" height="200" viewBox="0 0 200 200">
  <defs>
    <clipPath id="clip-path">
      <rect id="Rectangle_15248" data-name="Rectangle 15248" width="157.842" height="139.919" fill="none"/>
    </clipPath>
    <clipPath id="clip-Farm_to_Table_Crops_">
      <rect width="200" height="200"/>
    </clipPath>
  </defs>
  <g id="Farm_to_Table_Crops_" data-name="Farm to Table(Crops)" clip-path="url(#clip-Farm_to_Table_Crops_)">
    <rect width="200" height="200" fill="#fff"/>
    <g id="Group_20700" data-name="Group 20700" transform="translate(21.079 30.04)">
      <g id="Group_20560" data-name="Group 20560" transform="translate(0)" clip-path="url(#clip-path)">
        <path id="Path_88904" data-name="Path 88904" d="M18.829,41.448a6.46,6.46,0,0,1,.778-4.26c.783-1.281.04-2.932-.324-4.359-.781-3.061-1.691-6.088-2.37-9.212,2.395,3.314,2.6,7.836,5.891,10.672a77.189,77.189,0,0,1-3.757-13.58c2.054,3.627,2.741,7.85,5.013,11.412.569-3.265-1.325-6.236-1.116-9.8,1.725,3.367,1.856,7.1,4.456,10.253.115-3.872-1.8-6.919-1.715-10.742,1.769,3.034,1.762,6.341,3.667,9.3.319-2.263-.644-3.847-.934-5.546-.114-.668-.512-1.3-.581-1.961-.046-.44-.71-1.012-.019-1.355.72-.357.884.4,1.357,1.265.083-2.519-.923-4.448-.727-6.6A51.979,51.979,0,0,0,34.18,29.525c.635-2.21-.433-4.866.718-7.394a3.385,3.385,0,0,1,.821,2.746,24.182,24.182,0,0,0,1.349,7.578c.392,1.141.809,1.2,1.791.717,3.795-1.863,7.755-1.772,11.754-.8.547.133,1.122.585,1.559-.03a1.692,1.692,0,0,0,.021-1.813c-1.332-2.333-.956-5.279-2.777-7.459-.662-.792.231-1.256.846-1.5,1.382-.55,2.7-.064,3.981.455,3.119,1.259,6.037,3.021,9.374,3.731.445.095.893.177,1.342.252,1.606.265,2.589.088,2.2-2.044-.291-1.591,1.564-3.4,3.6-3.773a3.131,3.131,0,0,0,2.069-1.047,2.518,2.518,0,0,1,2.029-.749c1.728-.036,3.728-.642,5.116.026,1.881.906-.6,3.054.624,4.6,1.678-.624,3.613-.977,5.222-2.462,1.993-1.839,3.362-1.324,3.718,1.3.423,3.124.744,6.293-.433,9.362-.316.825-.454,1.583.578,2,1.151.467,1.477-.421,1.638-1.177a14.3,14.3,0,0,1,5.095-8.332,12.626,12.626,0,0,1,7.724-2.886c1.839-.089,3.675-.256,5.514-.34,1.375-.062,1.962-.706,1.835-2.09a42.787,42.787,0,0,0-1.546-6.848q-.69-2.65-1.452-5.281a2.8,2.8,0,0,1,1.367-3.51,18.315,18.315,0,0,1,9.5-2.6C127.53.01,135.721-.3,143.854.79a33.873,33.873,0,0,1,11.494,3.838,5.711,5.711,0,0,1,1.219.948c1.664,1.6,1.683,1.9.159,3.663-2.068,2.4-4.163,4.769-6.243,7.155-2.627,3.012-2.867,6.6-2.6,10.362.594,8.333,3.643,16,6.242,23.807,1.432,4.3,2.584,8.731,2.243,13.307-.514,6.9-2.3,13.421-6.635,19.01A21.152,21.152,0,0,1,144,87.8a5.221,5.221,0,0,0-1.738,1.324,3.455,3.455,0,0,1,.771,4.785c-.518.915.139,2.011.534,2.952a12.579,12.579,0,0,1,.591,8.72c-1.776,5.967-6.244,9.064-11.779,11.3.755.814,1.624,1.683,2.406,2.624.4.485,1.087.958.541,1.782-.638.963-1.368.269-1.982.054a4.05,4.05,0,0,1-2.458-1.8c-.8-1.679-2.232-1.8-3.729-1.867s-3-.016-4.494-.061a10.361,10.361,0,0,1-5.742-2.084c-.3,1.377-.244,1.519.937,1.753a7.944,7.944,0,0,1,3.98,1.864c-1.657,1.3-1.647,1.29-.062,2.784a8.051,8.051,0,0,0,4.73,2.268c.939.1,2.129.374,2.113,1.331-.019,1.091-1.28,1.385-2.259,1.41-2.3.058-4.609.056-6.908-.042-1.214-.052-2.064-.359-1.292-2.031.793-1.716-1-2.462-1.914-3.457-.569-.62-1.268-1.194-2.27-.7a2.687,2.687,0,0,0-1.488,2.5c-.064.945.209,1.33,1.163.863.257-.126.54-.2.788-.345a1.2,1.2,0,0,1,1.675.388c.5.64.116,1.2-.344,1.671a8.007,8.007,0,0,1-3.047,2.2,3.835,3.835,0,0,0-2.195,2.027,14.1,14.1,0,0,1-11.278,7.733c-3.13.392-6.115.651-9.083-.7-1.025-.467-2.062-.323-2.313,1.13-.166.956-.948,1.289-1.724,1.469a10.089,10.089,0,0,1-7.462-1.145c-.891-.5-.953-1.047-.283-1.771A5.842,5.842,0,0,1,81.492,135c1.282-.278,2.495-.179,2.591,1.566.2-.02.334.007.4-.046,2.2-1.732,2.2-1.733.171-3.72-.411-.4-.822-.807-1.238-1.2-.6-.568-1.251-.706-1.74.044-.225.345-1.681.748-.118,1.383.378.154-.084.6-.278.837-.81.994-4.614,1.56-5.7.872-.854-.54-.656-1.541.531-2.295a18.65,18.65,0,0,0,4.9-4.551c-2.124-.42-2-.354-2.893,1.293a6.359,6.359,0,0,1-4.056,2.991c-1.127.311-1.829-.72-1.291-1.811a16.353,16.353,0,0,1,1.241-1.856,26.89,26.89,0,0,1-2.413-1.645c-1.022-.864-.983-.951-2.69-.96-4.645-.023-9.321-.372-13.806,1.353a4.973,4.973,0,0,1-1.887.061c-.493-.02-1.12-.352-.922-.782,1.009-2.193-.936-1.8-1.8-1.935A138.52,138.52,0,0,1,32.825,120.4a39.789,39.789,0,0,1-8.521-3.553c-6.662-3.827-9.908-10.09-12.457-16.947-2.57-6.912-4.282-14.084-6.6-21.064-1.294-3.887-3.118-7.577-3.937-11.654a79.587,79.587,0,0,1-1.082-20.8c.4-6.371,7.077-8.819,12.785-4.787-.783-3.481-2.631-6.486-2.737-9.989,2.172,3.556,2.774,7.831,5.126,11.687.157-1.838-.965-3.114-.654-4.85,1.43,1.985,1.616,4.3,3.035,6.451-.522-4.024-2.352-7.339-2.674-11.036,1.862,2.376,2.19,5.391,3.427,8.015,1.043,1.386,1.444,3.136,2.435,4.292-.772-1.381-1.88-2.855-2.138-4.718m43.765,86c-.259.784.629,1.286,1.217,1.706a23.045,23.045,0,0,0,2.765,1.711c2.012,1.042,3.331.792,4.923-.829,1.072-1.091.892-1.986-.606-2.265-2.077-.386-4.193-.569-6.238-.832-.747.181-1.768-.377-2.061.508m69.976.374c.494-.515.993-1.089.5-1.8a1.516,1.516,0,0,0-1.844-.459,10.941,10.941,0,0,0-3.67,1.778c-.483.372-1.124.816-.827,1.541.279.679,1.059.55,1.6.678a6.3,6.3,0,0,0,4.245-1.733m-75.123,1.341a1.43,1.43,0,0,0-.372-1.581c-.436-.321-.853.078-1.227.261a15.317,15.317,0,0,0-3.447,2.213c-.5.445-1.144.856-.827,1.7.311.823,1.027.782,1.724.756a5.181,5.181,0,0,0,4.147-3.345m68.768-9.06c.505-.2,1.636.813,1.6-.732-.951-.854-2.117-.708-3.253-.7a1.263,1.263,0,0,0-1.269.7c-.251.615.288.94.68,1.242a10.98,10.98,0,0,0,3.8,1.453,1.206,1.206,0,0,0,1.6-.621c.4-.884-.423-1-.878-1.345a5.6,5.6,0,0,1-2.274,0M18.532,41.875a12.357,12.357,0,0,0,2.951,5.055c-.861-1.845-1.9-3.594-2.654-5.481l-.3.426m109.282,77.5c.033.7-.41.726-.893.576a2.4,2.4,0,0,0-2.089,0,4.039,4.039,0,0,0,3.658.158l-.676-.733M149.22,48.907a32.776,32.776,0,0,1-8.041,1.645c-2.812.307-5.633.29-8.453.366-1.747.047-2.683.976-2.559,2.54.133,1.666,1.579,1.182,2.545,1.222a57.692,57.692,0,0,0,16.568-1.685c2.866-.722,2.869-.688,2.09-3.531-1.312-4.787-3.008-9.461-4.148-14.3-.893-3.793-1.225-7.677-1.93-11.485-.893.192-1.675.364-2.46.526a3.6,3.6,0,0,1-.517.042c-9.327.536-18.608.519-27.665-2.271a2.627,2.627,0,0,0-2.186-.025c-1.33.831-2.767.641-4.192.621-2.518-.035-5.023-.281-7.49.637-4,1.489-7.438,5.768-7.309,9.33.058,1.607,1.087,2.174,2.572,1.5A2.425,2.425,0,0,0,97.3,32.285c1.01-3.339,3.411-4.812,6.72-5.211,3-.363,4.714.276,5.779,2.31a6.066,6.066,0,0,1,.621,3.166,9.632,9.632,0,0,0,.343,3.244c.141.469.357.878.9.913.738.048.542-.605.656-.988.225-.761.161-1.614.753-2.255.481-.52,1-1.021,1.772-.838.682.161.681.823.853,1.367a6.747,6.747,0,0,1-.519,4.686,2.911,2.911,0,0,0,.972,3.39c.747.624,1.258-.766,1.859-1.28.523-.448.977-.981,1.513-1.413,2.918-2.352,5.512-2.275,8.166.134,2.357,2.14,3.05,4.931,3.111,7.922a2.124,2.124,0,0,0,2.283,2.4,36.949,36.949,0,0,0,5.177-.134c3.929-.426,7.85-.91,11.836-1.593a1.067,1.067,0,0,1-.866.8M92.548,53.934c1.134.727.562,1.119-.259,1.445a2.1,2.1,0,0,1-2.518-.517,1.665,1.665,0,0,1,.158-2.336c.661-.844,1.014-1.6-.122-2.44-2.435-1.8-7.32-2.171-9.974-.681-4.041,2.269-6.2,5.975-7.806,10.121a3.635,3.635,0,0,0,.735,4.262c1.919,1.908,1.985,3.94.507,6.146a2.973,2.973,0,0,0-.692,2.382,11.224,11.224,0,0,0,8.636,8.091,26.782,26.782,0,0,0,5.667-.062c7.485-.336,17.283-7.86,16.625-18.609-.264-4.32-3.21-8.608-7.722-8.943-1.277-.095-2.645.05-3.98-.739a1.712,1.712,0,0,0,.745,1.879m41.316,41.173c-.473-1.106-.35-1.9,1.045-2.046a2.423,2.423,0,0,0,2.063-1.807c.266-.822-.346-1.531-.991-2.043a10.14,10.14,0,0,0-1.849-1.238c-5.465-2.639-13.4-.541-17.031,4.306-2.855,3.812-3.807,8.125-3.919,12.74a6.8,6.8,0,0,0,.7,4,23.7,23.7,0,0,0,4.391,5.281,5.759,5.759,0,0,0,3.094,1.321,38.835,38.835,0,0,0,7.4-.035,13.451,13.451,0,0,0,10.3-5.056c4.6-5.715,4.853-9.6,1.433-15.336-1-1.672-1.491-1.732-2.9-.456-.341.308-.619.685-1.078,1.2l2.459-.267c-1.908,1.913-4.238,1.493-5.116-.564M93.114,108.869c-1.118-.41-1.574-.2-1.192,1.053a2.983,2.983,0,0,1-1,3.1,5.135,5.135,0,0,1-4.929,1.371,2.591,2.591,0,0,0-3.143,1.714,12.527,12.527,0,0,0-1.012,4.149c-.306,2.948-.146,5.917,1.551,8.447a21.071,21.071,0,0,0,8.414,7.215,6.737,6.737,0,0,0,5.65.356,7.375,7.375,0,0,1,3.176-.646,6.632,6.632,0,0,0,5.41-2.489c3.872-4.074,5.009-9.043,4.821-14.43-.2-5.754-3.82-11.753-11.936-10.777-.532.064-1.136.061-1.256.668-.13.657-.352,1.764.112,1.95,1.419.569.341.919-.017,1.242a3.137,3.137,0,0,1-3.948-.082c-.373-.35-.62-.979.019-.981,1.946-.006.887-1.227,1.036-2.154a1.6,1.6,0,0,1-1.755.291m59.044-46.161a79.872,79.872,0,0,1-20.893,3.663c-1.371.058-3.111-.888-3.986-.037-.8.775-.476,2.6-.9,3.88-1.448,4.384-1.271,9.18-3.426,13.377a1.4,1.4,0,0,0-.081.334c-.328,1.469-.012,1.833,1.425,1.5a19.1,19.1,0,0,1,3.544-.624c3.42-.147,6.343,1.254,9.188,2.909a1.985,1.985,0,0,0,2.026.244c10.644-4.356,14.28-13.179,15.286-24.137.01-1.606-.228-1.727-2.185-1.105m-43.521-1.952q2.882-8.049,5.481-16.2a3.517,3.517,0,0,0-.465-3.633c-.423.133-.429.366-.479.587-.2.866-.618,1.475-1.629,1.428a1.926,1.926,0,0,1-1.75-1.44,1.431,1.431,0,0,1,.972-1.923c1.328-.543.465-1.047-.063-1.347a7.236,7.236,0,0,0-5.83-.64c-6.346,2.014-12.017,5.556-18.068,8.25a2.474,2.474,0,0,0-.288.188c-.506.319-.344.592.009.937a5.892,5.892,0,0,0,7.13.714,8.773,8.773,0,0,1,1.336-.775c.528-.229,1.12-.4,1.549.189a1.484,1.484,0,0,1,.155,1.6c-.438,1.008-1.41,1.423-2.267,2.214,3.09,1.364,6.574,1.738,8.68,4.673,2.079,2.9,1.616,6.346,2.131,9.834a9.342,9.342,0,0,0,3.394-4.662m4.038-47.218a3.751,3.751,0,0,0,3.027,3.089,59.827,59.827,0,0,0,9.8,1.739,102.829,102.829,0,0,0,17.928,0c1.222-.1,2.69.041,3.515-1.056,1.753-2.335,3.777-4.437,5.633-6.657-14.118,1.033-28.032.482-41.821-3.513.666,2.16,1.469,4.244,1.923,6.4M61.257,40.292a2.833,2.833,0,0,1,.705.92c.214-.081.486-.1.634-.252,1.549-1.54,2.874-1.137,4.18.366a3.739,3.739,0,0,0,3.326.993c1.3-.079,1.752-.492,1.064-1.795a18.38,18.38,0,0,0-4.493-5.617,4.7,4.7,0,0,1-1.759-2.1,4.455,4.455,0,0,1,2.351,1.408,27.879,27.879,0,0,1,5.759,7.476c.322.557.605,1.417,1.451,1.256.76-.145.457-1.069.872-1.706a3.09,3.09,0,0,0,2.613,2.02c1.344.022,1.234.65,1.044,1.677-.211,1.141-.97,2.241-.6,3.666,3.36-4.164,3.233-8.407.467-13.762-2.328-4.508-9.727-7.649-15.147-6.6.079.63,1.1.642.96,1.454-2.078-.314-3.921-1.45-6.466-1.716l5.145,4.269c-1.593-.036-2.518-1.123-3.7-.65.151,1.309,1.738,1.878,1.571,3.375-1.331-1.314-2.281-2.908-4.047-3.685-.327,1.531,1.081,2.585.82,4.146-1.359-1.046-1.342-2.916-2.918-3.92.1,1.487-1.337,2.489.4,4.135,1.322,1.254,2.039,3.481,2.992,5.277.626,1.179,1.192,1.047,1.993.929a2.179,2.179,0,0,0,1.515-.677,7.566,7.566,0,0,0-.737-.891m-.556,3.3c-3.873.344-6.594,2.638-8.727,5.721a2.056,2.056,0,0,0,.292,2.673,7.239,7.239,0,0,1,1.756,5.578c-.184,1.511.4,2,1.762,1.618,2.852-.806,5.01-.225,6.324,2.685.512,1.133,1.462,1.183,2.538.429A14.131,14.131,0,0,0,69.973,55.7c1.591-4.16.764-5.508-3.645-6.345-.971-.184-1.157.007-.935.893.154.613.138,1.222-.705,1.227A3.793,3.793,0,0,1,62.1,50.73c-.625-.54-.885-1.729.025-1.706,2.326.058,1.435-1.514,1.638-2.43-.009-2.913-.243-3.254-3.065-3M150.46,62.274c3-.882,3.443-1.588,3.18-4.7a14.857,14.857,0,0,0-.4-2.373,1.734,1.734,0,0,0-2.4-1.434A83.355,83.355,0,0,1,134.8,55.723c-1.759.041-4.041-.748-5.139.376-1.118,1.144-1.125,3.376-1.425,5.192C127.623,65.015,127.563,65,132,65a73.464,73.464,0,0,0,18.456-2.731M46.332,47.6a12.37,12.37,0,0,0,1.078,1.085c1.708,1.353,2.569,1.167,3.482-.8a3.23,3.23,0,0,1,1.679-1.779c1.675-.77,2.069-2.055,1.549-3.834A12.535,12.535,0,0,0,51.813,38.1c-.358-.46-1-.818-.723-1.682,1.5.664,2.173,1.985,2.946,3.234s.784,2.825,1.8,4.029c1.852-3.815-4-10.115-9.194-9.958a9.55,9.55,0,0,1,2.467,1.912c.219.284.707.768.025.9-2.049.4-.558,1.215-.218,1.779.773,1.28,2.077,2.25,2.386,4.053-1.473-.722-2-2.124-3.1-2.925-.551-.4-1.13-1.029-1.827-.638-.654.366-.268,1.153-.233,1.74.043.7.518,1.434-.29,2.052a2.361,2.361,0,0,1-.822-1.8c-.144-.848-.381-1.7-1.379-2-.436-.13-1.152-.179-1.251-.447-.707-1.9-1.728-.722-2.645-.327-.538.232-1.033.562-1.843,1.013.835-1.732,2.367-2.149,3.675-3.293-2.449-.16-4.262.418-5.627,2.067-1.188,1.435-2.2,2.953-.931,4.892a3.271,3.271,0,0,1,.331.966,56.413,56.413,0,0,1,1.44,12.41c1.069-1.738,1.909-3.177,1.673-5.126,1.27.751,6.129-1.438,7.855-3.357m70.24-41.727c2.986.548,5.983,1.07,9,1.424a138.346,138.346,0,0,0,22.763.686c1.555-.074,3.237,0,4.66-1.18-7.015-3.92-33.377-5.367-39.138-2.144a5.274,5.274,0,0,0,2.718,1.214M65.462,105.17c.078-1.26.26-2.6-1.645-2.773-1.823-.163-3.633-.464-5.452-.676-5.686-.663-11.392-1.181-17.016-2.3-2.464-.492-4.932-.964-7.39-1.485-1.194-.253-1.566.042-1.454,1.352.149,1.754,1.413,2.041,2.65,2.458,9.229,3.111,18.8,3.852,28.733,3.995.218-.42,1.48.963,1.574-.567m77.9-82.3c1.324-.051,2.86-1.545,2.575-2.665-.3-1.194-1.493-.671-2.328-.785a7.1,7.1,0,0,0-.863-.009c-9.231-.119-18.518.679-27.614-1.684-.834-.216-1.22.123-1.291,1.07-.123,1.647.979,1.99,2.164,2.381,5.7,1.878,11.6,2.069,18.181,2.053,2.632.2,5.9-.234,9.175-.36m-79,92.859c1-.225,1.147-.938,1.118-1.833s-.54-1.2-1.309-1.278c-.629-.065-1.258-.127-1.889-.169-4.925-.33-9.825-.839-14.7-1.625-3.553-.572-7.035-1.7-10.7-1.519-.681.033-1.59-.084-1.741.722a1.742,1.742,0,0,0,1.268,1.833c.262.111.532.2.8.294a92.881,92.881,0,0,0,22.549,4.133,15.827,15.827,0,0,0,4.6-.558M40.712,59.615a4.939,4.939,0,0,1,5.19-1.884c.859.174,1.608.569,2.414.765,1.577.383,1.785,1.24,1.12,2.482a5.716,5.716,0,0,0-.469,3.821,8.792,8.792,0,0,0,3.2-4.647c1.3-4.187,0-7.867-3.376-9.214-5.01-2-9.289,1.9-10.321,5.81a2.153,2.153,0,0,0,.028,1.351c.468,1,.275,2.033.388,3.481.771-.821,1.338-1.364,1.833-1.965M80.5,91.243c1.061-.309,2.812-.382,2.507-1.977-.248-1.3-1.821-1-2.914-1.021-7.456-.125-14.933.3-22.342-1.007a6.731,6.731,0,0,0-3.241-.1,1.829,1.829,0,0,0-1.5,1.65c-.066.935.82.841,1.355,1a70.956,70.956,0,0,0,17.273,2.53c2.968-.252,5.977-.233,8.86-1.073m-4.953,9.737a27.589,27.589,0,0,0,6.456-.9c.666-.213,1.173-.494,1.1-1.294-.071-.778-.67-.831-1.254-.88-1.261-.106-2.523-.281-3.785-.287-7.486-.038-14.968-.13-22.436-.715a16.792,16.792,0,0,0-2.931.057c-.544.053-1.169.211-1.21.976s.466.907,1.08,1.056a72.715,72.715,0,0,0,16.682,2.453c1.614.2,3.953-.295,6.3-.468m-3.3,10.41a13.5,13.5,0,0,0,7.975-3.238c.349-.324,1-.593.725-1.217s-.888-.32-1.379-.262c-1.65.194-3.3.435-4.95.58-7.072.623-14.147-.208-21.221.014-.684.021-1.716-.271-1.837.649-.1.786.67,1.407,1.443,1.75a8.165,8.165,0,0,0,1.141.357A60.553,60.553,0,0,0,67.7,111.668c1.451-.083,3.01-.1,4.549-.278m39.938-40.447a5.865,5.865,0,0,1,2.225-1.256c1.78-.525,2.057-1.364,1-2.867a5.873,5.873,0,0,0-9.368-.238c-2.752,3.235-4.4,7.2-7.212,10.6a26.006,26.006,0,0,0,13.357-6.234M97.249,88.929c5.548-1.619,11.038-3.388,15.676-7.053.922-.729,1.832-1.7,1.216-2.721-.56-.93-1.662-.026-2.454.306-4.839,2.03-9.506,4.487-14.61,5.85-2.425.647-4.915,1.031-7.3,1.842a2.619,2.619,0,0,0-1.919,2.161c-.233,1.138.082,1.52,1.2,1.363a44.383,44.383,0,0,0,8.19-1.748m-18.2,6.921c2.067,0,4.141.112,6.2-.023,4.279-.282,8.562-.62,12.464-2.706.9-.482,1.925-1.014,1.585-2.135-.369-1.219-1.489-.626-2.345-.475-4.214.743-8.339,1.926-12.638,2.272-4.059.327-8.154.207-12.181.955-.893.166-1.861.334-1.736,1.441.114,1.011,1.146.989,1.927,1,2.241.038,4.483.013,6.724.013q0-.173,0-.346m17.1,7.591c1.114-.3,1.986-.727,1.808-2.05-.2-1.5-1.341-.875-2.148-.819-4.231.3-8.371,1.291-12.62,1.562-3.682.235-7.357.219-11.035.3-.395.008-.906-.274-1.158.382-.717,1.873.121,3.11,2.112,3.043,7.717-.454,15.484-.413,23.04-2.415M46.438,107.85a1.557,1.557,0,0,0-1.008-1.941,15.763,15.763,0,0,0-2.283-.711q-6.787-1.418-13.585-2.778c-2.481-.5-4.725-1.66-7.093-2.474-1.143-.393-1.363.139-1.2,1.063a3.062,3.062,0,0,0,1.027,1.744,11.19,11.19,0,0,0,3.735,2.054c6.053,2.24,12.387,3.119,18.984,3.813.426-.036,1.237.21,1.424-.772M20.463,92.664C28.25,95.7,36.442,97.021,44.7,98.407c-1.863-2.888-3.69-4.214-6.569-4.622-6.87-.972-13.636-2.3-20.242-5.833.658,2.08.638,3.957,2.57,4.712M95.1,99.311A30.884,30.884,0,0,0,108.753,95.2a7.7,7.7,0,0,0,2.384-1.938c.318-.435.57-1.019.3-1.425-.236-.358-.856-.166-1.3-.045-1.921.529-3.828,1.116-5.759,1.6-4.253,1.072-8.519,2.1-12.779,3.143-.385.095-.764.221-1.145.332-1.137.329-2.159.932-1.83,2.247.289,1.16,1.467.275,2.144.6,1.479-.138,2.906-.283,4.334-.4m27.429-21.787c-.338-.147-.479.191-.661.4a28.707,28.707,0,0,1-8.843,6.437c-2.69,1.373-5.458,2.592-8.176,3.911a1.813,1.813,0,0,0-1,2.449c.4.958,1.361.33,1.989.226,5.645-.944,10.366-3.779,14.71-7.353,1.581-1.3,2-3.127,2.332-4.9-.07-.481.125-.961-.355-1.169m1.891-23.444a2.879,2.879,0,0,0,.126,1.844,2.48,2.48,0,0,0,2,1.425c.594.026.654-.964.816-1.548A25.776,25.776,0,0,0,128.4,44.933c-.358-2.353-1.2-4.545-3.64-5.373-2.407-.816-3.988.79-5.427,2.439a4.726,4.726,0,0,0-.439.531c-.353.55-1.229,1.064-.75,1.744.582.826,1.324-.032,1.982-.208a3.85,3.85,0,0,0,.911-.461c.408-.241.605-.511.146-.924-1.093-.983-.145-1.074.561-1.189A2.134,2.134,0,0,1,124.2,42.63a8.948,8.948,0,0,1,1.081,4.628,51.414,51.414,0,0,1-.852,6.822M26.057,115.5a92.466,92.466,0,0,0,26.85,7.238c8.052.994,16.2.524,24.314.419a2.515,2.515,0,0,0,2.353-.956,45.66,45.66,0,0,0-6.82-.424,176.613,176.613,0,0,1-32.07-2.464,70.239,70.239,0,0,1-14.26-4.119c-.373-.2-.4.017-.367.307m7.33-38.884c.929.472,2.069.866,2.909.046,1.2-1.172,2.613-2.073,3.807-3.224,1.337-1.289,1.067-2.988.605-4.522A2.78,2.78,0,0,0,37.95,67.19c-2.79-.1-6.029,3.337-6.056,6.4a2.764,2.764,0,0,0,1.492,3.025m21.688,42.45c5.667,1.556,11.47,1.607,17.274,1.463,2.054-.051,4.17.157,6.151-.6.61-.234,1.484-.574,1.383-1.337-.1-.739-.982-.577-1.586-.635-6.725-.645-13.466-.177-20.2-.327a24.781,24.781,0,0,0-4.585.476,2.07,2.07,0,0,0,1.562.961M72.682,68.008a2.8,2.8,0,0,0-2.027-3.978,7.778,7.778,0,0,0-7.571,2.892,2.9,2.9,0,0,0,2.244,4.72c.458.036.921,0,1.382,0,3.137.026,5.016-1.129,5.972-3.639M60.625,63.156a2.855,2.855,0,0,0-3.47-3.284,8.11,8.11,0,0,0-5.534,3.993c-1.158,2.017-.752,2.795,1.41,4.082a3.029,3.029,0,0,0,1.614.318c3.352-.132,5.634-2.155,5.98-5.109M82.368,38.9a1.169,1.169,0,0,0-.044,1.707c.464.557.927.165,1.368-.095a4.7,4.7,0,0,0,2.038-2.283,4.177,4.177,0,0,1,1.717-2.08c1.339-.84.845-1.488-.092-2.2a2.414,2.414,0,0,0-1.813-.349,1.169,1.169,0,0,1-1.221-.765c-.258-.517.115-.928.434-1.192.837-.692,1.77-1.268,2.618-1.95.347-.279,1.165-.588.627-1.147-.822-.853-.413-1.569-.042-2.339.262-.544.542-.974-.256-1.384-.412-.212-.294-.8-.22-1.272.119-.764.166-1.539.291-2.776-1.3,1.123-3.065,2.037-2.645,2.955.7,1.534-.4,2.088-.755,3.04-.242.645-1,1.081-.88,1.93.85-.18,1.455-.851,2.335-.69-.033.706-.577,1.022-.983,1.379a8.662,8.662,0,0,0-2.819,5.351c-.432,2.644-.464,2.639,2.056,2.773a21.691,21.691,0,0,0-1.713,1.38m23.68-3.472c2.266-.842,2.491-1.61,2.071-4.472-.267-1.824-1.336-2.584-3.635-2.484a6.836,6.836,0,0,0-4.809,2.391c-.965,1.069-.994,2.164.107,2.975,1.517,1.117.988,1.87-.178,2.706a10.328,10.328,0,0,0-.936.972,50.017,50.017,0,0,0,7.38-2.089M57.421,79.639c1.76.594,2.952-.036,3.575-1.8.9-2.543-.3-4.44-1.892-6.181C58,70.452,56.678,69.783,54.97,70.5a2.824,2.824,0,0,0-1.684,3.064c.01,3.429,1.258,5.108,4.134,6.077M50.283,68.225c-.967-2.641-3.422-3.343-5.531-1.545-2.613,2.228-1.626,6.857,1.862,8.737a2.586,2.586,0,0,0,3.54-.988,6.7,6.7,0,0,0,.637-2.744c-.261-1.074-.083-2.3-.508-3.459M48.5,117.643a1.149,1.149,0,0,0-.847-1.326,8.077,8.077,0,0,0-1.472-.422,68.967,68.967,0,0,0-8.15-1.191c-4.13-.394-7.956-1.963-11.886-3.128-.377-.112-.845-.4-1.094-.012-.277.434.062.878.408,1.2a3.845,3.845,0,0,0,.824.612c6.516,3.376,13.556,4.688,21.195,5.205a1.2,1.2,0,0,0,1.023-.937M79.26,25.185a6.009,6.009,0,0,1-.441-4.121c.093-.436.236-.95-.257-1.248-.451-.273-.744.163-1.047.378-.65.462-1.239,1.212-1.824-.107-.236-.531-.721-.386-1.171-.1a2.706,2.706,0,0,0-1.091,3.528c.163.4.609.85.114,1.233a1.173,1.173,0,0,1-1.576-.09,22.645,22.645,0,0,1-1.655-1.739c-.355-.408-.737-.567-1.194-.247s-.85.821-.5,1.314c1.085,1.523,1,4.075,3.8,4.155.756.021,1.478.812,2.239,1.2.645.332,1.212.878,1.9.838,1.182-2.353.614-4.386-.936-6.3a3.537,3.537,0,0,1-.455-1.452c-.043-.2,0-.495.3-.522a.593.593,0,0,1,.434.182c1.329,1.506,2.59,3.014,2.346,5.262-.229,2.111-.162,2.119,1.9,1.729.154-.029.3-.1.906-.306-2.076-.819-1.257-2.5-1.789-3.6M51.281,94.292a5.82,5.82,0,0,0-4.9-5.351c-1.13-.082-3.708,2.7-3.759,4.054C42.545,95,45.2,97.544,47.414,97.579c2.538.04,3.857-1.08,3.867-3.287M71.618,80.625c.607-.026.88-.322.895-.987.06-2.741-2.95-6.06-5.724-6.317a7.456,7.456,0,0,1-4.2-1.284c-.32-.256-.667-.532-1.086-.355-.309.13-.22.489-.193.763.058.579.407,1.117.951,1.017,1.406-.257,1.225.48.968,1.33a2.8,2.8,0,0,0,.329,1.988c1.174,2.669,3.047,4.276,5.965,3.851.831,0,1.464.021,2.095-.006m-45.3,8.5c-.582-.546-1.344-.949-1.611-1.567-.844-1.958-2.576-2.424-4.339-2.955a33.9,33.9,0,0,1-10.4-5.078c-.915-.673-1.811-1.373-2.946-2.237.585,5.115,12.661,12.342,19.3,11.837m60.75,23.98c2.429.466,3.851-1.355,2.952-3.6-.3-.74-.633-1.465-.9-2.214-.491-1.358-1.379-1.62-2.718-1.237a14.536,14.536,0,0,0-7.139,4.916,48.573,48.573,0,0,0,7.809,2.13m-59.781-6.421a61.407,61.407,0,0,1-9.317-3.783c-1.2-.582-2.416-1.127-3.759-1.75a6.031,6.031,0,0,0,3.4,4.869A56.179,56.179,0,0,0,30.1,110.978c.246-3.324.229-3.4-2.81-4.3M41.414,74.751A4.737,4.737,0,0,0,37.1,79.273,4.2,4.2,0,0,0,41.012,83.3a4.395,4.395,0,0,0,3.8-4.19c.007-2.463-1.5-4.393-3.4-4.364m-9.332,6.44c-.434-.023-.708-.514-.984-.9-.862-1.2-1.876-1.129-2.94-.254a9.5,9.5,0,0,0-2.692,4.131c-.376.983-.779,2.081.308,3a3.267,3.267,0,0,0,3.618.8c2.252-.891,3.515-2.657,3.618-5.772.011-.246.159-.95-.927-1.009m-4.769,16.8c-.526-1.333-1.81-1.706-2.979-2.121a77.121,77.121,0,0,1-7.919-3.243c-1.543-.749-3.047-1.581-4.557-2.4-.99-.535-1.237-.161-1.1.816a3.579,3.579,0,0,0,1.9,2.524,49.071,49.071,0,0,0,6.792,3.648A22.8,22.8,0,0,0,26.1,99.407c1.252.07,1.617-.394,1.213-1.419M48.42,88c2.127.948,3.818.064,4.153-2.209A5.543,5.543,0,0,0,50.9,80.946c-1.058-1.095-2.163-1.873-3.775-1.1-1.481.706-1.758,1.976-1.739,3.427A4.8,4.8,0,0,0,48.42,88m72.346-40a2.35,2.35,0,0,0,.368-1.653c-.158-.714-.773-1.362-1.286-.8-.853.926-2.5.873-2.812,2.408a1.334,1.334,0,0,1-1.092,1.013c-1.877.12-1.712,1.409-1.774,2.7-.053,1.1.118,2.359-1.108,3.034-1.359.749-1.56,1.986-1.578,3.261,4.67-.269,3.087-4.193,3.883-6.816,2.061,1.941,2.356-1.377,3.976-1.164-.98,2.317-3.613,3.8-2.986,6.729,1.271-.35.585-2.718,2.782-2.256.848.179,1.065-2.225,2.763-2.5-2.034-1.01-2.05-2.335-1.135-3.948M35.741,86.067a6.246,6.246,0,0,0,5.179,4.581,4.041,4.041,0,0,0,3.447-2.87,2.734,2.734,0,0,0-2.345-3.2c-1.492-.353-3.015-.575-4.593-.867-1.222-.068-1.912.855-1.688,2.354m25.63,9.774c.861,0,1.726.053,2.582-.015A1.292,1.292,0,0,0,65.2,94.463a1.123,1.123,0,0,0-1.027-1.313A44.727,44.727,0,0,0,53.5,91.664c-.439,0-1.048-.245-1.2.582a2.672,2.672,0,0,0,2.368,3.22c2.228.175,4.463.274,6.694.406v-.031M145.218,9.354a149.718,149.718,0,0,1-22.524-1.376,34.989,34.989,0,0,1-8.654-2.021c-.615-.249-1.216-.545-1.26-1.257-.048-.78.645-1.01,1.229-1.246a14.7,14.7,0,0,1,1.762-.628c4.105-1.073,8.31-.968,12.5-.986,4.048-.017,8.092.379,12.153.117a12.151,12.151,0,0,0-2.32-.507,91.294,91.294,0,0,0-17.748.017c-2.71.309-5.506.4-8.013,1.68-1.59.811-1.621,1.807-.107,2.769a11.849,11.849,0,0,0,3.838,1.417,116.83,116.83,0,0,0,30.3,2.34c-.206-.765-.732-.363-1.16-.319M95.375,38.912c-1.592,1.6-3.868,1.351-5.514,3.039,2.816-.067,4.854-1.28,6.986-2.179.546-.23.6-.671.188-1.106-.93-.993-.243-1.635.466-2.294.528-.49,1.187-.887,1.36-1.7a4.651,4.651,0,0,1-3.5,1.073,24.636,24.636,0,0,1-2.751-.149c-1.918-.416-2.714,1.99-4.551,1.731a2.1,2.1,0,0,0-.309.929,7.488,7.488,0,0,1-1.421,4.659,1.125,1.125,0,0,0,.053,1.407c2.335-.949,2.929-3.132,3.943-5.028.486-.91.054-3.122,2.408-1.949.52.259,1.192-.853,2.128-.333-.666,1.265-2.172,1.412-3.115,2.417,1.374.739,2.207-1.074,3.627-.515M45.558,59.145a4.942,4.942,0,0,0-5.221,2.745,3.029,3.029,0,0,0,.873,3.427c.815.872,1.766.609,2.671.148A28.908,28.908,0,0,0,46.705,63.9a2.147,2.147,0,0,0,1.131-2c-.155-1.412-.678-2.482-2.278-2.753m70.175-.27c.571-.049,1.323-.094,1.371.638.039.589-.638.693-1.171.693a12.772,12.772,0,0,0-5.211,1.572c6.323,2.7,9.3,2.413,12.595-1.47-3.844-1.656-7.673-3.077-12.161-.455,1.95.123,3.168-.856,4.577-.978M72.381,112.791c-1.113.021-1.837.448-1.874,1.714-.038,1.3.7,1.7,1.8,1.721a33.536,33.536,0,0,0,6.136-.55,6.36,6.36,0,0,0,2.867-1c.308-.227.785-.461.71-.891-.09-.513-.659-.562-1.075-.627a24.481,24.481,0,0,0-5.347-.374c-1.158,0-2.19-.016-3.222,0m-6.541-66.8c.663.222,1.028-.359,1.532-.528.711-.238,1.569-1.508,2.126-.4.594,1.179-.986.842-1.535,1.255-.6.451-1.484.87-1.312,1.607.162.694,1.124.545,1.805.583,3.15.175,5.589-1.3,7.909-3.356-4.762-2.165-8.827-2.5-10.525.844M31.281,77.977c.646-.211.959-.609.612-1.1-1.125-1.6-1.028-3.46-1.3-5.239-.188-1.231-.757-1.293-1.616-.648a6.817,6.817,0,0,0-2.562,3.744c-.576,2.175.548,3.5,2.843,3.508a7.131,7.131,0,0,0,2.022-.263m74.125,20.167c-1.725.459-1.952,1.709-1.944,3.177,0,.593.227.882.825.707a42.233,42.233,0,0,0,5.412-1.569,4.187,4.187,0,0,0,2.445-3.725,43.379,43.379,0,0,0-6.738,1.41M59.218,85.421c-.474.282-.447.65.131.82a6.2,6.2,0,0,0,1.322.291c4.1.27,7.218-2.075,10.492-4.084-4.435-.814-8.268.785-11.945,2.973M32.285,68.475c.751.426,1.229-.385,1.77-.736a8.1,8.1,0,0,1,3.271-1.4c.721-.1,1.735-.053,1.629-1.288a2.473,2.473,0,0,0-1.767-2.472c-2.327-.651-5.267,1.567-5.329,4.068.11.567-.284,1.421.426,1.823m49.322,17.9c4.393.477,10.512-2.947,11.573-5.95-4.66.623-8.16,3-11.573,5.95M101.578,78c-4.439,1.325-7.8,3.921-11.3,7.121,3.906.083,9.817-3.7,11.3-7.121m5,27.875a2.931,2.931,0,0,0,1.136-.329,1.694,1.694,0,0,0,.987-2.138c-.332-1.022-1.094-.482-1.729-.353-.224.045-.463.018-.686.065-2.987.629-6.071.841-8.939,2.115a27.313,27.313,0,0,0,9.231.641M54.988,24.938A2.145,2.145,0,0,0,52.964,27.9c.5,1.707,2.317,2.4,5.11,1.93-1.523-2.691-1.523-2.691,1.247-3.279-1.516-.935-2.748-1.753-4.334-1.61m59.175,47.21c.094-.273.132-.644-.141-.775-.438-.21-.764.186-1.033.437A27.392,27.392,0,0,0,107,80.219c4.1-1.215,5.9-4.408,7.158-8.071M20.309,83.015a5.046,5.046,0,0,0,2.951.733,1.519,1.519,0,0,0,1.247-.813c.252-.617-.377-.9-.786-1.145a44.754,44.754,0,0,0-8.1-3.548c.81,2.741,2.734,3.791,4.684,4.773m20.583,9.224c.091-.757-.734-.517-1.178-.642a8.551,8.551,0,0,1-2.9-1.437,22.546,22.546,0,0,0-2.988-2,1.688,1.688,0,0,0-2.457.819c-.583.981.351,1.425,1.043,1.8,2.195,1.186,4.647,1.483,7.068,2.011.476-.187,1.314.271,1.412-.545M55.925,82.083A2.6,2.6,0,0,0,54.2,83.642a1.238,1.238,0,0,0,1.267,1.807,19.417,19.417,0,0,0,7.395-3.6,11.683,11.683,0,0,0-6.934.23m18.1,4.345c4.341.522,6.376-.287,11.161-4.383-4.537-.353-7.651,2.2-11.161,4.383m45.408-16.616c.19-.621.766-1.371-.033-1.839a1.529,1.529,0,0,0-2.055.737,27.244,27.244,0,0,0-3.358,7.686,10.626,10.626,0,0,0,5.446-6.585m5.378-4.593a1.394,1.394,0,0,0-.521-1.935c-.951-.583-1.453.074-1.83.67a13.043,13.043,0,0,0-1.988,7.6,14.533,14.533,0,0,0,4.34-6.339m-111.4,7.828c-.355.107-.853.309-.947.583-.146.427.376.633.7.849a5.461,5.461,0,0,0,3.018,1.033,39.141,39.141,0,0,0,6.474-.535c-3-1.87-5.915-2.929-9.246-1.93M67.228,86.353c2.716,1.083,7.475-.865,10.81-4.327-4.372-.042-7.365,2.356-10.81,4.327M24.034,78.941c.664-.053,1.524-.009,1.625-.842a1.589,1.589,0,0,0-1.167-1.712,10.71,10.71,0,0,0-7.314.8,10.111,10.111,0,0,0,6.857,1.75m75.935,3.83c2.417-.235,7.494-4.412,8.135-6.681.058-.206.236-.425-.063-.591a.855.855,0,0,0-.977.048,64.1,64.1,0,0,0-7.594,7.036c.3.117.4.2.5.189m-92.6-22c-1.248-2.577-2.682-3-4-1.229a5.773,5.773,0,0,0,.153,6.333,10.434,10.434,0,0,1,.407-1.693c.335-.8,1.227-1.44.048-2.374-.433-.343.2-.659.619-.513a13.257,13.257,0,0,1,1.7.8c1.158.6,2.117,1.6,3.662,1.917-1.491-1.92-3.882-2.36-5.41-4.388,1.346-.051,1.775,1.209,2.814,1.15M5.68,73.638A18.287,18.287,0,0,0,9.588,77.5c.5.372,1.04,1.2,1.671.727s.1-1.314-.152-1.91A5.3,5.3,0,0,0,10,74.809a24.2,24.2,0,0,0-4.992-3.6,2.8,2.8,0,0,0,.672,2.431M125.156,69.5c-3.043,1.406-5.912,5.622-5.694,8.484a13.168,13.168,0,0,0,5.694-8.484M5.028,46.437c.178-1.007-1-1.018-1.539-1.507-.371-.336-.6-.09-.822.2a4.2,4.2,0,0,0,.564,5.546c.557.473,1.175.874,2.025,1.5a21.059,21.059,0,0,1-.229-5.736M16,100.574c.38.184.874.539,1.257.2.351-.307.207-.857.171-1.312a3.285,3.285,0,0,0-1.3-2.135,12.833,12.833,0,0,0-3.783-2.283c.432,2.524,1.415,4.443,3.65,5.526M15.493,71.45a6.967,6.967,0,0,0-7.934-1.13c2.106,2.075,2.567,2.14,7.934,1.13M12.526,89.014c1.245.57,1.39-.015,1.407-.99a2.4,2.4,0,0,0-1.046-2.055,9.337,9.337,0,0,0-3.34-1.639c-.372,2.522.295,3.455,2.979,4.685M76.369,48.476c-2.844-1.634-.916,1.444-1.879,1.65-.446.028-.648-.348-.9-.65-.213-.254-.362-.677-.782-.533a.876.876,0,0,0-.507.835,3.2,3.2,0,0,0,.38,2.309c.189.258.725.631.766.242.169-1.6,1.892-1.435,2.709-2.45,1.247-1.549,1.329-3.1,1.977-4.955-1.593.929-1.519,2.333-1.762,3.551m5.45-16.737c.144-.574.715-1.292.25-1.674-.331-.272-1.168.053-1.775.145-.218.033-.415.205-.633.242-1.438.242-1.646.994-.888,2.13.629.942,1.287,1.865,2.121,3.067.349-1.484.621-2.7.924-3.909M7.4,65.308a1.7,1.7,0,0,0-2.149.421,1.742,1.742,0,0,0,0,2.217,1.674,1.674,0,0,0,2.036.863c1.058-.362,2.082-.823,3.346-1.331a13.191,13.191,0,0,0-3.23-2.17M8.569,43.677A1.451,1.451,0,0,0,9,41.978c-.3-.642-.936-.532-1.508-.472A6.686,6.686,0,0,0,4.375,42.75c-.535.369-.6.769-.08,1.242a2.265,2.265,0,0,0,1.851.7,2.944,2.944,0,0,0,2.423-1.015M126.148,63.545c.394-3.181-.352-5.284-2-6.158-1.158-.613-2.159-.419-3.473.9,3.895-.139,4.5,2.734,5.475,5.258m-7.789,12.887c.076-.443.1-1.008-.39-1.222-.415-.183-.7.283-.985.528-1.766,1.524-1.463,3.53-1.136,5.57a8.729,8.729,0,0,0,2.51-4.876M68.342,102.448a1.682,1.682,0,0,0-1.9,1.885c-.011,1.273.506,1.907,1.78,1.963,1.386.061,1.312-.94,1.4-1.787-.042-.98,0-2.039-1.28-2.061M21.83,43.52a7.528,7.528,0,0,0,5.764,5.413A13.08,13.08,0,0,0,21.83,43.52M11.19,55.546a40.751,40.751,0,0,0-4.511-4.819c-.127,3.83,1.292,5.263,4.511,4.819M153.052,9.033c1.538-.183,2.342-1.225,1.866-2.242-.547-1.166-3.04-2.516-4.694-2.409.91.48,1.678.84,2.4,1.28.569.348,1.343.706,1.2,1.5a1.676,1.676,0,0,1-1.473,1.277c-.447.077-.9.144-1.336.261-1.9.507-3.9.07-5.79.655.394.08.841-.035,1.16.319,2.225-.208,4.456-.375,6.674-.639M49.094,77.38c-.742.46-.781.825.022,1.112A22.235,22.235,0,0,0,54.2,79.914c-1.093-2.806-3.125-3.761-5.1-2.534m65.632,13.272c.185-.573.518-1.344-.133-1.638-.6-.273-1.109.421-1.5.9a2.251,2.251,0,0,0-.441.906c-.3,1.3-.555,2.611-.856,4.059a8.784,8.784,0,0,0,2.935-4.224M1.851,50.689c-.133,3.234,1.67,4.5,3.735,5.575-.363-2.309-1.951-3.711-3.735-5.575M20.625,53.7c-.15-2.384-.036-4.725-1.245-6.968-1.139,2.655-.6,5.7,1.245,6.968m27.723,52.179c-.514-.031-.892.034-.863.71.051,1.161,1.5,3.152,2.337,3.081.79-.067.7-.748.767-1.18a2.375,2.375,0,0,0-2.241-2.61m-36.1-30.22c.2,3,.967,4.512,2.637,5.248.048-3.515-.5-4.6-2.637-5.248m4.9-24.565c.069-2.154-.217-4.169-2.157-5.891-.241,2.584.336,4.49,2.157,5.891M84.73,100.678c.917-.21,2.2-.078,2.462-1.291.14-.651.093-1.751-1.024-1.785-1.31-.04-1.829.907-2.072,1.968.072.528-.249,1.311.634,1.108m.276-9.329c1.429-.059,1.454-1.273,1.525-2.287.047-.669-.073-1.69-.852-1.632-1.419.106-1.279,1.513-1.571,2.426.076.717.026,1.529.9,1.493M18.722,56.582a.7.7,0,0,0-.938-.08c-.3.288-.133.671.092.919A16.1,16.1,0,0,0,23.1,61.515a15.366,15.366,0,0,0-4.377-4.932m14.148,51.835c-.418-.5-.806-.644-1.023.219a4.08,4.08,0,0,0,.369,3.159,1.314,1.314,0,0,0,1.492.619c.544-.134.3-.648.35-1.047a5.27,5.27,0,0,0-1.188-2.949m-.9-80.3c-.2-.427-.406-.9-.985-.661a.781.781,0,0,0-.388,1.023c.31,1.151.616,2.3.948,3.447.126.433.31,1.056.8.96.643-.125.413-.812.414-.836a10.337,10.337,0,0,0-.79-3.933m-2.893,4.829c-.073,2.389,1.294,3.869,2.966,5.409a5.59,5.59,0,0,0-2.966-5.409m-.889,3.69a8.589,8.589,0,0,0-.3,6.717,7.759,7.759,0,0,0,.3-6.717m.093,21.344c-.235-.167-.535-.331-.78-.148a.619.619,0,0,0,.006.916,9.329,9.329,0,0,0,4.78,3.32,11.021,11.021,0,0,0-4.005-4.088m55.4-31.788c.242-.5,1.27-1.033.444-1.658-.782-.592-1.553.016-2.061.652a6.876,6.876,0,0,0-.947,1.789c-.239.612.208.8.717.859a2.513,2.513,0,0,0,1.848-1.642m-59.317,23.1c.729,2.022,2.5,2.818,4.347,3.946-.346-2.97-2.455-3.32-4.347-3.946M21.021,35.339c.819,2.727,1.993,4.583,4.223,5.656-1.115-1.908-1.772-4.154-4.223-5.656m78.96,67.516a1.988,1.988,0,0,0,2.11-1.832c.069-.638-.156-1.348-.94-1.373-1.381-.044-1.491,1.137-1.816,2,.071.556-.186,1.252.646,1.208M26.449,44.911a11.963,11.963,0,0,0-5.218-4.646,10.933,10.933,0,0,0,5.218,4.646M23.27,65.268c.573,2.02,2.1,2.954,4.695,2.822a6.921,6.921,0,0,0-4.695-2.822m92.82,24.991c2.836-1.725,4.582-3.522,4.585-4.721-2.978,1.483-4.532,3.084-4.585,4.721M33.733,35.925c-.082.495-.408,1.312.332,1.453.542.1.928-.607,1.113-1.146.529-1.543.207-3.118.162-4.925a10.369,10.369,0,0,0-1.607,4.618M15.1,57.819c-.171-.244-.368-.674-.761-.5-.55.248-.217.716-.082,1.038a12.637,12.637,0,0,0,3.38,4.824A14.293,14.293,0,0,0,15.1,57.819M30.859,98.1a.954.954,0,0,0-.945-1.024c-.644-.019-.785.514-.843,1.076-.175,1.694.632,2.693,2.451,3.321a12.289,12.289,0,0,1-.663-3.373M27.026,64.493a28.331,28.331,0,0,0-1.953-7.512,9.371,9.371,0,0,0,1.953,7.512M68.673,112.8a1.594,1.594,0,0,0-1.606,1.646c-.047.883.3,1.462,1.236,1.446,1.045-.018,1.27-.779,1.323-1.709-.124-.556.117-1.464-.953-1.383M14.224,61.558c-1.171-1.834-2.495-3.5-4.762-4.088a10.171,10.171,0,0,0,4.762,4.088m86.484,31.493a1.126,1.126,0,0,0,1.314-.845c.276-.792.359-1.649.558-2.471.068-.28.219-.56-.1-.738a.791.791,0,0,0-.8.111c-1.113.618-1.083,1.753-1.354,2.83.255.319-.27.948.379,1.113M16.286,90.826c.249.275.614.653,1.03.425.323-.176.194-.61.164-.948A3.559,3.559,0,0,0,15,87.055a5.172,5.172,0,0,0,1.289,3.771m9.1-18.446c-1.72-1.184-3.6-1.468-5.882-1.916,1.815,1.991,3.737,2.552,5.882,1.916m82.472,35.5a1.973,1.973,0,0,0,1.9,1.689c.725.029,1.073-.693,1.091-1.463.023-1.026-.767-.936-1.435-1.1-.517.319-1.631,0-1.556.869M14.547,67.088a6.437,6.437,0,0,0,5.771,1.642,8.469,8.469,0,0,0-5.771-1.642M69.171,95.5A1.65,1.65,0,0,0,67.7,93.7c-.845-.113-1.293.257-1.319,1.128-.027.915.39,1.386,1.318,1.379.6-.038,1.458.17,1.474-.7M30.346,41.174c-.834,2.283-1.152,4.2-.419,6.238.6-1.89,1.422-3.792.419-6.238M23.125,57.781a4.279,4.279,0,0,0-.882-5.487c.036,2.007-.371,3.839.882,5.487m11.846-2.32a6.837,6.837,0,0,0,.191,6.013,7.869,7.869,0,0,0-.191-6.013m-2.6,1.942c.883-1.79.818-3.577.4-5.794-1.307,2.1-1.4,4.329-.4,5.794M26.1,34.219c-.1-.264-.171-.631-.5-.564a.815.815,0,0,0-.506.568c-.165,1.491-.4,3.009.773,4.588.481-1.7.816-3.123.235-4.592m-7.1,20.807A17.048,17.048,0,0,0,14.2,51.371a5.123,5.123,0,0,0,4.789,3.655M23.047,68.1a22.023,22.023,0,0,0-3.431-6.274A10.434,10.434,0,0,0,23.047,68.1M83.035,45.54c.115.622-1,.864-.507,1.622a2.649,2.649,0,0,0,1.613-1.168c.449-.584.486-1.153-.3-1.259-1.184-.161-1.321-1.06-1.621-1.933-.862,2.324-.811,2.489.812,2.738M12.009,63.228a7.461,7.461,0,0,0,5.319,2.02,8.78,8.78,0,0,0-5.319-2.02M9.921,42.215a42,42,0,0,0,3.3,6.492c-.481-3.162-1.656-5.5-3.3-6.492M64.032,64.064c-2.024.207-3.072,1.254-4.191,4.317a37.256,37.256,0,0,0,4.191-4.317M51.58,119.751c.5.043.718-.3.6-.785-.221-.907-.188-2.087-1.412-2.229-.618-.072-.59.686-.581,1.334.094.754.3,1.585,1.393,1.679M25.29,53.145a13.657,13.657,0,0,0,3.763,3.676c-.562-2.2-2.053-3.6-3.763-3.676M19.485,98.729c-.215-.274-.478-.521-.877-.341-.254.115-.566.213-.4.605.468,1.093.523,2.425,1.813,3.265a3.965,3.965,0,0,0-.538-3.529M21.546,110.2a2.7,2.7,0,0,0,1.9,2.2c.481.159.537-.3.55-.636.049-1.293-.922-1.7-1.6-2.03-.752-.2-.926.044-.85.461M74.24,81.29c1.631-1.136,1.523-1.637-.863-4.142a13.083,13.083,0,0,0,.863,4.142m44.716-25.445c-.385-.037-.334.783-.212,1.217.166.592.6.416.957.205a6.645,6.645,0,0,0,2.918-2.786c-1.448.339-2.314,1.493-3.664,1.363M10.775,52.31c-1.614-1.419-.64-4.292-3.919-4.468a17.549,17.549,0,0,1,1.629,1.319c1.546,1.648-.5.5-.741,1.007.965.594,1.372,1.868,3.031,2.142M122.662,47.8c.081.277.2.743.658.649a.68.68,0,0,0,.551-.772,6.42,6.42,0,0,0-1.361-3.593,15.941,15.941,0,0,0,.152,3.716M31.12,47.585a8.991,8.991,0,0,0-.448,5.163c.835-1.579,1.377-3.182.448-5.163m88.637,75.566c.413.191,1.046.274,1.271-.111.292-.5-.3-.744-.666-.989a9.536,9.536,0,0,0-3-1.265,5.464,5.464,0,0,0,2.4,2.365M29.128,66.991a6.33,6.33,0,0,0-.571-5.184c-.036,1.6-.49,3.251.571,5.184m40.229-7.118c-.859.3-1.128,1.187-1.265,2.048-.09.569.352,1.036.728.932,1.043-.286.682-1.392,1-2.1-.062-.377.024-1.051-.466-.878M17.586,107.707a6.678,6.678,0,0,0,3.2,3.2,4.014,4.014,0,0,0-3.2-3.2m102.32,17a.642.642,0,0,0-.5.792c.132.449.489.409.838.3a4.689,4.689,0,0,0,2.716-1.417,4.282,4.282,0,0,0-3.059.327M63.217,78.856c-.4-.348-.8-.085-1.066.153-.312.275-.124.632.135.9a4.548,4.548,0,0,0,2.131,1.286,2.856,2.856,0,0,0-1.2-2.336m55.872-13.637c.011-.591-.263-.65-.748-.528-.738.185-1.816.054-1.952.946-.1.633.9.453,1.389.638.653-.1,1.295-.169,1.311-1.056m-2.842-20.134c-.809.125-1.116.92-1.312,1.64-.131.487.2.764.68.757.978-.013,1-.754,1.066-1.426-.077-.389.1-1.054-.434-.972M82.358,136.359c.165-.184-.012-.553-.2-.551a3.824,3.824,0,0,0-2.624,1.313,2.789,2.789,0,0,0-.308.621,3.715,3.715,0,0,0,3.127-1.383M2.563,57.37c.138.346.2,1.036.9.623a.8.8,0,0,0,.246-1.3,5.826,5.826,0,0,0-1.9-1.7c.277.89.47,1.652.759,2.376m9.7-7.888a13.8,13.8,0,0,0-2.469-3.817,3.963,3.963,0,0,0,2.469,3.817M27.8,90.124c.107.7.86.808,1.477.884.392.048.906.047.889-.505-.026-.849-.7-.9-1.463-.915-.26.151-1.012-.17-.9.537m47.717,35.468a.585.585,0,0,0-.683.733c.117.594.272,1.284,1.052,1.317.582.024.689-.463.7-1.074a1.126,1.126,0,0,0-1.065-.976m-30.357-91.3c-1.657,1.448-2.384-.987-3.741-.22,2.176,2,2.5,2.063,3.741.22m34.42,99.263c.1-.558-.7-.546-1.058-.518-.57.045-1.447-.075-1.55.7-.067.5.634.489,1.261.512.425-.053,1.226.012,1.347-.7m35.023-8.666a4.883,4.883,0,0,0-2.918,2.08c1.736-.309,2.243-.689,2.918-2.08m12.459.829c-2.287-.23-2.441-.2-4.283.884a11.606,11.606,0,0,0,4.283-.884M32.4,41.429a2.682,2.682,0,0,0-2.5-2.33,5.76,5.76,0,0,0,2.5,2.33m80.8,76.533c.294.377.755.724,1.158.395.556-.454-.083-.8-.348-1.073a15.246,15.246,0,0,0-1.51-1.2,3.09,3.09,0,0,0,.7,1.881M76.917,129.133c-1.516-.337-2.257.369-3.065,1.752a6.644,6.644,0,0,0,3.065-1.752m37.17-93.859-1.4,4.19c1.26-1.352,1.918-2.409,1.4-4.19m-2.667,75.012c-.542-.129-.7.258-.7.7-.009.535.034,1.1.744,1.116.468.009.682-.347.694-.806a.9.9,0,0,0-.733-1.013M54.113,126.01c1.324-.1,2.323.266,3.087-1.011-1.185-.293-1.978.144-3.087,1.011m24.184.051c.1.492.613.629,1.1.6.372-.023.94.1.9-.469-.044-.705-.7-.587-1.209-.627-.3.1-.936-.171-.8.5M34.24,84.214c-.7.3-.648,1.085-.832,1.7-.088.3.04.686.353.583.776-.256.592-1.105.876-1.661-.02-.311-.125-.739-.4-.624M36.8,61.394a.459.459,0,0,0,.422.088c.559-.581.221-1.28.21-1.937,0-.074-.1-.147-.231-.322a1.9,1.9,0,0,0-.4,2.171m56.391,44.478c-1.046.08-1.941-.272-3.129.526,1.336.258,2.225.388,3.129-.526m-38.7-25.2a.946.946,0,0,0-1.065.609.528.528,0,0,0,.569.642,1.239,1.239,0,0,0,1.037-.727.54.54,0,0,0-.541-.524m62.127,38.361a2.471,2.471,0,0,0,2.668-.1,3.025,3.025,0,0,0-2.668.1M52.867,24.022c.123.006.379-.208.364-.269-.188-.765-.793-1.007-1.612-1.169-.042,1.066.47,1.4,1.248,1.438m79.049,94.334A4.63,4.63,0,0,0,134,120.522c-.044-1.307-.875-1.569-2.087-2.166M52.759,69.691c-.094-.107-.246-.274-.423-.085-.549.589-.44,1.2.135,2.287.194-.986.93-1.476.288-2.2M138.3,92.384c.7-.462,1.93.016,2.311-1.461a3.853,3.853,0,0,0-2.311,1.461m-91.532-55.3c.063-.4-.286-.422-.566-.416-.4.01-.846,0-.828.587.01.318.166.531.714.479a.78.78,0,0,0,.68-.65m39.5,101.639c-.981-.973-1.839-.4-2.705-.114a5.407,5.407,0,0,0,2.705.114M13.5,66.023a3.2,3.2,0,0,0-2.287-1.133c.736.924,1.323,1.306,2.287,1.133M24.561,80.706c.87-.221,1.614-.134,2.14-1.251-.932.3-1.645.3-2.14,1.251m11.629,1.14c0-.045-.189-.162-.276-.149-.733.111-.729.717-.943,1.426.926-.186,1.173-.66,1.219-1.277m43.546,49.167a3.484,3.484,0,0,0,2.015-1.22c-1.223-.305-1.55.564-2.015,1.22m30.793-28.383-.608,2.854c1.163-1.052.812-1.963.608-2.854M24.016,114.267a4.1,4.1,0,0,0,2.041,1.231l.367-.307a5.385,5.385,0,0,0-2.408-.924M11.423,50.987c.24.7.725,1.042,1.716,1.6-.519-1.039-.6-1.854-1.716-1.6M67.1,128.4a3.85,3.85,0,0,0-3.247-.656c1.779,1.111,1.971,1.145,3.247.656m3.7.542a3.61,3.61,0,0,0-2.748,1.783,4.683,4.683,0,0,0,2.748-1.783m58.106-.76a6.683,6.683,0,0,0,3-1.117c-1.428-.407-2.2.391-3,1.117M53.124,131.4a5.747,5.747,0,0,0,3.384-2.565,5.7,5.7,0,0,0-3.384,2.565M66.979,30.049c-.387-.186-.9-.609-1.152-.049-.218.483.337.874.774.955A7.151,7.151,0,0,1,69.95,32.9c1.469,1.273,2.553,2.962,4.39,3.828a18.7,18.7,0,0,0-7.361-6.676m10.46,6.379a7.856,7.856,0,0,0,1.3,5.122,7.384,7.384,0,0,0-1.3-5.122m-7.506-6.488A6.171,6.171,0,0,0,65.3,28.409a9.665,9.665,0,0,0,4.636,1.532m4.686,2.612a.622.622,0,0,0-.189.393c.07,1.015.883,1.107,2.076,1.547-.681-1.063-1.036-1.757-1.887-1.94m-14.8,5.809c.227-.868-.25-1.359-.783-2.052-.589,1.18-.208,1.7.783,2.052m2.144,2.851c-.129-1.019-.878-1.465-1.647-1.891.182.981.964,1.388,1.678,1.862l-.031.029m-22.61,1.444c-1.285,1.469-1.933,5.882-1.093,7.444.72-1.225,1.353-5.542,1.093-7.444m.556-1.069a2.764,2.764,0,0,0,1.867-2.059c-1.517.452-1.617.565-1.867,2.059M71.926,26.315a4.4,4.4,0,0,0,4.449,2.162,7.185,7.185,0,0,0-4.449-2.162m46.3,33.288c-.2.01-.266.357-.134.572.544.884,1.384.826,2.554.641-.883-.719-1.522-1.258-2.421-1.213m-43.883-14.1c-.044-.724-.89-.554-1.412-.526-.424.022-1.236-.229-1.147.563.07.619.792.492,1.742.531.081,0,.849-.042.818-.568M7.184,67.037c.029.647.553.8,1.109.791.325,0,.856.05.781-.4-.1-.572-.721-.621-1.226-.725-.267.023-.679,0-.664.33" transform="translate(0 -0.001)" fill="#00296b"/>
      </g>
    </g>
  </g>
</svg>
