<?xml version="1.0" encoding="utf-8"?>
<!-- Generator: Adobe Illustrator 26.5.0, SVG Export Plug-In . SVG Version: 6.00 Build 0)  -->
<svg version="1.1" id="Layer_1" xmlns="http://www.w3.org/2000/svg" xmlns:xlink="http://www.w3.org/1999/xlink" x="0px" y="0px"
	 viewBox="0 0 200 200" style="enable-background:new 0 0 200 200;" xml:space="preserve">
<style type="text/css">
	.st0{clip-path:url(#SVGID_00000164484284712035983650000003898095711649351604_);}
	.st1{fill:#003173;}
	.st2{fill:#E64D17;}
</style>
<g id="Group_93509" transform="translate(14 17)">
	<g>
		<defs>
			<rect id="SVGID_1_" width="172.2" height="165.9"/>
		</defs>
		<clipPath id="SVGID_00000159464076983605854250000002743366585175952020_">
			<use xlink:href="#SVGID_1_"  style="overflow:visible;"/>
		</clipPath>
		
			<g id="Group_20455" transform="translate(0)" style="clip-path:url(#SVGID_00000159464076983605854250000002743366585175952020_);">
			<path id="Path_88474" class="st1" d="M38,165.9c-6.6,0-8.2-5.4-8.9-10.2L18.8,80.4c-0.1-0.9,0.1-1.7,0.7-2.4c0.6-0.6,1.4-1,2.2-1
				l135.9,0.5c1.6,0,3,1.3,3,3c0,0,0,0,0,0c0,0.1,0,0.2,0,0.4l-9.4,73.3c-0.3,3.5-1.1,12-10.3,11.8h-102
				C38.6,165.9,38.3,165.9,38,165.9 M25.2,82.9l9.8,72c0.7,5.2,1.7,5.2,3.7,5l102.3,0c2.6,0.1,3.8-0.5,4.3-6.5l9-70.1L25.2,82.9z"/>
			<path id="Path_88475" class="st1" d="M156.4,82.9H23.6c-8.8-0.1-15.9-7.3-15.8-16.1c0.1-8.7,7.1-15.8,15.8-15.8h132.8
				c8.8,0.1,15.9,7.3,15.8,16.1C172.1,75.8,165.1,82.9,156.4,82.9 M23.6,57c-5.5,0.2-9.9,4.8-9.7,10.3c0.2,5.3,4.4,9.5,9.7,9.7
				h132.8c5.5-0.2,9.9-4.8,9.7-10.3c-0.2-5.3-4.4-9.5-9.7-9.7L23.6,57z"/>
			<path id="Path_88476" class="st2" d="M98,5.9v57c0,1.7-1.4,3-3,3l0,0h-15c-1.7,0-3-1.4-3-3l0,0v-57c0-1.7,1.4-3,3-3l0,0h15
				C96.6,2.9,98,4.2,98,5.9C98,5.9,98,5.9,98,5.9"/>
			<path id="Path_88477" class="st1" d="M87.4,68.9c-7.5,0-13.5-6.1-13.5-13.5v-42c0-7.5,6.1-13.5,13.5-13.5
				c7.5,0,13.5,6.1,13.5,13.5v42C101,62.8,94.9,68.9,87.4,68.9 M87.4,5.8c-4.2,0-7.6,3.4-7.6,7.6v42c0,4.2,3.4,7.6,7.6,7.6
				c4.2,0,7.6-3.4,7.6-7.6v-42C95,9.2,91.6,5.8,87.4,5.8L87.4,5.8z"/>
			<path id="Path_88478" class="st2" d="M87.4,51.2c1.9,0,3.4,1.5,3.4,3.4s-1.5,3.4-3.4,3.4c-1.9,0-3.4-1.5-3.4-3.4
				S85.6,51.2,87.4,51.2L87.4,51.2"/>
			<path id="Path_88479" class="st1" d="M87.4,60.9c-3.5,0-6.3-2.8-6.3-6.3c0-3.5,2.8-6.3,6.3-6.3c3.5,0,6.3,2.8,6.3,6.3
				C93.8,58.1,90.9,60.9,87.4,60.9C87.4,60.9,87.4,60.9,87.4,60.9 M87.4,54.2c-0.2,0-0.4,0.2-0.4,0.4c0,0.4,0.8,0.4,0.8,0
				C87.8,54.4,87.7,54.2,87.4,54.2L87.4,54.2z"/>
			<path id="Path_88480" class="st1" d="M52.4,148.4c-5.2,0-9.4-4.2-9.4-9.4v-34.9c0.1-5.2,4.4-9.3,9.6-9.2c5.1,0.1,9.1,4.2,9.2,9.2
				v34.9C61.8,144.2,57.6,148.4,52.4,148.4 M52.4,100.8c-1.9,0-3.4,1.5-3.4,3.4v34.9c0,1.9,1.5,3.4,3.4,3.4c1.9,0,3.4-1.5,3.4-3.4
				v-34.9C55.8,102.3,54.3,100.8,52.4,100.8L52.4,100.8z"/>
			<path id="Path_88481" class="st1" d="M78.6,147.7c-5.2,0-9.4-4.2-9.4-9.4v-34.9c-0.1-5.2,4.1-9.4,9.3-9.5
				c5.2-0.1,9.4,4.1,9.5,9.3c0,0.1,0,0.1,0,0.2v34.9C88,143.5,83.8,147.7,78.6,147.7 M78.6,100c-1.9,0-3.4,1.5-3.4,3.4v34.9
				c0,1.9,1.5,3.4,3.4,3.4c1.9,0,3.4-1.5,3.4-3.4v-34.9C82,101.5,80.5,100,78.6,100L78.6,100z"/>
			<path id="Path_88482" class="st1" d="M104.1,147.1c-5.2,0-9.4-4.2-9.4-9.4v-34.9c0.1-5.2,4.3-9.3,9.5-9.3
				c5.1,0.1,9.2,4.2,9.3,9.3v34.9C113.4,142.9,109.2,147.1,104.1,147.1 M104.1,99.4c-1.9,0-3.4,1.5-3.4,3.4v34.9
				c0,1.9,1.5,3.4,3.4,3.4c1.9,0,3.4-1.5,3.4-3.4v-34.9C107.5,100.9,106,99.4,104.1,99.4"/>
			<path id="Path_88483" class="st1" d="M128.9,147.7c-5.2,0-9.4-4.2-9.4-9.4v-34.9c-0.1-5.2,4.1-9.4,9.3-9.5
				c5.2-0.1,9.4,4.1,9.5,9.3c0,0.1,0,0.1,0,0.2v34.9C138.3,143.5,134.1,147.7,128.9,147.7 M128.9,100c-1.9,0-3.4,1.5-3.4,3.4v34.9
				c0,1.9,1.5,3.5,3.4,3.5c1.9,0,3.5-1.5,3.5-3.4c0,0,0-0.1,0-0.1v-34.9C132.4,101.5,130.8,100,128.9,100L128.9,100z"/>
		</g>
	</g>
</g>
</svg>
