<svg xmlns="http://www.w3.org/2000/svg" xmlns:xlink="http://www.w3.org/1999/xlink" width="200" height="200" viewBox="0 0 200 200">
  <defs>
    <clipPath id="clip-path">
      <rect id="Rectangle_15144" data-name="Rectangle 15144" width="171.341" height="145.67" fill="none"/>
    </clipPath>
    <clipPath id="clip-Jobs">
      <rect width="200" height="200"/>
    </clipPath>
  </defs>
  <g id="Jobs" clip-path="url(#clip-Jobs)">
    <rect width="200" height="200" fill="#fff"/>
    <g id="Group_93510" data-name="Group 93510" transform="translate(14 27)">
      <g id="Group_20454" data-name="Group 20454" transform="translate(0)" clip-path="url(#clip-path)">
        <path id="Path_88467" data-name="Path 88467" d="M145.607,145.733H25.733A25.764,25.764,0,0,1,0,120V53.9A25.761,25.761,0,0,1,25.733,28.164H145.607A25.762,25.762,0,0,1,171.341,53.9V120a25.763,25.763,0,0,1-25.734,25.734M25.733,34.356A19.562,19.562,0,0,0,6.193,53.894V120a19.563,19.563,0,0,0,19.54,19.542H145.607A19.563,19.563,0,0,0,165.147,120V53.9a19.562,19.562,0,0,0-19.54-19.538Z" transform="translate(0 -0.063)" fill="#003173"/>
        <path id="Path_88468" data-name="Path 88468" d="M145.511,94.065H25.637A25.715,25.715,0,0,1,0,68.33a3.1,3.1,0,0,1,6.193,0A19.515,19.515,0,0,0,25.637,87.872H145.511a19.592,19.592,0,0,0,19.637-19.506,3.1,3.1,0,0,1,6.193,0,25.793,25.793,0,0,1-25.83,25.7" transform="translate(0 -0.146)" fill="#003173"/>
        <path id="Path_88469" data-name="Path 88469" d="M39.032,74.738H53.569a2.317,2.317,0,0,1,2.317,2.317v37.214a2.317,2.317,0,0,1-2.317,2.317H39.032a2.317,2.317,0,0,1-2.317-2.317V77.055a2.317,2.317,0,0,1,2.317-2.317" transform="translate(-0.082 -0.167)" fill="#e64b16"/>
        <path id="Path_88470" data-name="Path 88470" d="M46.294,119.674a12.7,12.7,0,0,1-12.682-12.681V84.315a12.682,12.682,0,0,1,25.363,0v22.679a12.7,12.7,0,0,1-12.682,12.681m0-41.847a6.5,6.5,0,0,0-6.485,6.485v22.679a6.489,6.489,0,0,0,12.978,0V84.313a6.5,6.5,0,0,0-6.492-6.485" transform="translate(-0.075 -0.161)" fill="#003173"/>
        <path id="Path_88471" data-name="Path 88471" d="M121.283,72.365H135.82a2.317,2.317,0,0,1,2.317,2.317V111.9a2.317,2.317,0,0,1-2.317,2.317H121.283a2.317,2.317,0,0,1-2.317-2.317V74.682a2.317,2.317,0,0,1,2.317-2.317" transform="translate(-0.267 -0.162)" fill="#e64b16"/>
        <path id="Path_88472" data-name="Path 88472" d="M128.545,117.3a12.7,12.7,0,0,1-12.681-12.681V81.939a12.682,12.682,0,0,1,25.363,0v22.679A12.7,12.7,0,0,1,128.545,117.3m0-41.847a6.5,6.5,0,0,0-6.485,6.485V104.62a6.489,6.489,0,0,0,12.978,0V81.939a6.5,6.5,0,0,0-6.492-6.485Z" transform="translate(-0.26 -0.155)" fill="#003173"/>
        <path id="Path_88473" data-name="Path 88473" d="M118.239,34.292a3.093,3.093,0,0,1-3.093-3.093V13.349a7.165,7.165,0,0,0-7.159-7.156H63.011a7.166,7.166,0,0,0-7.16,7.156V31.2a3.1,3.1,0,1,1-6.193,0V13.349A13.37,13.37,0,0,1,63.011,0h44.976a13.371,13.371,0,0,1,13.352,13.349V31.2a3.093,3.093,0,0,1-3.093,3.093Z" transform="translate(-0.111)" fill="#003173"/>
      </g>
    </g>
  </g>
</svg>
