<svg xmlns="http://www.w3.org/2000/svg" xmlns:xlink="http://www.w3.org/1999/xlink" width="200" height="200" viewBox="0 0 200 200">
  <defs>
    <clipPath id="clip-path">
      <rect id="Rectangle_15142" data-name="Rectangle 15142" width="168.415" height="119.582" fill="none"/>
    </clipPath>
    <clipPath id="clip-Rent">
      <rect width="200" height="200"/>
    </clipPath>
  </defs>
  <g id="Rent" clip-path="url(#clip-Rent)">
    <rect width="200" height="200" fill="#fff"/>
    <g id="Group_93511" data-name="Group 93511" transform="translate(16 40)">
      <g id="Group_20450" data-name="Group 20450" transform="translate(0)" clip-path="url(#clip-path)">
        <path id="Path_88452" data-name="Path 88452" d="M101.807,37.551a18.775,18.775,0,1,1,18.775-18.775,18.775,18.775,0,0,1-18.775,18.775m0-31.849a13.074,13.074,0,1,0,13.074,13.074A13.073,13.073,0,0,0,101.807,5.7Z" transform="translate(-7.285 0)" fill="#003173"/>
        <path id="Path_88453" data-name="Path 88453" d="M154.458,27.1a2.829,2.829,0,0,1-1.642-.52l-3.791-2.661-3.694,2.646a2.85,2.85,0,0,1-1.661.535H120.16a2.851,2.851,0,0,1,0-5.7h22.594l4.594-3.293a2.838,2.838,0,0,1,3.3-.015l3.558,2.5,2.5-2.324a2.861,2.861,0,0,1,3.884,0l3.354,3.129h2.891a2.87,2.87,0,0,0,0-5.739h-46.68a2.851,2.851,0,0,1,0-5.7h46.68a8.575,8.575,0,0,1,0,17.142h-4.014a2.852,2.852,0,0,1-1.944-.765l-2.236-2.085-2.251,2.09a2.844,2.844,0,0,1-1.936.762" transform="translate(-10.292 -0.873)" fill="#003173"/>
        <path id="Path_88454" data-name="Path 88454" d="M102.737,13.428a6.646,6.646,0,1,1-6.646,6.646,6.646,6.646,0,0,1,6.646-6.646" transform="translate(-8.431 -1.178)" fill="#e64b16"/>
        <path id="Path_88455" data-name="Path 88455" d="M102.463,29.3a9.5,9.5,0,1,1,9.5-9.5,9.5,9.5,0,0,1-9.5,9.5m0-13.293a3.8,3.8,0,1,0,3.8,3.8v0A3.8,3.8,0,0,0,102.463,16Z" transform="translate(-8.157 -0.904)" fill="#003173"/>
        <path id="Path_88456" data-name="Path 88456" d="M32.185,124.018a2.85,2.85,0,0,1-2.532-1.54L.319,65.885a2.852,2.852,0,0,1,1.219-3.842L23.084,50.878A2.863,2.863,0,0,1,26.927,52.1l29.335,56.589a2.851,2.851,0,0,1-1.219,3.842L33.5,123.7a2.857,2.857,0,0,1-1.312.319M6.693,65.792,33.4,117.326l16.484-8.545L23.177,57.251Z" transform="translate(0 -4.436)" fill="#003173"/>
        <path id="Path_88457" data-name="Path 88457" d="M104.783,74.052H85.037a2.851,2.851,0,0,1,0-5.7h19.745c6.242,0,9.15-2.22,9.15-3.719,0-1.484-2.848-3.675-8.957-3.719-4.456.6-9.311.078-15.7-1.692-10.569-3.686-19.05-3.923-26.87-.8L37.775,68.8a2.852,2.852,0,0,1-2.214-5.256l24.681-10.4c9.1-3.634,19.134-3.423,30.736.639,5.515,1.525,9.7,1.993,13.4,1.46a2.743,2.743,0,0,1,.405-.03c10.2,0,14.852,4.885,14.852,9.421s-4.647,9.415-14.852,9.415" transform="translate(-2.967 -4.437)" fill="#003173"/>
        <path id="Path_88458" data-name="Path 88458" d="M54.268,103.766a2.85,2.85,0,0,1-1.551-5.242c16.934-10.987,25.347-12.164,39.136-5.49a2.757,2.757,0,0,1,.357.2c11.394,7.717,15.254,5.382,28.041-2.32L123.96,88.7l38.558-21.475c4.237-2.4,5.4-5.535,4.351-7.389s-4.337-2.469-8.591-.067L133.729,70.222c-9.548,2.862-20.67,5.52-33.024,4.447a2.851,2.851,0,0,1-2.588-3.089v0a2.884,2.884,0,0,1,3.093-2.587c11.4,1,21.861-1.518,30.594-4.123l23.959-10.2c7.224-4.1,13.627-1.957,16.072,2.365s.989,10.917-6.524,15.167L123.2,95.8c-13.111,7.9-19.715,11.878-34.006,2.281-11.682-5.609-18.277-4.561-33.372,5.226a2.827,2.827,0,0,1-1.551.458" transform="translate(-4.511 -4.604)" fill="#003173"/>
      </g>
    </g>
  </g>
</svg>
