<svg xmlns="http://www.w3.org/2000/svg" xmlns:xlink="http://www.w3.org/1999/xlink" width="200" height="200" viewBox="0 0 200 200">
  <defs>
    <clipPath id="clip-path">
      <rect id="Rectangle_15146" data-name="Rectangle 15146" width="178.777" height="166.113" fill="none"/>
    </clipPath>
    <clipPath id="clip-Sell">
      <rect width="200" height="200"/>
    </clipPath>
  </defs>
  <g id="Sell" clip-path="url(#clip-Sell)">
    <rect width="200" height="200" fill="#fff"/>
    <g id="Group_93508" data-name="Group 93508" transform="translate(11 17)">
      <g id="Group_20457" data-name="Group 20457" transform="translate(0)" clip-path="url(#clip-path)">
        <path id="Path_88484" data-name="Path 88484" d="M23.883,153.356H3.153A3.151,3.151,0,0,1,0,150.205H0V95.753A3.153,3.153,0,0,1,3.153,92.6h20.73a3.151,3.151,0,0,1,3.152,3.152h0V150.2a3.15,3.15,0,0,1-3.149,3.152ZM6.3,147.051H20.731V98.9H6.3Z" transform="translate(0 12.757)" fill="#003173"/>
        <path id="Path_88485" data-name="Path 88485" d="M49.923,120.554a3.153,3.153,0,0,1-.044-6.3l40.636-.58c2.576-.341,4.451-1.886,4.437-3.921-.011-1.572-1.257-3.543-4.731-3.92-9.663.24-19.628-1.928-30.048-6.613C48.558,95.761,36.8,100,23.554,112.691a3.152,3.152,0,0,1-4.361-4.551C34.043,93.91,48.166,89.063,62.37,93.321c9.934,4.437,19.011,6.424,28.121,6.223,7.479.785,10.733,5.812,10.766,10.158.032,4.317-3.186,9.365-10.309,10.247l-40.979.6Z" transform="translate(2.51 12.651)" fill="#003173"/>
        <path id="Path_88486" data-name="Path 88486" d="M21.377,143.977a3.153,3.153,0,0,1-1.667-5.83c13.138-8.164,28.473-12.078,46.859-11.958l35.258-1.964c7.661-.8,13.645-3.483,18.146-8.192a57.705,57.705,0,0,1,24.267-14.519,3.153,3.153,0,0,1,2,5.981c-.044.014-.09.029-.134.041a50.962,50.962,0,0,0-21.646,12.926c-5.506,5.759-12.768,9.068-22.13,10.041l-35.605,1.982c-17.367-.107-31.589,3.5-43.69,11.014a3.138,3.138,0,0,1-1.657.478" transform="translate(2.51 13.963)" fill="#003173"/>
        <path id="Path_88487" data-name="Path 88487" d="M160.2,117.654H94.427a3.153,3.153,0,0,1,0-6.3h62.622V26.505H55.332v77.559a3.152,3.152,0,0,1-6.3,0V23.356A3.152,3.152,0,0,1,52.18,20.2H160.2a3.152,3.152,0,0,1,3.152,3.153V114.5a3.152,3.152,0,0,1-3.147,3.15" transform="translate(6.754 2.783)" fill="#003173"/>
        <path id="Path_88488" data-name="Path 88488" d="M84.066,3.393l35.868-.064V48.48l-10.869-8.975-8.533,8.975-8.277-9.156L84.063,48.48Z" transform="translate(11.581 0.459)" fill="#e64d17"/>
        <path id="Path_88489" data-name="Path 88489" d="M84.441,52.016a3.151,3.151,0,0,1-3.152-3.152h0L81.3,3.774A3.152,3.152,0,0,1,84.443.623L120.311.56a3.336,3.336,0,0,1,2.232.92,3.156,3.156,0,0,1,.924,2.231V48.863a3.152,3.152,0,0,1-5.159,2.431l-8.6-7.1-6.514,6.846a3.151,3.151,0,0,1-4.455.112c-.058-.055-.113-.112-.166-.171l-5.927-6.555-5.855,6.543a3.151,3.151,0,0,1-2.348,1.05m8.192-15.459a3.152,3.152,0,0,1,2.339,1.038l6,6.634,6.2-6.513a3.15,3.15,0,0,1,4.289-.258l5.709,4.715V6.87L87.6,6.922l-.007,33.69,2.689-3.006A3.481,3.481,0,0,1,92.633,36.557Z" transform="translate(11.199 0.077)" fill="#003173"/>
        <path id="Path_88490" data-name="Path 88490" d="M54.38,29.287H40.185a3.153,3.153,0,0,1-3.153-3.152V3.153A3.153,3.153,0,0,1,40.185,0H170.523a3.153,3.153,0,0,1,3.153,3.153v22.86a3.151,3.151,0,0,1-3.113,3.152l-8.657.107a3.152,3.152,0,0,1-.077-6.3l5.544-.069V6.3H43.336V22.984H54.38a3.153,3.153,0,0,1,0,6.3Z" transform="translate(5.102)" fill="#003173"/>
        <path id="Path_88491" data-name="Path 88491" d="M83.512,105.043V80.251l8.773,8.669,8.332-8.669,8.591,8.669,8.454-8.669v24.792Z" transform="translate(11.505 11.056)" fill="#e64d17"/>
        <path id="Path_88492" data-name="Path 88492" d="M118.046,108.577H83.895a3.152,3.152,0,0,1-3.152-3.153V80.634a3.151,3.151,0,0,1,5.367-2.243l6.5,6.423,6.118-6.365a3.152,3.152,0,0,1,2.248-.968,3.063,3.063,0,0,1,2.263.934l6.334,6.392,6.214-6.371a3.152,3.152,0,0,1,5.409,2.2v24.791a3.152,3.152,0,0,1-3.15,3.151m-31-6.3h27.847V88.382L111.848,91.5a3.063,3.063,0,0,1-2.257.952,3.153,3.153,0,0,1-2.239-.934l-6.318-6.372L94.94,91.492a3.155,3.155,0,0,1-4.46.087c-.009-.01-.019-.019-.028-.029l-3.405-3.366Z" transform="translate(11.124 10.674)" fill="#003173"/>
      </g>
    </g>
  </g>
</svg>
