<svg xmlns="http://www.w3.org/2000/svg" xmlns:xlink="http://www.w3.org/1999/xlink" width="200" height="200" viewBox="0 0 200 200">
  <defs>
    <clipPath id="clip-path">
      <rect id="Rectangle_15143" data-name="Rectangle 15143" width="166.562" height="165.774" fill="none"/>
    </clipPath>
    <clipPath id="clip-Services">
      <rect width="200" height="200"/>
    </clipPath>
  </defs>
  <g id="Services" clip-path="url(#clip-Services)">
    <rect width="200" height="200" fill="#fff"/>
    <g id="Group_93512" data-name="Group 93512" transform="translate(16.719 17.113)">
      <g id="Group_20452" data-name="Group 20452" transform="translate(0)" clip-path="url(#clip-path)">
        <path id="Path_88459" data-name="Path 88459" d="M127.985,159.133a32.073,32.073,0,0,1-22.764-9.14c-7.843-7.682-11.289-18.974-9.378-30.49L44.864,68.521C33.568,70.169,23,66.889,15.686,59.387c-7.839-8.033-11-19.959-8.45-31.884a3.158,3.158,0,0,1,5.333-1.553L26.932,40.557c5.963,4.631,11.662,2.883,15.02-.317a12.118,12.118,0,0,0,1.36-16.2L29.359,10.089a3.156,3.156,0,0,1,1.433-5.281A31.831,31.831,0,0,1,62.046,12.97a33.436,33.436,0,0,1,9.189,30.079L122.48,94.292c11.283-1.713,21.869,1.587,29.183,9.188,7.769,8.079,10.774,19.857,8.039,31.507a3.157,3.157,0,0,1-5.3,1.509L141.02,123.117c-5.851-5.335-12.4-3.97-16.238-.205-3.9,3.821-5.387,10.46.061,16.675l13.235,13.228a3.158,3.158,0,0,1-1.511,5.3,37.789,37.789,0,0,1-8.581,1.018M45.948,61.991a3.152,3.152,0,0,1,2.23.925l53.3,53.306a3.15,3.15,0,0,1,.854,2.883c-2.111,9.975.616,19.839,7.3,26.386a26.111,26.111,0,0,0,19.508,7.311l-8.895-8.9c-8.263-9.414-5.7-19.777.125-25.484,5.761-5.653,16.052-8.02,25,.148l9,8.988a26.871,26.871,0,0,0-7.252-19.693c-6.249-6.5-15.156-9.009-25.113-7.078a3.159,3.159,0,0,1-2.829-.866L65.549,46.291a3.159,3.159,0,0,1-.825-3.015A27.082,27.082,0,0,0,57.6,17.453a25.2,25.2,0,0,0-19.41-7.442l9.776,9.775a2.956,2.956,0,0,1,.337.394,18.472,18.472,0,0,1-2,24.64c-5.459,5.205-14.83,7.4-23.432.574a2.666,2.666,0,0,1-.292-.259L12.691,35.073a27.6,27.6,0,0,0,7.516,19.92c6.266,6.421,15.213,8.93,25.167,7.057a3.066,3.066,0,0,1,.574-.064Z" transform="translate(0.813 0.459)" fill="#003173"/>
        <path id="Path_88460" data-name="Path 88460" d="M23.91,157.279a23.452,23.452,0,0,1-15.085-5.888c-6.766-5.751-12.4-16.877-6.049-29.318a3.2,3.2,0,0,1,.581-.795L57.144,67.49a3.158,3.158,0,0,1,4.46,0L89.218,95.1a3.157,3.157,0,0,1,0,4.461L35.431,153.349a3.259,3.259,0,0,1-.361.311,18.679,18.679,0,0,1-11.16,3.619m-15.73-31.9c-4.337,8.986-.2,17.019,4.736,21.212,4.821,4.1,12.306,6.325,18.231,2.126l51.385-51.38L59.377,74.182Z" transform="translate(0 8.495)" fill="#003173"/>
        <path id="Path_88461" data-name="Path 88461" d="M24.128,131.326a3.157,3.157,0,0,1-2.229-5.383l36.73-36.731a3.157,3.157,0,0,1,4.68,4.24q-.1.115-.22.22L26.359,130.4a3.14,3.14,0,0,1-2.23.925" transform="translate(2.677 11.252)" fill="#003173"/>
        <path id="Path_88462" data-name="Path 88462" d="M102.976,23.676,129.991,50.69l20.282-34.428L136.808,2.8Z" transform="translate(13.141 0.357)" fill="#e64b16"/>
        <path id="Path_88463" data-name="Path 88463" d="M130.347,54.2a3.157,3.157,0,0,1-2.229-.924L101.1,26.262a3.146,3.146,0,0,1,.575-4.912L135.506.471a3.15,3.15,0,0,1,3.884.451l13.464,13.465a3.158,3.158,0,0,1,.489,3.834l-20.28,34.427a3.156,3.156,0,0,1-2.321,1.528,3.31,3.31,0,0,1-.395.024M108.384,24.623,129.7,45.935l16.971-28.815-9.975-9.975Z" transform="translate(12.784 0)" fill="#003173"/>
        <path id="Path_88464" data-name="Path 88464" d="M78.467,64.449a3.157,3.157,0,0,1-2.23-5.383L110.4,24.892a3.157,3.157,0,1,1,4.678,4.24,3.1,3.1,0,0,1-.219.22L80.7,63.526a3.141,3.141,0,0,1-2.229.923" transform="translate(9.612 3.044)" fill="#003173"/>
        <path id="Path_88465" data-name="Path 88465" d="M91.088,77.07a3.157,3.157,0,0,1-2.229-5.383l34.167-34.172a3.157,3.157,0,1,1,4.678,4.24c-.069.077-.142.15-.219.22L93.319,76.141a3.143,3.143,0,0,1-2.23.929" transform="translate(11.223 4.655)" fill="#003173"/>
        <path id="Path_88466" data-name="Path 88466" d="M96.637,98.4a3.146,3.146,0,0,1-2.23-.924L54.462,57.532a3.157,3.157,0,0,1,4.46-4.461L98.867,93.015A3.157,3.157,0,0,1,96.637,98.4Z" transform="translate(6.845 6.668)" fill="#e64b16"/>
      </g>
    </g>
  </g>
</svg>
