<svg xmlns="http://www.w3.org/2000/svg" xmlns:xlink="http://www.w3.org/1999/xlink" width="400" height="351" viewBox="0 0 400 351">
  <defs>
    <clipPath id="clip-path">
      <rect id="Rectangle_33831" data-name="Rectangle 33831" width="384.015" height="312.352" fill="none"/>
    </clipPath>
    <clipPath id="clip-SK_Store">
      <rect width="400" height="351"/>
    </clipPath>
  </defs>
  <g id="SK_Store" data-name="SK Store" clip-path="url(#clip-SK_Store)">
    <rect width="400" height="351" fill="#fff"/>
    <g id="Group_93507" data-name="Group 93507" transform="translate(8 17.001)">
      <path id="Path_322767" data-name="Path 322767" d="M43.474,2.679H328.7V58.917H43.474ZM40.795,61.6H331.382V0H40.795Z" transform="translate(-4.366)" fill="#003273"/>
      <rect id="Rectangle_33817" data-name="Rectangle 33817" width="2.679" height="10.68" transform="translate(57.282 60.865)" fill="#003273"/>
      <rect id="Rectangle_33818" data-name="Rectangle 33818" width="2.679" height="11.49" transform="translate(306.316 59.447)" fill="#003273"/>
      <path id="Path_322768" data-name="Path 322768" d="M351.038,111.289H15.1V93.7L48.133,78.645h.288l272.031-1.216,30.586,15.346ZM17.777,108.61H348.359V94.426L319.823,80.11l-271.1,1.212-30.944,14.1Z" transform="translate(-1.616 -8.287)" fill="#003273"/>
      <rect id="Rectangle_33819" data-name="Rectangle 33819" width="333.732" height="2.679" transform="translate(14.012 85.137)" fill="#003273"/>
      <path id="Path_322769" data-name="Path 322769" d="M34.333,300.779V113.027h14.22V294.043Zm2.679-185.073v180.84l8.862-4.2V115.706Z" transform="translate(-3.675 -12.098)" fill="#003273"/>
      <path id="Path_322770" data-name="Path 322770" d="M85.133,227.265H70.913V113.027h14.22Zm-11.541-2.679h8.862V115.706H73.592Z" transform="translate(-7.59 -12.098)" fill="#003273"/>
      <path id="Path_322771" data-name="Path 322771" d="M96.923,316.928H82.7V252.092h14.22Zm-11.541-2.679h8.862V254.771H85.382Z" transform="translate(-8.852 -26.982)" fill="#003273"/>
      <path id="Path_322772" data-name="Path 322772" d="M250.5,316.928h-14.22V252.092H250.5Zm-11.541-2.679h8.862V254.771h-8.862Z" transform="translate(-25.289 -26.982)" fill="#003273"/>
      <path id="Path_322773" data-name="Path 322773" d="M239.31,253.085H69.326v-14.22H239.31ZM72,250.406H236.631v-8.862H72Z" transform="translate(-7.42 -25.566)" fill="#003273"/>
      <path id="Path_322774" data-name="Path 322774" d="M320.884,255.858h-2.679V113.027h14.22V251.1h-2.679V115.706h-8.862Z" transform="translate(-34.058 -12.098)" fill="#003273"/>
      <path id="Path_322775" data-name="Path 322775" d="M371.649,302.785h-3.735v-2.679h1.056v-184.4h-8.862V262.032h-2.679v-149h14.22Z" transform="translate(-38.257 -12.098)" fill="#003273"/>
      <rect id="Rectangle_33820" data-name="Rectangle 33820" width="102.82" height="2.679" transform="translate(75.866 143.65)" fill="#003273"/>
      <rect id="Rectangle_33821" data-name="Rectangle 33821" width="89.996" height="2.679" transform="translate(75.866 182.794)" fill="#003273"/>
      <rect id="Rectangle_33822" data-name="Rectangle 33822" width="69.615" height="2.679" transform="translate(216.108 182.794)" fill="#003273"/>
      <rect id="Rectangle_33823" data-name="Rectangle 33823" width="83.146" height="2.679" transform="translate(202.577 144.055)" fill="#003273"/>
      <rect id="Rectangle_33824" data-name="Rectangle 33824" width="67.219" height="2.679" transform="translate(229.842 213.569)" fill="#003273"/>
      <rect id="Rectangle_33825" data-name="Rectangle 33825" width="46.566" height="2.679" transform="translate(223.768 273.093)" fill="#003273"/>
      <path id="Path_322776" data-name="Path 322776" d="M7.378,329.2,0,343.954H384.015L333.372,307.78l-1.557,2.181,43.841,31.315H4.334l5.042-10.08,67.089-33.544-1.2-2.4Z" transform="translate(0 -31.602)" fill="#003273"/>
      <rect id="Rectangle_33826" data-name="Rectangle 33826" width="354.89" height="2.679" transform="translate(8.478 297.416)" fill="#003273"/>
      <rect id="Rectangle_33827" data-name="Rectangle 33827" width="125.799" height="2.679" transform="translate(87.473 245.963)" fill="#003273"/>
      <rect id="Rectangle_33828" data-name="Rectangle 33828" width="125.799" height="2.679" transform="translate(87.473 264.591)" fill="#003273"/>
      <rect id="Rectangle_33829" data-name="Rectangle 33829" width="125.799" height="2.679" transform="translate(87.473 286.727)" fill="#003273"/>
      <path id="Path_322777" data-name="Path 322777" d="M115.429,137.862H101.06v-7.944h14.369Zm-11.689-2.679h9.011V132.6H103.74Z" transform="translate(-10.817 -13.906)" fill="#003273"/>
      <path id="Path_322778" data-name="Path 322778" d="M118.694,160.764H96.908V135.815h21.786Zm-19.108-2.679h16.428V138.494H99.586Z" transform="translate(-10.372 -14.537)" fill="#003273"/>
      <path id="Path_322779" data-name="Path 322779" d="M114.918,157.246H101.711v-7.808h13.207Zm-10.528-2.679h7.849v-2.45H104.39Z" transform="translate(-10.886 -15.995)" fill="#003273"/>
      <g id="Group_92771" data-name="Group 92771" transform="translate(0 0)">
        <g id="Group_92770" data-name="Group 92770" clip-path="url(#clip-path)">
          <path id="Path_322780" data-name="Path 322780" d="M104.832,218.037H99.277a3.615,3.615,0,1,1,0-7.23h5.555a3.615,3.615,0,1,1,0,7.23m-5.555-4.551a.936.936,0,1,0,0,1.873h5.555a.936.936,0,1,0,0-1.873Z" transform="translate(-10.239 -22.563)" fill="#003273"/>
          <path id="Path_322781" data-name="Path 322781" d="M104.712,237.837H98.627a6.564,6.564,0,0,1-6.557-6.556v-8.82a6.565,6.565,0,0,1,6.557-6.558h6.085a6.565,6.565,0,0,1,6.557,6.558v8.82a6.564,6.564,0,0,1-6.557,6.556m-6.085-19.255a3.882,3.882,0,0,0-3.878,3.879v8.82a3.882,3.882,0,0,0,3.878,3.877h6.085a3.882,3.882,0,0,0,3.878-3.877v-8.82a3.882,3.882,0,0,0-3.878-3.879Z" transform="translate(-9.854 -23.109)" fill="#003273"/>
          <path id="Path_322782" data-name="Path 322782" d="M97.848,232.676a1.248,1.248,0,1,1-1.248-1.248,1.248,1.248,0,0,1,1.248,1.248" transform="translate(-10.206 -24.77)" fill="#003273"/>
          <path id="Path_322783" data-name="Path 322783" d="M99.057,235.624a1.248,1.248,0,1,1-1.248-1.248,1.248,1.248,0,0,1,1.248,1.248" transform="translate(-10.335 -25.086)" fill="#003273"/>
          <path id="Path_322784" data-name="Path 322784" d="M107.295,232.827a1.248,1.248,0,1,1-1.248-1.248,1.249,1.249,0,0,1,1.248,1.248" transform="translate(-11.217 -24.787)" fill="#003273"/>
          <path id="Path_322785" data-name="Path 322785" d="M109.941,233.81a1.248,1.248,0,1,1-1.248-1.248,1.248,1.248,0,0,1,1.248,1.248" transform="translate(-11.5 -24.892)" fill="#003273"/>
          <path id="Path_322786" data-name="Path 322786" d="M107.673,226.025a1.248,1.248,0,1,1-1.248-1.248,1.248,1.248,0,0,1,1.248,1.248" transform="translate(-11.257 -24.059)" fill="#003273"/>
          <path id="Path_322787" data-name="Path 322787" d="M110.319,227.008a1.249,1.249,0,1,1-1.249-1.248,1.249,1.249,0,0,1,1.249,1.248" transform="translate(-11.54 -24.164)" fill="#003273"/>
          <path id="Path_322788" data-name="Path 322788" d="M110.319,230.862a1.249,1.249,0,1,1-1.249-1.248,1.249,1.249,0,0,1,1.249,1.248" transform="translate(-11.54 -24.576)" fill="#003273"/>
          <path id="Path_322789" data-name="Path 322789" d="M101.1,232.979a1.248,1.248,0,1,1-1.248-1.248,1.248,1.248,0,0,1,1.248,1.248" transform="translate(-10.554 -24.803)" fill="#003273"/>
          <path id="Path_322790" data-name="Path 322790" d="M97.47,229.426a1.248,1.248,0,1,1-1.248-1.248,1.248,1.248,0,0,1,1.248,1.248" transform="translate(-10.165 -24.423)" fill="#003273"/>
          <path id="Path_322791" data-name="Path 322791" d="M100.55,229.842a1.248,1.248,0,1,1-1.248-1.248,1.248,1.248,0,0,1,1.248,1.248" transform="translate(-10.495 -24.467)" fill="#003273"/>
          <path id="Path_322792" data-name="Path 322792" d="M103.044,228.368a1.248,1.248,0,1,1-1.248-1.248,1.248,1.248,0,0,1,1.248,1.248" transform="translate(-10.762 -24.309)" fill="#003273"/>
          <path id="Path_322793" data-name="Path 322793" d="M104.858,226.025a1.248,1.248,0,1,1-1.248-1.248,1.248,1.248,0,0,1,1.248,1.248" transform="translate(-10.956 -24.059)" fill="#003273"/>
          <path id="Path_322794" data-name="Path 322794" d="M105.33,230.409a1.248,1.248,0,1,1-1.248-1.248,1.248,1.248,0,0,1,1.248,1.248" transform="translate(-11.007 -24.528)" fill="#003273"/>
          <path id="Path_322795" data-name="Path 322795" d="M102.081,235.926a1.249,1.249,0,1,1-1.249-1.248,1.249,1.249,0,0,1,1.249,1.248" transform="translate(-10.659 -25.118)" fill="#003273"/>
          <path id="Path_322796" data-name="Path 322796" d="M104.045,233.054a1.248,1.248,0,1,1-1.248-1.248,1.249,1.249,0,0,1,1.248,1.248" transform="translate(-10.869 -24.811)" fill="#003273"/>
          <path id="Path_322797" data-name="Path 322797" d="M107.9,229.011a1.248,1.248,0,1,1-1.248-1.248,1.249,1.249,0,0,1,1.248,1.248" transform="translate(-11.282 -24.378)" fill="#003273"/>
          <path id="Path_322798" data-name="Path 322798" d="M101.778,225.685a1.248,1.248,0,1,1-1.248-1.248,1.249,1.249,0,0,1,1.248,1.248" transform="translate(-10.626 -24.022)" fill="#003273"/>
          <path id="Path_322799" data-name="Path 322799" d="M98.377,225.988a1.248,1.248,0,1,1-1.248-1.248,1.248,1.248,0,0,1,1.248,1.248" transform="translate(-10.262 -24.055)" fill="#003273"/>
          <path id="Path_322800" data-name="Path 322800" d="M104.877,236.077a1.248,1.248,0,1,1-1.248-1.248,1.248,1.248,0,0,1,1.248,1.248" transform="translate(-10.958 -25.134)" fill="#003273"/>
          <path id="Path_322801" data-name="Path 322801" d="M108.127,236.077a1.248,1.248,0,1,1-1.248-1.248,1.248,1.248,0,0,1,1.248,1.248" transform="translate(-11.306 -25.134)" fill="#003273"/>
          <path id="Path_322802" data-name="Path 322802" d="M127.656,218.037H122.1a3.615,3.615,0,1,1,0-7.23h5.555a3.615,3.615,0,1,1,0,7.23m-5.555-4.551a.936.936,0,1,0,0,1.873h5.555a.936.936,0,1,0,0-1.873Z" transform="translate(-12.682 -22.563)" fill="#003273"/>
          <path id="Path_322803" data-name="Path 322803" d="M127.536,237.837h-6.085a6.564,6.564,0,0,1-6.557-6.556v-8.82a6.565,6.565,0,0,1,6.557-6.558h6.085a6.565,6.565,0,0,1,6.557,6.558v8.82a6.564,6.564,0,0,1-6.557,6.556m-6.085-19.255a3.882,3.882,0,0,0-3.878,3.879v8.82a3.882,3.882,0,0,0,3.878,3.877h6.085a3.882,3.882,0,0,0,3.878-3.877v-8.82a3.882,3.882,0,0,0-3.878-3.879Z" transform="translate(-12.297 -23.109)" fill="#003273"/>
          <path id="Path_322804" data-name="Path 322804" d="M120.673,232.676a1.248,1.248,0,1,1-1.248-1.248,1.248,1.248,0,0,1,1.248,1.248" transform="translate(-12.649 -24.77)" fill="#003273"/>
          <path id="Path_322805" data-name="Path 322805" d="M121.882,235.624a1.248,1.248,0,1,1-1.248-1.248,1.248,1.248,0,0,1,1.248,1.248" transform="translate(-12.778 -25.086)" fill="#003273"/>
          <path id="Path_322806" data-name="Path 322806" d="M130.12,232.827a1.248,1.248,0,1,1-1.248-1.248,1.248,1.248,0,0,1,1.248,1.248" transform="translate(-13.66 -24.787)" fill="#003273"/>
          <path id="Path_322807" data-name="Path 322807" d="M132.765,233.81a1.248,1.248,0,1,1-1.248-1.248,1.248,1.248,0,0,1,1.248,1.248" transform="translate(-13.943 -24.892)" fill="#003273"/>
          <path id="Path_322808" data-name="Path 322808" d="M130.5,226.025a1.248,1.248,0,1,1-1.248-1.248,1.249,1.249,0,0,1,1.248,1.248" transform="translate(-13.7 -24.059)" fill="#003273"/>
          <path id="Path_322809" data-name="Path 322809" d="M133.143,227.008a1.248,1.248,0,1,1-1.248-1.248,1.248,1.248,0,0,1,1.248,1.248" transform="translate(-13.983 -24.164)" fill="#003273"/>
          <path id="Path_322810" data-name="Path 322810" d="M133.143,230.862a1.248,1.248,0,1,1-1.248-1.248,1.248,1.248,0,0,1,1.248,1.248" transform="translate(-13.983 -24.576)" fill="#003273"/>
          <path id="Path_322811" data-name="Path 322811" d="M123.923,232.979a1.248,1.248,0,1,1-1.248-1.248,1.248,1.248,0,0,1,1.248,1.248" transform="translate(-12.997 -24.803)" fill="#003273"/>
          <path id="Path_322812" data-name="Path 322812" d="M120.295,229.426a1.248,1.248,0,1,1-1.248-1.248,1.248,1.248,0,0,1,1.248,1.248" transform="translate(-12.608 -24.423)" fill="#003273"/>
          <path id="Path_322813" data-name="Path 322813" d="M123.375,229.842a1.248,1.248,0,1,1-1.248-1.248,1.248,1.248,0,0,1,1.248,1.248" transform="translate(-12.938 -24.467)" fill="#003273"/>
          <path id="Path_322814" data-name="Path 322814" d="M125.869,228.368a1.248,1.248,0,1,1-1.248-1.248,1.248,1.248,0,0,1,1.248,1.248" transform="translate(-13.205 -24.309)" fill="#003273"/>
          <path id="Path_322815" data-name="Path 322815" d="M127.683,226.025a1.248,1.248,0,1,1-1.248-1.248,1.249,1.249,0,0,1,1.248,1.248" transform="translate(-13.399 -24.059)" fill="#003273"/>
          <path id="Path_322816" data-name="Path 322816" d="M128.155,230.409a1.248,1.248,0,1,1-1.248-1.248,1.248,1.248,0,0,1,1.248,1.248" transform="translate(-13.45 -24.528)" fill="#003273"/>
          <path id="Path_322817" data-name="Path 322817" d="M124.9,235.926a1.248,1.248,0,1,1-1.248-1.248,1.248,1.248,0,0,1,1.248,1.248" transform="translate(-13.102 -25.118)" fill="#003273"/>
          <path id="Path_322818" data-name="Path 322818" d="M126.87,233.054a1.248,1.248,0,1,1-1.248-1.248,1.248,1.248,0,0,1,1.248,1.248" transform="translate(-13.312 -24.811)" fill="#003273"/>
          <path id="Path_322819" data-name="Path 322819" d="M130.725,229.011a1.248,1.248,0,1,1-1.248-1.248,1.249,1.249,0,0,1,1.248,1.248" transform="translate(-13.725 -24.378)" fill="#003273"/>
          <path id="Path_322820" data-name="Path 322820" d="M124.6,225.685a1.248,1.248,0,1,1-1.248-1.248,1.249,1.249,0,0,1,1.248,1.248" transform="translate(-13.069 -24.022)" fill="#003273"/>
          <path id="Path_322821" data-name="Path 322821" d="M121.2,225.988a1.248,1.248,0,1,1-1.248-1.248,1.248,1.248,0,0,1,1.248,1.248" transform="translate(-12.705 -24.055)" fill="#003273"/>
          <path id="Path_322822" data-name="Path 322822" d="M127.7,236.077a1.249,1.249,0,1,1-1.248-1.248,1.249,1.249,0,0,1,1.248,1.248" transform="translate(-13.401 -25.134)" fill="#003273"/>
          <path id="Path_322823" data-name="Path 322823" d="M130.951,236.077a1.248,1.248,0,1,1-1.248-1.248,1.249,1.249,0,0,1,1.248,1.248" transform="translate(-13.749 -25.134)" fill="#003273"/>
          <path id="Path_322824" data-name="Path 322824" d="M150.33,218.037h-5.555a3.615,3.615,0,1,1,0-7.23h5.555a3.615,3.615,0,1,1,0,7.23m-5.555-4.551a.936.936,0,1,0,0,1.873h5.555a.936.936,0,1,0,0-1.873Z" transform="translate(-15.109 -22.563)" fill="#003273"/>
          <path id="Path_322825" data-name="Path 322825" d="M150.21,237.837h-6.085a6.564,6.564,0,0,1-6.557-6.556v-8.82a6.565,6.565,0,0,1,6.557-6.558h6.085a6.565,6.565,0,0,1,6.557,6.558v8.82a6.564,6.564,0,0,1-6.557,6.556m-6.085-19.255a3.882,3.882,0,0,0-3.878,3.879v8.82a3.882,3.882,0,0,0,3.878,3.877h6.085a3.882,3.882,0,0,0,3.878-3.877v-8.82a3.882,3.882,0,0,0-3.878-3.879Z" transform="translate(-14.724 -23.109)" fill="#003273"/>
          <path id="Path_322826" data-name="Path 322826" d="M143.346,232.676a1.248,1.248,0,1,1-1.248-1.248,1.248,1.248,0,0,1,1.248,1.248" transform="translate(-15.075 -24.77)" fill="#003273"/>
          <path id="Path_322827" data-name="Path 322827" d="M144.556,235.624a1.248,1.248,0,1,1-1.249-1.248,1.249,1.249,0,0,1,1.249,1.248" transform="translate(-15.205 -25.086)" fill="#003273"/>
          <path id="Path_322828" data-name="Path 322828" d="M152.793,232.827a1.248,1.248,0,1,1-1.248-1.248,1.249,1.249,0,0,1,1.248,1.248" transform="translate(-16.087 -24.787)" fill="#003273"/>
          <path id="Path_322829" data-name="Path 322829" d="M155.439,233.81a1.248,1.248,0,1,1-1.248-1.248,1.249,1.249,0,0,1,1.248,1.248" transform="translate(-16.37 -24.892)" fill="#003273"/>
          <path id="Path_322830" data-name="Path 322830" d="M153.171,226.025a1.248,1.248,0,1,1-1.248-1.248,1.249,1.249,0,0,1,1.248,1.248" transform="translate(-16.127 -24.059)" fill="#003273"/>
          <path id="Path_322831" data-name="Path 322831" d="M155.817,227.008a1.248,1.248,0,1,1-1.248-1.248,1.249,1.249,0,0,1,1.248,1.248" transform="translate(-16.41 -24.164)" fill="#003273"/>
          <path id="Path_322832" data-name="Path 322832" d="M155.817,230.862a1.248,1.248,0,1,1-1.248-1.248,1.249,1.249,0,0,1,1.248,1.248" transform="translate(-16.41 -24.576)" fill="#003273"/>
          <path id="Path_322833" data-name="Path 322833" d="M146.6,232.979a1.248,1.248,0,1,1-1.248-1.248,1.248,1.248,0,0,1,1.248,1.248" transform="translate(-15.423 -24.803)" fill="#003273"/>
          <path id="Path_322834" data-name="Path 322834" d="M142.968,229.426a1.248,1.248,0,1,1-1.248-1.248,1.248,1.248,0,0,1,1.248,1.248" transform="translate(-15.035 -24.423)" fill="#003273"/>
          <path id="Path_322835" data-name="Path 322835" d="M146.048,229.842a1.248,1.248,0,1,1-1.248-1.248,1.248,1.248,0,0,1,1.248,1.248" transform="translate(-15.365 -24.467)" fill="#003273"/>
          <path id="Path_322836" data-name="Path 322836" d="M148.542,228.368a1.248,1.248,0,1,1-1.248-1.248,1.248,1.248,0,0,1,1.248,1.248" transform="translate(-15.632 -24.309)" fill="#003273"/>
          <path id="Path_322837" data-name="Path 322837" d="M150.356,226.025a1.248,1.248,0,1,1-1.248-1.248,1.248,1.248,0,0,1,1.248,1.248" transform="translate(-15.826 -24.059)" fill="#003273"/>
          <path id="Path_322838" data-name="Path 322838" d="M150.829,230.409a1.249,1.249,0,1,1-1.249-1.248,1.249,1.249,0,0,1,1.249,1.248" transform="translate(-15.876 -24.528)" fill="#003273"/>
          <path id="Path_322839" data-name="Path 322839" d="M147.579,235.926a1.248,1.248,0,1,1-1.248-1.248,1.248,1.248,0,0,1,1.248,1.248" transform="translate(-15.529 -25.118)" fill="#003273"/>
          <path id="Path_322840" data-name="Path 322840" d="M149.544,233.054a1.248,1.248,0,1,1-1.248-1.248,1.249,1.249,0,0,1,1.248,1.248" transform="translate(-15.739 -24.811)" fill="#003273"/>
          <path id="Path_322841" data-name="Path 322841" d="M153.4,229.011a1.248,1.248,0,1,1-1.248-1.248,1.249,1.249,0,0,1,1.248,1.248" transform="translate(-16.151 -24.378)" fill="#003273"/>
          <path id="Path_322842" data-name="Path 322842" d="M147.276,225.685a1.248,1.248,0,1,1-1.248-1.248,1.249,1.249,0,0,1,1.248,1.248" transform="translate(-15.496 -24.022)" fill="#003273"/>
          <path id="Path_322843" data-name="Path 322843" d="M143.875,225.988a1.248,1.248,0,1,1-1.248-1.248,1.248,1.248,0,0,1,1.248,1.248" transform="translate(-15.132 -24.055)" fill="#003273"/>
          <path id="Path_322844" data-name="Path 322844" d="M150.375,236.077a1.248,1.248,0,1,1-1.248-1.248,1.248,1.248,0,0,1,1.248,1.248" transform="translate(-15.828 -25.134)" fill="#003273"/>
          <path id="Path_322845" data-name="Path 322845" d="M153.625,236.077a1.248,1.248,0,1,1-1.248-1.248,1.248,1.248,0,0,1,1.248,1.248" transform="translate(-16.176 -25.134)" fill="#003273"/>
          <path id="Path_322846" data-name="Path 322846" d="M148.683,137.862H134.315v-7.944h14.368Zm-11.689-2.679H146V132.6h-9.01Z" transform="translate(-14.376 -13.905)" fill="#003273"/>
          <path id="Path_322847" data-name="Path 322847" d="M151.949,160.764H130.162V135.815h21.787Zm-19.109-2.679h16.429V138.494H132.84Z" transform="translate(-13.932 -14.537)" fill="#003273"/>
          <path id="Path_322848" data-name="Path 322848" d="M148.173,157.246H134.965v-7.808h13.208Zm-10.529-2.679h7.85v-2.45h-7.85Z" transform="translate(-14.446 -15.995)" fill="#003273"/>
          <path id="Path_322849" data-name="Path 322849" d="M178.31,137.862H163.941v-7.944H178.31Zm-11.69-2.679h9.011V132.6H166.62Z" transform="translate(-17.547 -13.905)" fill="#003273"/>
          <path id="Path_322850" data-name="Path 322850" d="M181.576,160.764H159.789V135.815h21.787Zm-19.109-2.679H178.9V138.494H162.467Z" transform="translate(-17.103 -14.537)" fill="#003273"/>
          <path id="Path_322851" data-name="Path 322851" d="M177.8,157.246H164.592v-7.808H177.8Zm-10.528-2.679h7.849v-2.45h-7.849Z" transform="translate(-17.617 -15.995)" fill="#003273"/>
          <path id="Path_322852" data-name="Path 322852" d="M275.277,137.862H260.909v-7.944h14.368Zm-11.689-2.679h9.01V132.6h-9.01Z" transform="translate(-27.926 -13.905)" fill="#003273"/>
          <path id="Path_322853" data-name="Path 322853" d="M278.542,160.764H256.755V135.815h21.787Zm-19.108-2.679h16.429V138.494H259.434Z" transform="translate(-27.481 -14.537)" fill="#003273"/>
          <path id="Path_322854" data-name="Path 322854" d="M274.767,157.246H261.559v-7.808h13.208Zm-10.529-2.679h7.85v-2.45h-7.85Z" transform="translate(-27.995 -15.995)" fill="#003273"/>
          <path id="Path_322855" data-name="Path 322855" d="M302.183,137.862H287.814v-7.944h14.369Zm-11.69-2.679H299.5V132.6h-9.011Z" transform="translate(-30.806 -13.905)" fill="#003273"/>
          <path id="Path_322856" data-name="Path 322856" d="M305.448,160.764H283.662V135.815h21.786Zm-19.108-2.679h16.428V138.494H286.34Z" transform="translate(-30.361 -14.537)" fill="#003273"/>
          <path id="Path_322857" data-name="Path 322857" d="M301.672,157.246H288.465v-7.808h13.207Zm-10.528-2.679h7.849v-2.45h-7.849Z" transform="translate(-30.875 -15.995)" fill="#003273"/>
          <path id="Path_322858" data-name="Path 322858" d="M115.241,182H101.933a4.606,4.606,0,1,1,0-9.212h13.308a4.606,4.606,0,1,1,0,9.212m-13.308-6.533a1.927,1.927,0,0,0,0,3.854h13.308a1.927,1.927,0,1,0,0-3.854Z" transform="translate(-10.417 -18.494)" fill="#003273"/>
          <path id="Path_322859" data-name="Path 322859" d="M115.241,189.343H101.933a4.606,4.606,0,0,1,0-9.213h13.308a4.606,4.606,0,1,1,0,9.213m-13.308-6.534a1.927,1.927,0,0,0,0,3.855h13.308a1.927,1.927,0,1,0,0-3.855Z" transform="translate(-10.417 -19.28)" fill="#003273"/>
          <path id="Path_322860" data-name="Path 322860" d="M115.241,197.223H101.933a4.606,4.606,0,0,1,0-9.212h13.308a4.606,4.606,0,1,1,0,9.212m-13.308-6.533a1.927,1.927,0,1,0,0,3.854h13.308a1.927,1.927,0,1,0,0-3.854Z" transform="translate(-10.417 -20.123)" fill="#003273"/>
          <path id="Path_322861" data-name="Path 322861" d="M115.241,204.566H101.933a4.606,4.606,0,0,1,0-9.213h13.308a4.606,4.606,0,1,1,0,9.213m-13.308-6.534a1.927,1.927,0,0,0,0,3.855h13.308a1.927,1.927,0,1,0,0-3.855Z" transform="translate(-10.417 -20.909)" fill="#003273"/>
          <path id="Path_322862" data-name="Path 322862" d="M143.13,182H129.822a4.606,4.606,0,0,1,0-9.212H143.13a4.606,4.606,0,1,1,0,9.212m-13.308-6.533a1.927,1.927,0,0,0,0,3.854H143.13a1.927,1.927,0,1,0,0-3.854Z" transform="translate(-13.402 -18.494)" fill="#003273"/>
          <path id="Path_322863" data-name="Path 322863" d="M143.13,189.343H129.822a4.606,4.606,0,0,1,0-9.213H143.13a4.606,4.606,0,1,1,0,9.213m-13.308-6.534a1.927,1.927,0,0,0,0,3.855H143.13a1.927,1.927,0,1,0,0-3.855Z" transform="translate(-13.402 -19.28)" fill="#003273"/>
          <path id="Path_322864" data-name="Path 322864" d="M143.13,197.223H129.822a4.606,4.606,0,0,1,0-9.212H143.13a4.606,4.606,0,1,1,0,9.212m-13.308-6.533a1.927,1.927,0,0,0,0,3.854H143.13a1.927,1.927,0,1,0,0-3.854Z" transform="translate(-13.402 -20.123)" fill="#003273"/>
          <path id="Path_322865" data-name="Path 322865" d="M143.13,204.566H129.822a4.606,4.606,0,0,1,0-9.213H143.13a4.606,4.606,0,1,1,0,9.213m-13.308-6.534a1.927,1.927,0,0,0,0,3.855H143.13a1.927,1.927,0,1,0,0-3.855Z" transform="translate(-13.402 -20.909)" fill="#003273"/>
          <path id="Path_322866" data-name="Path 322866" d="M165.083,262.623H150.2c-2.748,0-4.985-1.191-4.985-2.655s2.237-2.654,4.985-2.654h14.883c2.749,0,4.984,1.19,4.984,2.654s-2.235,2.655-4.984,2.655M150.2,258.731c-1.281,0-2.324.555-2.324,1.237s1.043,1.238,2.324,1.238h14.883c1.281,0,2.323-.555,2.323-1.238s-1.042-1.237-2.323-1.237Z" transform="translate(-15.543 -27.541)" fill="#003273"/>
          <path id="Path_322867" data-name="Path 322867" d="M165.083,267H150.2c-2.748,0-4.985-1.19-4.985-2.654s2.237-2.655,4.985-2.655h14.883c2.749,0,4.984,1.191,4.984,2.655S167.831,267,165.083,267M150.2,263.105c-1.281,0-2.324.555-2.324,1.238s1.043,1.237,2.324,1.237h14.883c1.281,0,2.323-.555,2.323-1.237s-1.042-1.238-2.323-1.238Z" transform="translate(-15.543 -28.009)" fill="#003273"/>
          <path id="Path_322868" data-name="Path 322868" d="M165.083,271.69H150.2c-2.748,0-4.985-1.19-4.985-2.654s2.237-2.655,4.985-2.655h14.883c2.749,0,4.984,1.191,4.984,2.655s-2.235,2.654-4.984,2.654M150.2,267.8c-1.281,0-2.324.555-2.324,1.238s1.043,1.237,2.324,1.237h14.883c1.281,0,2.323-.555,2.323-1.237s-1.042-1.238-2.323-1.238Z" transform="translate(-15.543 -28.511)" fill="#003273"/>
          <path id="Path_322869" data-name="Path 322869" d="M165.083,276.064H150.2c-2.748,0-4.985-1.191-4.985-2.655s2.237-2.654,4.985-2.654h14.883c2.749,0,4.984,1.19,4.984,2.654s-2.235,2.655-4.984,2.655M150.2,272.172c-1.281,0-2.324.554-2.324,1.237s1.043,1.238,2.324,1.238h14.883c1.281,0,2.323-.555,2.323-1.238s-1.042-1.237-2.323-1.237Z" transform="translate(-15.543 -28.98)" fill="#003273"/>
          <path id="Path_322870" data-name="Path 322870" d="M188.409,262.623h-8.578a2.663,2.663,0,1,1,0-5.309h8.578a2.663,2.663,0,1,1,0,5.309m-8.578-3.892a1.241,1.241,0,1,0,0,2.474h8.578a1.241,1.241,0,1,0,0-2.474Z" transform="translate(-18.94 -27.541)" fill="#003273"/>
          <path id="Path_322871" data-name="Path 322871" d="M188.409,267h-8.578a2.663,2.663,0,1,1,0-5.309h8.578a2.663,2.663,0,1,1,0,5.309m-8.578-3.892a1.241,1.241,0,1,0,0,2.474h8.578a1.241,1.241,0,1,0,0-2.474Z" transform="translate(-18.94 -28.009)" fill="#003273"/>
          <path id="Path_322872" data-name="Path 322872" d="M188.409,271.69h-8.578a2.663,2.663,0,1,1,0-5.309h8.578a2.663,2.663,0,1,1,0,5.309m-8.578-3.891a1.241,1.241,0,1,0,0,2.474h8.578a1.241,1.241,0,1,0,0-2.474Z" transform="translate(-18.94 -28.511)" fill="#003273"/>
          <path id="Path_322873" data-name="Path 322873" d="M188.409,276.064h-8.578a2.663,2.663,0,1,1,0-5.309h8.578a2.663,2.663,0,1,1,0,5.309m-8.578-3.892a1.241,1.241,0,1,0,0,2.474h8.578a1.241,1.241,0,1,0,0-2.474Z" transform="translate(-18.94 -28.98)" fill="#003273"/>
          <path id="Path_322874" data-name="Path 322874" d="M200.2,287.039h-8.578a2.663,2.663,0,1,1,0-5.309H200.2a2.663,2.663,0,1,1,0,5.309m-8.578-3.892a1.241,1.241,0,1,0,0,2.474H200.2a1.241,1.241,0,1,0,0-2.474Z" transform="translate(-20.202 -30.154)" fill="#003273"/>
          <path id="Path_322875" data-name="Path 322875" d="M200.2,291.733h-8.578a2.663,2.663,0,1,1,0-5.309H200.2a2.663,2.663,0,1,1,0,5.309m-8.578-3.891a1.241,1.241,0,1,0,0,2.474H200.2a1.241,1.241,0,1,0,0-2.474Z" transform="translate(-20.202 -30.657)" fill="#003273"/>
          <path id="Path_322876" data-name="Path 322876" d="M200.2,296.107h-8.578a2.663,2.663,0,1,1,0-5.309H200.2a2.663,2.663,0,1,1,0,5.309m-8.578-3.892a1.241,1.241,0,1,0,0,2.474H200.2a1.241,1.241,0,1,0,0-2.474Z" transform="translate(-20.202 -31.125)" fill="#003273"/>
          <path id="Path_322877" data-name="Path 322877" d="M218.543,287.039h-8.578a2.663,2.663,0,1,1,0-5.309h8.578a2.663,2.663,0,1,1,0,5.309m-8.578-3.892a1.241,1.241,0,1,0,0,2.474h8.578a1.241,1.241,0,1,0,0-2.474Z" transform="translate(-22.166 -30.154)" fill="#003273"/>
          <path id="Path_322878" data-name="Path 322878" d="M218.543,291.733h-8.578a2.663,2.663,0,1,1,0-5.309h8.578a2.663,2.663,0,1,1,0,5.309m-8.578-3.891a1.241,1.241,0,1,0,0,2.474h8.578a1.241,1.241,0,1,0,0-2.474Z" transform="translate(-22.166 -30.657)" fill="#003273"/>
          <path id="Path_322879" data-name="Path 322879" d="M218.543,296.107h-8.578a2.663,2.663,0,1,1,0-5.309h8.578a2.663,2.663,0,1,1,0,5.309m-8.578-3.892a1.241,1.241,0,1,0,0,2.474h8.578a1.241,1.241,0,1,0,0-2.474Z" transform="translate(-22.166 -31.125)" fill="#003273"/>
          <path id="Path_322880" data-name="Path 322880" d="M171.925,189.343H158.618a4.606,4.606,0,1,1,0-9.213h13.307a4.606,4.606,0,1,1,0,9.213m-13.307-6.534a1.927,1.927,0,1,0,0,3.855h13.307a1.927,1.927,0,1,0,0-3.855Z" transform="translate(-16.484 -19.28)" fill="#003273"/>
          <path id="Path_322881" data-name="Path 322881" d="M171.925,197.223H158.618a4.606,4.606,0,1,1,0-9.212h13.307a4.606,4.606,0,1,1,0,9.212m-13.307-6.533a1.927,1.927,0,1,0,0,3.854h13.307a1.927,1.927,0,1,0,0-3.854Z" transform="translate(-16.484 -20.123)" fill="#003273"/>
          <path id="Path_322882" data-name="Path 322882" d="M171.925,204.566H158.618a4.606,4.606,0,1,1,0-9.213h13.307a4.606,4.606,0,1,1,0,9.213m-13.307-6.534a1.927,1.927,0,1,0,0,3.855h13.307a1.927,1.927,0,1,0,0-3.855Z" transform="translate(-16.484 -20.909)" fill="#003273"/>
          <path id="Path_322883" data-name="Path 322883" d="M212.77,181.391h-.455c-4.1,0-7.788-5.955-9.524-10.016a6.291,6.291,0,0,1-4.129-4.361,4.6,4.6,0,0,1,.838-4.26,11.416,11.416,0,0,1,.1-9.1,7.213,7.213,0,0,1,3.8-3.442,5.957,5.957,0,0,1,3.392-4.334,14.834,14.834,0,0,1,15.232,1.857c2.3,1.9,5.713,6.437,3.392,15.023a5.108,5.108,0,0,1,.682,4.27,5.361,5.361,0,0,1-2.777,3.4c-1.446,5.635-6.551,10.962-10.552,10.962m-.359-2.873h.173c2.208.264,7.12-4.324,8-9.369a1.4,1.4,0,0,1,1.047-1.143,2.443,2.443,0,0,0,1.625-1.734,2.213,2.213,0,0,0-.5-2.191,1.445,1.445,0,0,1-.342-1.429c1.712-5.619.91-10.016-2.276-12.719A12.178,12.178,0,0,0,208.1,148.37a2.988,2.988,0,0,0-1.9,2.732,1.448,1.448,0,0,1-1.07,1.484,4.408,4.408,0,0,0-2.961,2.326,9.661,9.661,0,0,0,.35,7.712,1.42,1.42,0,0,1-.455,1.658,1.752,1.752,0,0,0-.628,2.017,3.375,3.375,0,0,0,2.572,2.435,1.362,1.362,0,0,1,1.142.874c2.017,4.876,5.313,8.931,7.285,8.914Z" transform="translate(-21.242 -15.474)" fill="#003173"/>
          <path id="Path_322884" data-name="Path 322884" d="M201.384,165.457a1.43,1.43,0,0,1-.971-2.513c.456-.4.934-.719,1.366-1.047a7.916,7.916,0,0,0,3.642-5.007,1.549,1.549,0,0,1,.569-.761,13.037,13.037,0,0,1,12.747-.551,10.558,10.558,0,0,1,6.436,8.322,1.418,1.418,0,1,1-2.824.26,7.736,7.736,0,0,0-4.78-6,10.4,10.4,0,0,0-9.523,0,10.372,10.372,0,0,1-4.557,6.073,13.846,13.846,0,0,0-1.215.911,1.316,1.316,0,0,1-.91.322Z" transform="translate(-21.398 -16.502)" fill="#003173"/>
          <path id="Path_322885" data-name="Path 322885" d="M191.985,225.316a1.181,1.181,0,0,1-.574-.132,8.423,8.423,0,0,0-6.109,0,1.448,1.448,0,0,1-1.334-.228,1.479,1.479,0,0,1-.551-1.161l1.33-21.961c.269-4.493,1.029-9.023,4.816-11.785l16.065-10.016a1.435,1.435,0,0,1,1.507,2.436l-15.97,9.96c-2.591,1.9-3.316,5.2-3.56,9.524l-1.22,19.994a10.386,10.386,0,0,1,6.15.578,1.429,1.429,0,0,1-.551,2.732Z" transform="translate(-19.632 -19.251)" fill="#003173"/>
          <path id="Path_322886" data-name="Path 322886" d="M186.25,239.851a1.448,1.448,0,0,1-1.431-1.425v-8.859a1.43,1.43,0,1,1,2.859,0v8.855A1.433,1.433,0,0,1,186.25,239.851Z" transform="translate(-19.782 -24.418)" fill="#003173"/>
          <path id="Path_322887" data-name="Path 322887" d="M233.183,225.989a1.363,1.363,0,0,1-1.161-.592,1.4,1.4,0,0,1,.322-1.9,10.418,10.418,0,0,1,7.617-1.2l-1.2-20.031c-.169-4.379-.933-7.788-3.613-9.732l-15.9-9.888a1.385,1.385,0,1,1,1.448-2.363l16,9.979c3.81,2.817,4.648,7.353,4.894,11.836l1.333,21.956a1.391,1.391,0,0,1-.554,1.229,1.485,1.485,0,0,1-1.311.228,9.106,9.106,0,0,0-7.083.3,1.417,1.417,0,0,1-.783.173Z" transform="translate(-23.396 -19.274)" fill="#003173"/>
          <path id="Path_322888" data-name="Path 322888" d="M242.72,240a1.43,1.43,0,0,1-1.43-1.43v-8.873a1.43,1.43,0,1,1,2.859,0v8.855a1.412,1.412,0,0,1-1.365,1.443h-.05Z" transform="translate(-25.826 -24.432)" fill="#003173"/>
          <path id="Path_322889" data-name="Path 322889" d="M234.721,239.964a1.408,1.408,0,0,1-1.425-1.389v-8.74a1.43,1.43,0,0,1,2.85-.231c0,.023,0,.046,0,.071a1.2,1.2,0,0,1,0,.161v8.7a1.433,1.433,0,0,1-1.429,1.429" transform="translate(-24.97 -24.434)" fill="#003173"/>
          <path id="Path_322890" data-name="Path 322890" d="M193.012,231v-6.892l.61-33.628,8.089-4.8,1.907,41A10.152,10.152,0,0,0,193.012,231" transform="translate(-20.659 -19.874)" fill="#e64b16"/>
          <path id="Path_322891" data-name="Path 322891" d="M192.839,232.26a1.848,1.848,0,0,1-.455,0,1.43,1.43,0,0,1-.988-1.366v-6.958l.61-33.687a1.464,1.464,0,0,1,.7-1.2l8.09-4.766a1.443,1.443,0,0,1,1.411,0,1.391,1.391,0,0,1,.742,1.179l2.016,41a1.426,1.426,0,0,1-1.347,1.5,1.454,1.454,0,0,1-.312-.017,8.7,8.7,0,0,0-9.31,3.81,1.439,1.439,0,0,1-1.159.507m2-41.149L194.25,227.3a11.06,11.06,0,0,1,7.762-2.349l-1.821-37.016Z" transform="translate(-20.486 -19.704)" fill="#003173"/>
          <path id="Path_322892" data-name="Path 322892" d="M203.248,193.99a6.789,6.789,0,0,1,5.271-2.4" transform="translate(-21.754 -20.506)" fill="#e64b16"/>
          <path id="Path_322893" data-name="Path 322893" d="M203.071,195.25a1.429,1.429,0,0,1-1.429-1.425,1.411,1.411,0,0,1,.5-1.088,8.168,8.168,0,0,1,6.287-2.732,1.411,1.411,0,0,1,1.366,1.455h0v.047a1.5,1.5,0,0,1-1.5,1.364c-1.675-.095-2.526.555-4.264,2.058a1.449,1.449,0,0,1-.954.319" transform="translate(-21.582 -20.337)" fill="#003173"/>
          <path id="Path_322894" data-name="Path 322894" d="M213.068,195.378a1.549,1.549,0,0,1-.911-.305,13.34,13.34,0,0,1-5.513-12.282,1.444,1.444,0,0,1,1.506-1.366,1.406,1.406,0,0,1,1.33,1.48h0v.022a10.266,10.266,0,0,0,3.606,9.164c3.369-2.836,4.476-5.6,3.578-8.855a1.39,1.39,0,0,1,.383-1.406,1.43,1.43,0,0,1,1.411-.346l4.476,1.393a1.411,1.411,0,0,1,.97,1.12l1.9,9.229a1.424,1.424,0,0,1-.741,1.561,1.366,1.366,0,0,1-1.694-.287,6.758,6.758,0,0,0-5.713-2.495,2.3,2.3,0,0,1-.5,0,18.866,18.866,0,0,1-3.351,3.14,1.317,1.317,0,0,1-.742.232Zm5.918-6.246a8.6,8.6,0,0,1,3.237.91l-.956-4.678-1.466-.455a9.226,9.226,0,0,1-.792,4.225Z" transform="translate(-22.109 -19.418)" fill="#003173"/>
          <path id="Path_322895" data-name="Path 322895" d="M213.677,233.331a1.411,1.411,0,0,1-1.43-1.393V231.9c0-4.608,0-9.023.113-13.326.1-8.114.21-15.77-.113-23.217a1.429,1.429,0,0,1,2.817-.131c.342,7.616.228,15.231.132,23.4,0,4.284-.113,8.706-.113,13.329a1.426,1.426,0,0,1-1.406,1.371" transform="translate(-22.717 -20.775)" fill="#003173"/>
          <path id="Path_322896" data-name="Path 322896" d="M201.384,165.656a1.43,1.43,0,0,1-.971-2.513,12.552,12.552,0,0,1,1.9-1.262c1.753-1.088,3-1.907,3.106-4.438a1.429,1.429,0,1,1,2.858.027.461.461,0,0,1,0,.087,7.615,7.615,0,0,1-4.475,6.77,13.337,13.337,0,0,0-1.524,1.02,1.308,1.308,0,0,1-.912.323Z" transform="translate(-21.398 -16.7)" fill="#003173"/>
          <path id="Path_322897" data-name="Path 322897" d="M337.281,324a77.158,77.158,0,0,1-18.885-2.292.983.983,0,0,1-.7-.688c-3.067-10.99-3.177-20.527-.337-29.15a.98.98,0,0,1,.931-.675H358.6a.98.98,0,0,1,.941.706c2.238,7.674,2.282,15.436.135,24.382.978,1.111,1.977,2.586,1.409,3.891-.6,1.373-2.455,1.559-3.852,1.563A92.327,92.327,0,0,1,337.281,324m-17.854-4.057c11.669,2.842,24.275,2.794,37.479-.145.071-.014.143-.006.217-.022,1.843.03,2.156-.383,2.158-.388s.1-.551-1.4-2.159a.982.982,0,0,1-.237-.907c2.118-8.536,2.188-15.919.21-23.165H319c-2.447,7.923-2.307,16.7.427,26.786Z" transform="translate(-33.748 -31.168)" fill="#003173"/>
          <path id="Path_322898" data-name="Path 322898" d="M359.421,292.771H317.351a2.6,2.6,0,0,1-.012-5.208h42.081a2.6,2.6,0,0,1,.012,5.208Zm-42.07-3.247a.643.643,0,0,0,0,1.286h42.07a.643.643,0,0,0,0-1.286Z" transform="translate(-33.688 -30.779)" fill="#003173"/>
          <path id="Path_322899" data-name="Path 322899" d="M359.421,289.136H317.352a2.6,2.6,0,1,1,0-5.21h42.069a2.6,2.6,0,1,1,0,5.21Zm-42.07-3.249a.643.643,0,1,0,0,1.287h42.07a.643.643,0,0,0,0-1.287Z" transform="translate(-33.688 -30.389)" fill="#003173"/>
          <path id="Path_322900" data-name="Path 322900" d="M354.549,284.373a.977.977,0,0,1-.813-.43c-5.634-8.306-10.15-12.068-14.647-12.2-4.629-.139-9.8,3.758-16.29,12.242a.981.981,0,0,1-1.557-1.193c7-9.15,12.519-13.12,17.9-13.01,5.191.147,10.191,4.175,16.214,13.056a.979.979,0,0,1-.811,1.529Z" transform="translate(-34.362 -28.876)" fill="#003173"/>
          <path id="Path_322901" data-name="Path 322901" d="M336.36,276.83a.813.813,0,1,1-.813.813.814.814,0,0,1,.813-.813" transform="translate(-35.915 -29.63)" fill="#e64b16"/>
          <path id="Path_322902" data-name="Path 322902" d="M332.7,280.408a.814.814,0,1,1-.813.813.814.814,0,0,1,.813-.813" transform="translate(-35.523 -30.013)" fill="#e64b16"/>
          <path id="Path_322903" data-name="Path 322903" d="M340.936,275.994a.813.813,0,1,1-.814.813.814.814,0,0,1,.814-.813" transform="translate(-36.404 -29.54)" fill="#e64b16"/>
          <path id="Path_322904" data-name="Path 322904" d="M339.114,273.2a.813.813,0,1,1-.813.813.814.814,0,0,1,.813-.813" transform="translate(-36.209 -29.241)" fill="#e64b16"/>
          <path id="Path_322905" data-name="Path 322905" d="M343.674,274.108a.813.813,0,1,1-.813.813.814.814,0,0,1,.813-.813" transform="translate(-36.697 -29.339)" fill="#e64b16"/>
          <path id="Path_322906" data-name="Path 322906" d="M345.5,277.741a.814.814,0,1,1-.814.813.814.814,0,0,1,.814-.813" transform="translate(-36.892 -29.727)" fill="#e64b16"/>
          <path id="Path_322907" data-name="Path 322907" d="M342.764,280.408a.814.814,0,1,1-.813.813.814.814,0,0,1,.813-.813" transform="translate(-36.6 -30.013)" fill="#e64b16"/>
          <path id="Path_322908" data-name="Path 322908" d="M349.114,280.495a.814.814,0,1,1-.813.813.814.814,0,0,1,.813-.813" transform="translate(-37.28 -30.022)" fill="#e64b16"/>
          <path id="Path_322909" data-name="Path 322909" d="M338.27,280.495a.814.814,0,1,1-.814.813.814.814,0,0,1,.814-.813" transform="translate(-36.119 -30.022)" fill="#e64b16"/>
          <path id="Path_322910" data-name="Path 322910" d="M342.836,318.356h-7.521a11.423,11.423,0,0,1-.026-22.847h7.547a11.423,11.423,0,0,1,0,22.847m-7.521-20.886a9.462,9.462,0,1,0,0,18.924h7.521a9.462,9.462,0,1,0,0-18.924Z" transform="translate(-34.666 -31.629)" fill="#003173"/>
          <path id="Path_322911" data-name="Path 322911" d="M305.967,315.855h0c-3.074-9.468-3.231-17.707-.48-25.145h11.835c.135-.63.281-1.246.443-1.84v0H304.684l-.015,0H303.7a.614.614,0,1,1,0-1.207h14.421q.3-.951.638-1.841H303.7a.614.614,0,1,1,0-1.208h15.552q.415-.956.874-1.84h-9.67c6.651-6.937,12.056-10.133,16.927-10.011a11.2,11.2,0,0,1,1.437.137c.776-.536,1.532-1,2.251-1.4a14.051,14.051,0,0,0-3.625-.578c-5.965-.1-12.083,3.526-19.791,11.852H303.7a2.719,2.719,0,0,0-2.928,2.445,2.191,2.191,0,0,0,.653,1.522,2.193,2.193,0,0,0-.658,1.532,2.62,2.62,0,0,0,2.441,2.4c-2.739,7.787-2.477,16.372.806,26.2a1.036,1.036,0,0,0,.793.646,102.676,102.676,0,0,0,14.906,1.965c-.188-.634-.371-1.262-.541-1.881a97.886,97.886,0,0,1-13.206-1.741" transform="translate(-32.192 -28.997)" fill="#003173"/>
          <path id="Path_322912" data-name="Path 322912" d="M321.492,277.532a.764.764,0,1,0,0,1.527.782.782,0,0,0,.455-.146q.147-.214.3-.423a.74.74,0,0,0,.029-.195.772.772,0,0,0-.78-.763" transform="translate(-34.327 -29.705)" fill="#e64b16"/>
          <path id="Path_322913" data-name="Path 322913" d="M317.982,280.89a.764.764,0,1,0,.78.763.772.772,0,0,0-.78-.763" transform="translate(-33.951 -30.064)" fill="#e64b16"/>
          <path id="Path_322914" data-name="Path 322914" d="M324.132,274.121a.764.764,0,1,0,.78.764.772.772,0,0,0-.78-.764" transform="translate(-34.609 -29.34)" fill="#e64b16"/>
          <path id="Path_322915" data-name="Path 322915" d="M309.526,305.948a10.728,10.728,0,0,0,6.936,9.958q-.212-1.126-.388-2.214a8.773,8.773,0,0,1-.891-14.949q.075-1.179.2-2.293a10.692,10.692,0,0,0-5.854,9.5" transform="translate(-33.129 -31.73)" fill="#003173"/>
          <path id="Path_322916" data-name="Path 322916" d="M360.1,135.4H349.644a2.286,2.286,0,0,1-2.286-2.285V116.748a2.286,2.286,0,0,1,2.286-2.286H360.1a2.285,2.285,0,0,1,2.285,2.286v16.368A2.285,2.285,0,0,1,360.1,135.4" transform="translate(-37.179 -12.251)" fill="#fff"/>
          <path id="Path_322917" data-name="Path 322917" d="M359.989,136.187H349.537a3.182,3.182,0,0,1-3.179-3.178V116.641a3.182,3.182,0,0,1,3.179-3.178h10.452a3.182,3.182,0,0,1,3.179,3.178v16.368a3.182,3.182,0,0,1-3.179,3.178m-10.452-20.938a1.394,1.394,0,0,0-1.393,1.392v16.368a1.394,1.394,0,0,0,1.393,1.392h10.452a1.394,1.394,0,0,0,1.393-1.392V116.641a1.394,1.394,0,0,0-1.393-1.392Z" transform="translate(-37.072 -12.144)" fill="#003273"/>
          <path id="Path_322918" data-name="Path 322918" d="M355.305,129.487a3.753,3.753,0,1,1,3.884-3.75,3.823,3.823,0,0,1-3.884,3.75m0-5.715a1.969,1.969,0,1,0,2.1,1.965,2.037,2.037,0,0,0-2.1-1.965" transform="translate(-37.614 -13.056)" fill="#003273"/>
          <path id="Path_322919" data-name="Path 322919" d="M359.131,119.667h-7.879a.893.893,0,1,1,0-1.786h7.879a.893.893,0,1,1,0,1.786" transform="translate(-37.5 -12.617)" fill="#003273"/>
          <path id="Path_322920" data-name="Path 322920" d="M359.131,134.754h-7.879a.893.893,0,1,1,0-1.786h7.879a.893.893,0,1,1,0,1.786" transform="translate(-37.5 -14.232)" fill="#003273"/>
          <path id="Path_322921" data-name="Path 322921" d="M360.1,159.3H349.644a2.286,2.286,0,0,1-2.286-2.285V140.647a2.286,2.286,0,0,1,2.286-2.286H360.1a2.285,2.285,0,0,1,2.285,2.286v16.368A2.285,2.285,0,0,1,360.1,159.3" transform="translate(-37.179 -14.809)" fill="#fff"/>
          <path id="Path_322922" data-name="Path 322922" d="M359.989,160.086H349.537a3.182,3.182,0,0,1-3.179-3.178V140.54a3.183,3.183,0,0,1,3.179-3.179h10.452a3.183,3.183,0,0,1,3.179,3.179v16.368a3.182,3.182,0,0,1-3.179,3.178m-10.452-20.939a1.394,1.394,0,0,0-1.393,1.393v16.368a1.394,1.394,0,0,0,1.393,1.392h10.452a1.394,1.394,0,0,0,1.393-1.392V140.54a1.394,1.394,0,0,0-1.393-1.393Z" transform="translate(-37.072 -14.702)" fill="#003273"/>
          <path id="Path_322923" data-name="Path 322923" d="M355.305,153.387a3.753,3.753,0,1,1,3.884-3.75,3.823,3.823,0,0,1-3.884,3.75m0-5.715a1.969,1.969,0,1,0,2.1,1.965,2.037,2.037,0,0,0-2.1-1.965" transform="translate(-37.614 -15.615)" fill="#003273"/>
          <path id="Path_322924" data-name="Path 322924" d="M359.131,143.566h-7.879a.893.893,0,1,1,0-1.786h7.879a.893.893,0,1,1,0,1.786" transform="translate(-37.5 -15.175)" fill="#003273"/>
          <path id="Path_322925" data-name="Path 322925" d="M359.131,158.652h-7.879a.893.893,0,1,1,0-1.786h7.879a.893.893,0,1,1,0,1.786" transform="translate(-37.5 -16.79)" fill="#003273"/>
          <path id="Path_322926" data-name="Path 322926" d="M360.1,182.565H349.644a2.286,2.286,0,0,1-2.286-2.285V163.912a2.286,2.286,0,0,1,2.286-2.286H360.1a2.285,2.285,0,0,1,2.285,2.286V180.28a2.285,2.285,0,0,1-2.285,2.285" transform="translate(-37.179 -17.299)" fill="#fff"/>
          <path id="Path_322927" data-name="Path 322927" d="M359.989,183.351H349.537a3.182,3.182,0,0,1-3.179-3.178V163.8a3.183,3.183,0,0,1,3.179-3.179h10.452a3.183,3.183,0,0,1,3.179,3.179v16.368a3.182,3.182,0,0,1-3.179,3.178m-10.452-20.939a1.394,1.394,0,0,0-1.393,1.393v16.368a1.394,1.394,0,0,0,1.393,1.392h10.452a1.394,1.394,0,0,0,1.393-1.392V163.8a1.394,1.394,0,0,0-1.393-1.393Z" transform="translate(-37.072 -17.192)" fill="#003273"/>
          <path id="Path_322928" data-name="Path 322928" d="M355.305,176.651a3.753,3.753,0,1,1,3.884-3.75,3.823,3.823,0,0,1-3.884,3.75m0-5.715a1.969,1.969,0,1,0,2.1,1.965,2.036,2.036,0,0,0-2.1-1.965" transform="translate(-37.614 -18.105)" fill="#003273"/>
          <path id="Path_322929" data-name="Path 322929" d="M359.131,166.831h-7.879a.893.893,0,1,1,0-1.786h7.879a.893.893,0,1,1,0,1.786" transform="translate(-37.5 -17.665)" fill="#003273"/>
          <path id="Path_322930" data-name="Path 322930" d="M359.131,181.917h-7.879a.893.893,0,1,1,0-1.786h7.879a.893.893,0,1,1,0,1.786" transform="translate(-37.5 -19.28)" fill="#003273"/>
          <path id="Path_322931" data-name="Path 322931" d="M360.1,206.464H349.644a2.286,2.286,0,0,1-2.286-2.285V187.811a2.286,2.286,0,0,1,2.286-2.286H360.1a2.285,2.285,0,0,1,2.285,2.286v16.368a2.285,2.285,0,0,1-2.285,2.285" transform="translate(-37.179 -19.857)" fill="#fff"/>
          <path id="Path_322932" data-name="Path 322932" d="M359.989,207.249H349.537a3.182,3.182,0,0,1-3.179-3.178V187.7a3.183,3.183,0,0,1,3.179-3.179h10.452a3.183,3.183,0,0,1,3.179,3.179v16.367a3.182,3.182,0,0,1-3.179,3.178m-10.452-20.938a1.394,1.394,0,0,0-1.393,1.393v16.367a1.394,1.394,0,0,0,1.393,1.392h10.452a1.394,1.394,0,0,0,1.393-1.392V187.7a1.394,1.394,0,0,0-1.393-1.393Z" transform="translate(-37.072 -19.75)" fill="#003273"/>
          <path id="Path_322933" data-name="Path 322933" d="M355.305,200.55a3.752,3.752,0,1,1,3.884-3.75,3.822,3.822,0,0,1-3.884,3.75m0-5.714a1.968,1.968,0,1,0,2.1,1.965,2.037,2.037,0,0,0-2.1-1.965" transform="translate(-37.614 -20.663)" fill="#003273"/>
          <path id="Path_322934" data-name="Path 322934" d="M359.131,190.729h-7.879a.893.893,0,1,1,0-1.786h7.879a.893.893,0,1,1,0,1.786" transform="translate(-37.5 -20.223)" fill="#003273"/>
          <path id="Path_322935" data-name="Path 322935" d="M359.131,205.816h-7.879a.893.893,0,1,1,0-1.786h7.879a.893.893,0,1,1,0,1.786" transform="translate(-37.5 -21.838)" fill="#003273"/>
          <path id="Path_322936" data-name="Path 322936" d="M360.1,229.729H349.644a2.286,2.286,0,0,1-2.286-2.285V211.076a2.286,2.286,0,0,1,2.286-2.286H360.1a2.285,2.285,0,0,1,2.285,2.286v16.368a2.285,2.285,0,0,1-2.285,2.285" transform="translate(-37.179 -22.347)" fill="#fff"/>
          <path id="Path_322937" data-name="Path 322937" d="M359.989,230.514H349.537a3.182,3.182,0,0,1-3.179-3.177V210.969a3.183,3.183,0,0,1,3.179-3.179h10.452a3.183,3.183,0,0,1,3.179,3.179v16.368a3.182,3.182,0,0,1-3.179,3.177m-10.452-20.938a1.394,1.394,0,0,0-1.393,1.393v16.368a1.394,1.394,0,0,0,1.393,1.391h10.452a1.394,1.394,0,0,0,1.393-1.391V210.969a1.394,1.394,0,0,0-1.393-1.393Z" transform="translate(-37.072 -22.24)" fill="#003273"/>
          <path id="Path_322938" data-name="Path 322938" d="M355.305,223.814a3.752,3.752,0,1,1,3.884-3.75,3.822,3.822,0,0,1-3.884,3.75m0-5.714a1.968,1.968,0,1,0,2.1,1.965,2.036,2.036,0,0,0-2.1-1.965" transform="translate(-37.614 -23.153)" fill="#003273"/>
          <path id="Path_322939" data-name="Path 322939" d="M359.131,213.994h-7.879a.893.893,0,1,1,0-1.786h7.879a.893.893,0,1,1,0,1.786" transform="translate(-37.5 -22.713)" fill="#003273"/>
          <path id="Path_322940" data-name="Path 322940" d="M359.131,229.081h-7.879a.893.893,0,1,1,0-1.786h7.879a.893.893,0,1,1,0,1.786" transform="translate(-37.5 -24.328)" fill="#003273"/>
          <path id="Path_322941" data-name="Path 322941" d="M360.1,253.628H349.644a2.286,2.286,0,0,1-2.286-2.285V234.975a2.286,2.286,0,0,1,2.286-2.286H360.1a2.285,2.285,0,0,1,2.285,2.286v16.368a2.285,2.285,0,0,1-2.285,2.285" transform="translate(-37.179 -24.905)" fill="#fff"/>
          <path id="Path_322942" data-name="Path 322942" d="M359.989,254.413H349.537a3.182,3.182,0,0,1-3.179-3.178V234.868a3.183,3.183,0,0,1,3.179-3.179h10.452a3.183,3.183,0,0,1,3.179,3.179v16.367a3.182,3.182,0,0,1-3.179,3.178m-10.452-20.938a1.394,1.394,0,0,0-1.393,1.393v16.367a1.394,1.394,0,0,0,1.393,1.392h10.452a1.394,1.394,0,0,0,1.393-1.392V234.868a1.394,1.394,0,0,0-1.393-1.393Z" transform="translate(-37.072 -24.798)" fill="#003273"/>
          <path id="Path_322943" data-name="Path 322943" d="M355.305,247.714a3.752,3.752,0,1,1,3.884-3.75,3.823,3.823,0,0,1-3.884,3.75m0-5.714a1.968,1.968,0,1,0,2.1,1.964,2.036,2.036,0,0,0-2.1-1.964" transform="translate(-37.614 -25.711)" fill="#003273"/>
          <path id="Path_322944" data-name="Path 322944" d="M359.131,237.893h-7.879a.893.893,0,1,1,0-1.786h7.879a.893.893,0,1,1,0,1.786" transform="translate(-37.5 -25.271)" fill="#003273"/>
          <path id="Path_322945" data-name="Path 322945" d="M359.131,252.98h-7.879a.893.893,0,1,1,0-1.786h7.879a.893.893,0,1,1,0,1.786" transform="translate(-37.5 -26.886)" fill="#003273"/>
          <path id="Path_322946" data-name="Path 322946" d="M340.37,135.4H329.918a2.286,2.286,0,0,1-2.286-2.285V116.748a2.286,2.286,0,0,1,2.286-2.286H340.37a2.285,2.285,0,0,1,2.285,2.286v16.368a2.285,2.285,0,0,1-2.285,2.285" transform="translate(-35.067 -12.251)" fill="#fff"/>
          <path id="Path_322947" data-name="Path 322947" d="M340.263,136.187H329.811a3.182,3.182,0,0,1-3.179-3.178V116.641a3.182,3.182,0,0,1,3.179-3.178h10.452a3.182,3.182,0,0,1,3.179,3.178v16.368a3.182,3.182,0,0,1-3.179,3.178m-10.452-20.938a1.394,1.394,0,0,0-1.393,1.392v16.368a1.394,1.394,0,0,0,1.393,1.392h10.452a1.394,1.394,0,0,0,1.393-1.392V116.641a1.394,1.394,0,0,0-1.393-1.392Z" transform="translate(-34.96 -12.144)" fill="#003273"/>
          <path id="Path_322948" data-name="Path 322948" d="M335.579,129.487a3.753,3.753,0,1,1,3.884-3.75,3.824,3.824,0,0,1-3.884,3.75m0-5.715a1.969,1.969,0,1,0,2.1,1.965,2.038,2.038,0,0,0-2.1-1.965" transform="translate(-35.502 -13.056)" fill="#003273"/>
          <path id="Path_322949" data-name="Path 322949" d="M339.405,119.667h-7.88a.893.893,0,0,1,0-1.786h7.88a.893.893,0,0,1,0,1.786" transform="translate(-35.389 -12.617)" fill="#003273"/>
          <path id="Path_322950" data-name="Path 322950" d="M339.405,134.754h-7.88a.893.893,0,0,1,0-1.786h7.88a.893.893,0,0,1,0,1.786" transform="translate(-35.389 -14.232)" fill="#003273"/>
          <path id="Path_322951" data-name="Path 322951" d="M340.37,159.3H329.918a2.286,2.286,0,0,1-2.286-2.285V140.647a2.286,2.286,0,0,1,2.286-2.286H340.37a2.285,2.285,0,0,1,2.285,2.286v16.368a2.285,2.285,0,0,1-2.285,2.285" transform="translate(-35.067 -14.809)" fill="#fff"/>
          <path id="Path_322952" data-name="Path 322952" d="M340.263,160.086H329.811a3.182,3.182,0,0,1-3.179-3.178V140.54a3.183,3.183,0,0,1,3.179-3.179h10.452a3.183,3.183,0,0,1,3.179,3.179v16.368a3.182,3.182,0,0,1-3.179,3.178m-10.452-20.939a1.394,1.394,0,0,0-1.393,1.393v16.368a1.394,1.394,0,0,0,1.393,1.392h10.452a1.394,1.394,0,0,0,1.393-1.392V140.54a1.394,1.394,0,0,0-1.393-1.393Z" transform="translate(-34.96 -14.702)" fill="#003273"/>
          <path id="Path_322953" data-name="Path 322953" d="M335.579,153.387a3.753,3.753,0,1,1,3.884-3.75,3.824,3.824,0,0,1-3.884,3.75m0-5.715a1.969,1.969,0,1,0,2.1,1.965,2.038,2.038,0,0,0-2.1-1.965" transform="translate(-35.502 -15.615)" fill="#003273"/>
          <path id="Path_322954" data-name="Path 322954" d="M339.405,143.566h-7.88a.893.893,0,0,1,0-1.786h7.88a.893.893,0,0,1,0,1.786" transform="translate(-35.389 -15.175)" fill="#003273"/>
          <path id="Path_322955" data-name="Path 322955" d="M339.405,158.652h-7.88a.893.893,0,1,1,0-1.786h7.88a.893.893,0,0,1,0,1.786" transform="translate(-35.389 -16.79)" fill="#003273"/>
          <path id="Path_322956" data-name="Path 322956" d="M340.37,182.565H329.918a2.286,2.286,0,0,1-2.286-2.285V163.912a2.286,2.286,0,0,1,2.286-2.286H340.37a2.285,2.285,0,0,1,2.285,2.286V180.28a2.285,2.285,0,0,1-2.285,2.285" transform="translate(-35.067 -17.299)" fill="#fff"/>
          <path id="Path_322957" data-name="Path 322957" d="M340.263,183.351H329.811a3.182,3.182,0,0,1-3.179-3.178V163.8a3.183,3.183,0,0,1,3.179-3.179h10.452a3.183,3.183,0,0,1,3.179,3.179v16.368a3.182,3.182,0,0,1-3.179,3.178m-10.452-20.939a1.394,1.394,0,0,0-1.393,1.393v16.368a1.394,1.394,0,0,0,1.393,1.392h10.452a1.394,1.394,0,0,0,1.393-1.392V163.8a1.394,1.394,0,0,0-1.393-1.393Z" transform="translate(-34.96 -17.192)" fill="#003273"/>
          <path id="Path_322958" data-name="Path 322958" d="M335.579,176.651a3.753,3.753,0,1,1,3.884-3.75,3.824,3.824,0,0,1-3.884,3.75m0-5.715a1.969,1.969,0,1,0,2.1,1.965,2.038,2.038,0,0,0-2.1-1.965" transform="translate(-35.502 -18.105)" fill="#003273"/>
          <path id="Path_322959" data-name="Path 322959" d="M339.405,166.831h-7.88a.893.893,0,0,1,0-1.786h7.88a.893.893,0,0,1,0,1.786" transform="translate(-35.389 -17.665)" fill="#003273"/>
          <path id="Path_322960" data-name="Path 322960" d="M339.405,181.917h-7.88a.893.893,0,0,1,0-1.786h7.88a.893.893,0,0,1,0,1.786" transform="translate(-35.389 -19.28)" fill="#003273"/>
          <path id="Path_322961" data-name="Path 322961" d="M340.37,206.464H329.918a2.286,2.286,0,0,1-2.286-2.285V187.811a2.286,2.286,0,0,1,2.286-2.286H340.37a2.285,2.285,0,0,1,2.285,2.286v16.368a2.285,2.285,0,0,1-2.285,2.285" transform="translate(-35.067 -19.857)" fill="#fff"/>
          <path id="Path_322962" data-name="Path 322962" d="M340.263,207.249H329.811a3.182,3.182,0,0,1-3.179-3.178V187.7a3.183,3.183,0,0,1,3.179-3.179h10.452a3.183,3.183,0,0,1,3.179,3.179v16.367a3.182,3.182,0,0,1-3.179,3.178m-10.452-20.938a1.394,1.394,0,0,0-1.393,1.393v16.367a1.394,1.394,0,0,0,1.393,1.392h10.452a1.394,1.394,0,0,0,1.393-1.392V187.7a1.394,1.394,0,0,0-1.393-1.393Z" transform="translate(-34.96 -19.75)" fill="#003273"/>
          <path id="Path_322963" data-name="Path 322963" d="M335.579,200.55a3.752,3.752,0,1,1,3.884-3.75,3.824,3.824,0,0,1-3.884,3.75m0-5.714a1.968,1.968,0,1,0,2.1,1.965,2.038,2.038,0,0,0-2.1-1.965" transform="translate(-35.502 -20.663)" fill="#003273"/>
          <path id="Path_322964" data-name="Path 322964" d="M339.405,190.729h-7.88a.893.893,0,1,1,0-1.786h7.88a.893.893,0,0,1,0,1.786" transform="translate(-35.389 -20.223)" fill="#003273"/>
          <path id="Path_322965" data-name="Path 322965" d="M339.405,205.816h-7.88a.893.893,0,0,1,0-1.786h7.88a.893.893,0,0,1,0,1.786" transform="translate(-35.389 -21.838)" fill="#003273"/>
          <path id="Path_322966" data-name="Path 322966" d="M340.37,229.729H329.918a2.286,2.286,0,0,1-2.286-2.285V211.076a2.286,2.286,0,0,1,2.286-2.286H340.37a2.285,2.285,0,0,1,2.285,2.286v16.368a2.285,2.285,0,0,1-2.285,2.285" transform="translate(-35.067 -22.347)" fill="#fff"/>
          <path id="Path_322967" data-name="Path 322967" d="M340.263,230.514H329.811a3.182,3.182,0,0,1-3.179-3.177V210.969a3.182,3.182,0,0,1,3.179-3.179h10.452a3.183,3.183,0,0,1,3.179,3.179v16.368a3.182,3.182,0,0,1-3.179,3.177m-10.452-20.938a1.394,1.394,0,0,0-1.393,1.393v16.368a1.394,1.394,0,0,0,1.393,1.391h10.452a1.394,1.394,0,0,0,1.393-1.391V210.969a1.394,1.394,0,0,0-1.393-1.393Z" transform="translate(-34.96 -22.24)" fill="#003273"/>
          <path id="Path_322968" data-name="Path 322968" d="M335.579,223.814a3.752,3.752,0,1,1,3.884-3.75,3.824,3.824,0,0,1-3.884,3.75m0-5.714a1.968,1.968,0,1,0,2.1,1.965,2.038,2.038,0,0,0-2.1-1.965" transform="translate(-35.502 -23.153)" fill="#003273"/>
          <path id="Path_322969" data-name="Path 322969" d="M339.405,213.994h-7.88a.893.893,0,0,1,0-1.786h7.88a.893.893,0,0,1,0,1.786" transform="translate(-35.389 -22.713)" fill="#003273"/>
          <path id="Path_322970" data-name="Path 322970" d="M339.405,229.081h-7.88a.893.893,0,0,1,0-1.786h7.88a.893.893,0,0,1,0,1.786" transform="translate(-35.389 -24.328)" fill="#003273"/>
          <path id="Path_322971" data-name="Path 322971" d="M340.37,253.628H329.918a2.286,2.286,0,0,1-2.286-2.285V234.975a2.286,2.286,0,0,1,2.286-2.286H340.37a2.285,2.285,0,0,1,2.285,2.286v16.368a2.285,2.285,0,0,1-2.285,2.285" transform="translate(-35.067 -24.905)" fill="#fff"/>
          <path id="Path_322972" data-name="Path 322972" d="M340.263,254.413H329.811a3.182,3.182,0,0,1-3.179-3.178V234.868a3.182,3.182,0,0,1,3.179-3.179h10.452a3.183,3.183,0,0,1,3.179,3.179v16.367a3.182,3.182,0,0,1-3.179,3.178m-10.452-20.938a1.394,1.394,0,0,0-1.393,1.393v16.367a1.394,1.394,0,0,0,1.393,1.392h10.452a1.394,1.394,0,0,0,1.393-1.392V234.868a1.394,1.394,0,0,0-1.393-1.393Z" transform="translate(-34.96 -24.798)" fill="#003273"/>
          <path id="Path_322973" data-name="Path 322973" d="M335.579,247.714a3.752,3.752,0,1,1,3.884-3.75,3.824,3.824,0,0,1-3.884,3.75m0-5.714a1.968,1.968,0,1,0,2.1,1.964,2.037,2.037,0,0,0-2.1-1.964" transform="translate(-35.502 -25.711)" fill="#003273"/>
          <path id="Path_322974" data-name="Path 322974" d="M339.405,237.893h-7.88a.893.893,0,0,1,0-1.786h7.88a.893.893,0,0,1,0,1.786" transform="translate(-35.389 -25.271)" fill="#003273"/>
          <path id="Path_322975" data-name="Path 322975" d="M339.405,252.98h-7.88a.893.893,0,0,1,0-1.786h7.88a.893.893,0,0,1,0,1.786" transform="translate(-35.389 -26.886)" fill="#003273"/>
          <path id="Path_322976" data-name="Path 322976" d="M321.06,135.4H310.608a2.286,2.286,0,0,1-2.286-2.285V116.748a2.286,2.286,0,0,1,2.286-2.286H321.06a2.285,2.285,0,0,1,2.285,2.286v16.368a2.285,2.285,0,0,1-2.285,2.285" transform="translate(-33.001 -12.251)" fill="#fff"/>
          <path id="Path_322977" data-name="Path 322977" d="M320.953,136.187H310.5a3.182,3.182,0,0,1-3.179-3.178V116.641a3.182,3.182,0,0,1,3.179-3.178h10.452a3.182,3.182,0,0,1,3.179,3.178v16.368a3.182,3.182,0,0,1-3.179,3.178M310.5,115.249a1.394,1.394,0,0,0-1.393,1.392v16.368A1.394,1.394,0,0,0,310.5,134.4h10.452a1.394,1.394,0,0,0,1.393-1.392V116.641a1.394,1.394,0,0,0-1.393-1.392Z" transform="translate(-32.894 -12.144)" fill="#003273"/>
          <path id="Path_322978" data-name="Path 322978" d="M316.268,129.487a3.753,3.753,0,1,1,3.884-3.75,3.823,3.823,0,0,1-3.884,3.75m0-5.715a1.969,1.969,0,1,0,2.1,1.965,2.037,2.037,0,0,0-2.1-1.965" transform="translate(-33.435 -13.056)" fill="#003273"/>
          <path id="Path_322979" data-name="Path 322979" d="M320.1,119.667h-7.88a.893.893,0,0,1,0-1.786h7.88a.893.893,0,0,1,0,1.786" transform="translate(-33.322 -12.617)" fill="#003273"/>
          <path id="Path_322980" data-name="Path 322980" d="M320.1,134.754h-7.88a.893.893,0,0,1,0-1.786h7.88a.893.893,0,0,1,0,1.786" transform="translate(-33.322 -14.232)" fill="#003273"/>
          <path id="Path_322981" data-name="Path 322981" d="M321.06,159.3H310.608a2.286,2.286,0,0,1-2.286-2.285V140.647a2.286,2.286,0,0,1,2.286-2.286H321.06a2.285,2.285,0,0,1,2.285,2.286v16.368a2.285,2.285,0,0,1-2.285,2.285" transform="translate(-33.001 -14.809)" fill="#fff"/>
          <path id="Path_322982" data-name="Path 322982" d="M320.953,160.086H310.5a3.182,3.182,0,0,1-3.179-3.178V140.54a3.183,3.183,0,0,1,3.179-3.179h10.452a3.182,3.182,0,0,1,3.179,3.179v16.368a3.182,3.182,0,0,1-3.179,3.178M310.5,139.147a1.394,1.394,0,0,0-1.393,1.393v16.368A1.394,1.394,0,0,0,310.5,158.3h10.452a1.394,1.394,0,0,0,1.393-1.392V140.54a1.394,1.394,0,0,0-1.393-1.393Z" transform="translate(-32.894 -14.702)" fill="#003273"/>
          <path id="Path_322983" data-name="Path 322983" d="M316.268,153.387a3.753,3.753,0,1,1,3.884-3.75,3.823,3.823,0,0,1-3.884,3.75m0-5.715a1.969,1.969,0,1,0,2.1,1.965,2.037,2.037,0,0,0-2.1-1.965" transform="translate(-33.435 -15.615)" fill="#003273"/>
          <path id="Path_322984" data-name="Path 322984" d="M320.1,143.566h-7.88a.893.893,0,0,1,0-1.786h7.88a.893.893,0,0,1,0,1.786" transform="translate(-33.322 -15.175)" fill="#003273"/>
          <path id="Path_322985" data-name="Path 322985" d="M320.1,158.652h-7.88a.893.893,0,1,1,0-1.786h7.88a.893.893,0,0,1,0,1.786" transform="translate(-33.322 -16.79)" fill="#003273"/>
          <path id="Path_322986" data-name="Path 322986" d="M321.06,182.565H310.608a2.286,2.286,0,0,1-2.286-2.285V163.912a2.286,2.286,0,0,1,2.286-2.286H321.06a2.285,2.285,0,0,1,2.285,2.286V180.28a2.285,2.285,0,0,1-2.285,2.285" transform="translate(-33.001 -17.299)" fill="#fff"/>
          <path id="Path_322987" data-name="Path 322987" d="M320.953,183.351H310.5a3.182,3.182,0,0,1-3.179-3.178V163.8a3.183,3.183,0,0,1,3.179-3.179h10.452a3.182,3.182,0,0,1,3.179,3.179v16.368a3.182,3.182,0,0,1-3.179,3.178M310.5,162.412a1.394,1.394,0,0,0-1.393,1.393v16.368a1.394,1.394,0,0,0,1.393,1.392h10.452a1.394,1.394,0,0,0,1.393-1.392V163.8a1.394,1.394,0,0,0-1.393-1.393Z" transform="translate(-32.894 -17.192)" fill="#003273"/>
          <path id="Path_322988" data-name="Path 322988" d="M316.268,176.651a3.753,3.753,0,1,1,3.884-3.75,3.823,3.823,0,0,1-3.884,3.75m0-5.715a1.969,1.969,0,1,0,2.1,1.965,2.037,2.037,0,0,0-2.1-1.965" transform="translate(-33.435 -18.105)" fill="#003273"/>
          <path id="Path_322989" data-name="Path 322989" d="M320.1,166.831h-7.88a.893.893,0,0,1,0-1.786h7.88a.893.893,0,0,1,0,1.786" transform="translate(-33.322 -17.665)" fill="#003273"/>
          <path id="Path_322990" data-name="Path 322990" d="M320.1,181.917h-7.88a.893.893,0,0,1,0-1.786h7.88a.893.893,0,0,1,0,1.786" transform="translate(-33.322 -19.28)" fill="#003273"/>
          <path id="Path_322991" data-name="Path 322991" d="M321.06,206.464H310.608a2.286,2.286,0,0,1-2.286-2.285V187.811a2.286,2.286,0,0,1,2.286-2.286H321.06a2.285,2.285,0,0,1,2.285,2.286v16.368a2.285,2.285,0,0,1-2.285,2.285" transform="translate(-33.001 -19.857)" fill="#fff"/>
          <path id="Path_322992" data-name="Path 322992" d="M320.953,207.249H310.5a3.182,3.182,0,0,1-3.179-3.178V187.7a3.183,3.183,0,0,1,3.179-3.179h10.452a3.182,3.182,0,0,1,3.179,3.179v16.367a3.182,3.182,0,0,1-3.179,3.178M310.5,186.311a1.394,1.394,0,0,0-1.393,1.393v16.367a1.394,1.394,0,0,0,1.393,1.392h10.452a1.394,1.394,0,0,0,1.393-1.392V187.7a1.394,1.394,0,0,0-1.393-1.393Z" transform="translate(-32.894 -19.75)" fill="#003273"/>
          <path id="Path_322993" data-name="Path 322993" d="M316.268,200.55a3.752,3.752,0,1,1,3.884-3.75,3.823,3.823,0,0,1-3.884,3.75m0-5.714a1.968,1.968,0,1,0,2.1,1.965,2.037,2.037,0,0,0-2.1-1.965" transform="translate(-33.435 -20.663)" fill="#003273"/>
          <path id="Path_322994" data-name="Path 322994" d="M320.1,190.729h-7.88a.893.893,0,1,1,0-1.786h7.88a.893.893,0,0,1,0,1.786" transform="translate(-33.322 -20.223)" fill="#003273"/>
          <path id="Path_322995" data-name="Path 322995" d="M320.1,205.816h-7.88a.893.893,0,0,1,0-1.786h7.88a.893.893,0,0,1,0,1.786" transform="translate(-33.322 -21.838)" fill="#003273"/>
          <path id="Path_322996" data-name="Path 322996" d="M321.06,229.729H310.608a2.286,2.286,0,0,1-2.286-2.285V211.076a2.286,2.286,0,0,1,2.286-2.286H321.06a2.285,2.285,0,0,1,2.285,2.286v16.368a2.285,2.285,0,0,1-2.285,2.285" transform="translate(-33.001 -22.347)" fill="#fff"/>
          <path id="Path_322997" data-name="Path 322997" d="M320.953,230.514H310.5a3.182,3.182,0,0,1-3.179-3.177V210.969a3.183,3.183,0,0,1,3.179-3.179h10.452a3.182,3.182,0,0,1,3.179,3.179v16.368a3.182,3.182,0,0,1-3.179,3.177M310.5,209.576a1.394,1.394,0,0,0-1.393,1.393v16.368a1.394,1.394,0,0,0,1.393,1.391h10.452a1.394,1.394,0,0,0,1.393-1.391V210.969a1.394,1.394,0,0,0-1.393-1.393Z" transform="translate(-32.894 -22.24)" fill="#003273"/>
          <path id="Path_322998" data-name="Path 322998" d="M316.268,223.814a3.752,3.752,0,1,1,3.884-3.75,3.823,3.823,0,0,1-3.884,3.75m0-5.714a1.968,1.968,0,1,0,2.1,1.965,2.037,2.037,0,0,0-2.1-1.965" transform="translate(-33.435 -23.153)" fill="#003273"/>
          <path id="Path_322999" data-name="Path 322999" d="M320.1,213.994h-7.88a.893.893,0,0,1,0-1.786h7.88a.893.893,0,0,1,0,1.786" transform="translate(-33.322 -22.713)" fill="#003273"/>
          <path id="Path_323000" data-name="Path 323000" d="M320.1,229.081h-7.88a.893.893,0,0,1,0-1.786h7.88a.893.893,0,0,1,0,1.786" transform="translate(-33.322 -24.328)" fill="#003273"/>
          <path id="Path_323001" data-name="Path 323001" d="M108.876,294.122h-4.924a2.286,2.286,0,0,1-2.286-2.285v-8.663a2.286,2.286,0,0,1,2.286-2.286h4.924a2.285,2.285,0,0,1,2.285,2.286v8.663a2.285,2.285,0,0,1-2.285,2.285" transform="translate(-10.882 -30.064)" fill="#fff"/>
          <path id="Path_323002" data-name="Path 323002" d="M109.819,294.564h-6.929a1.786,1.786,0,0,1-1.784-1.784V282.111a1.786,1.786,0,0,1,1.784-1.783h6.929a1.786,1.786,0,0,1,1.784,1.783v10.668a1.786,1.786,0,0,1-1.784,1.784m-6.929-13.234a.782.782,0,0,0-.781.781v10.668a.782.782,0,0,0,.781.781h6.929a.782.782,0,0,0,.781-.781V282.111a.782.782,0,0,0-.781-.781Z" transform="translate(-10.822 -30.004)" fill="#003273"/>
          <path id="Path_323003" data-name="Path 323003" d="M106.7,290.329a2.309,2.309,0,1,1,2.392-2.307,2.353,2.353,0,0,1-2.392,2.307m0-3.611a1.307,1.307,0,1,0,1.389,1.3,1.351,1.351,0,0,0-1.389-1.3" transform="translate(-11.164 -30.581)" fill="#003273"/>
          <path id="Path_323004" data-name="Path 323004" d="M109.115,284.122h-4.98a.5.5,0,1,1,0-1h4.98a.5.5,0,1,1,0,1" transform="translate(-11.092 -30.303)" fill="#003273"/>
          <path id="Path_323005" data-name="Path 323005" d="M109.115,293.657h-4.98a.5.5,0,0,1,0-1h4.98a.5.5,0,0,1,0,1" transform="translate(-11.092 -31.324)" fill="#003273"/>
          <path id="Path_323006" data-name="Path 323006" d="M121.194,294.122H116.27a2.286,2.286,0,0,1-2.286-2.285v-8.663a2.286,2.286,0,0,1,2.286-2.286h4.924a2.285,2.285,0,0,1,2.285,2.286v8.663a2.285,2.285,0,0,1-2.285,2.285" transform="translate(-12.2 -30.064)" fill="#fff"/>
          <path id="Path_323007" data-name="Path 323007" d="M122.137,294.564h-6.929a1.786,1.786,0,0,1-1.784-1.784V282.111a1.786,1.786,0,0,1,1.784-1.783h6.929a1.786,1.786,0,0,1,1.784,1.783v10.668a1.786,1.786,0,0,1-1.784,1.784m-6.929-13.234a.782.782,0,0,0-.781.781v10.668a.782.782,0,0,0,.781.781h6.929a.782.782,0,0,0,.781-.781V282.111a.782.782,0,0,0-.781-.781Z" transform="translate(-12.14 -30.004)" fill="#003273"/>
          <path id="Path_323008" data-name="Path 323008" d="M119.014,290.329a2.309,2.309,0,1,1,2.392-2.307,2.353,2.353,0,0,1-2.392,2.307m0-3.611a1.307,1.307,0,1,0,1.389,1.3,1.351,1.351,0,0,0-1.389-1.3" transform="translate(-12.482 -30.581)" fill="#003273"/>
          <path id="Path_323009" data-name="Path 323009" d="M121.433,284.122h-4.98a.5.5,0,1,1,0-1h4.98a.5.5,0,1,1,0,1" transform="translate(-12.411 -30.303)" fill="#003273"/>
          <path id="Path_323010" data-name="Path 323010" d="M121.433,293.657h-4.98a.5.5,0,1,1,0-1h4.98a.5.5,0,1,1,0,1" transform="translate(-12.411 -31.324)" fill="#003273"/>
          <path id="Path_323011" data-name="Path 323011" d="M133.512,294.122h-4.924a2.286,2.286,0,0,1-2.286-2.285v-8.663a2.286,2.286,0,0,1,2.286-2.286h4.924a2.285,2.285,0,0,1,2.285,2.286v8.663a2.285,2.285,0,0,1-2.285,2.285" transform="translate(-13.518 -30.064)" fill="#fff"/>
          <path id="Path_323012" data-name="Path 323012" d="M134.455,294.563h-6.929a1.786,1.786,0,0,1-1.784-1.783V282.111a1.786,1.786,0,0,1,1.784-1.783h6.929a1.786,1.786,0,0,1,1.784,1.783v10.668a1.786,1.786,0,0,1-1.784,1.783m-6.929-13.233a.782.782,0,0,0-.781.781v10.668a.782.782,0,0,0,.781.781h6.929a.782.782,0,0,0,.781-.781V282.111a.782.782,0,0,0-.781-.781Z" transform="translate(-13.458 -30.004)" fill="#003273"/>
          <path id="Path_323013" data-name="Path 323013" d="M131.332,290.329a2.309,2.309,0,1,1,2.392-2.307,2.354,2.354,0,0,1-2.392,2.307m0-3.612a1.307,1.307,0,1,0,1.389,1.3,1.351,1.351,0,0,0-1.389-1.3" transform="translate(-13.801 -30.581)" fill="#003273"/>
          <path id="Path_323014" data-name="Path 323014" d="M133.751,284.122h-4.98a.5.5,0,0,1,0-1h4.98a.5.5,0,1,1,0,1" transform="translate(-13.729 -30.303)" fill="#003273"/>
          <path id="Path_323015" data-name="Path 323015" d="M133.751,293.657h-4.98a.5.5,0,0,1,0-1h4.98a.5.5,0,0,1,0,1" transform="translate(-13.729 -31.324)" fill="#003273"/>
          <path id="Path_323016" data-name="Path 323016" d="M145.831,294.122h-4.925a2.286,2.286,0,0,1-2.286-2.285v-8.663a2.286,2.286,0,0,1,2.286-2.286h4.925a2.285,2.285,0,0,1,2.284,2.286v8.663a2.285,2.285,0,0,1-2.284,2.285" transform="translate(-14.837 -30.064)" fill="#fff"/>
          <path id="Path_323017" data-name="Path 323017" d="M146.773,294.563h-6.929a1.786,1.786,0,0,1-1.784-1.783V282.111a1.786,1.786,0,0,1,1.784-1.783h6.929a1.786,1.786,0,0,1,1.784,1.783v10.668a1.786,1.786,0,0,1-1.784,1.783m-6.929-13.233a.782.782,0,0,0-.781.781v10.668a.782.782,0,0,0,.781.781h6.929a.782.782,0,0,0,.781-.781V282.111a.782.782,0,0,0-.781-.781Z" transform="translate(-14.777 -30.004)" fill="#003273"/>
          <path id="Path_323018" data-name="Path 323018" d="M143.65,290.329a2.309,2.309,0,1,1,2.392-2.307,2.354,2.354,0,0,1-2.392,2.307m0-3.612a1.307,1.307,0,1,0,1.389,1.3,1.351,1.351,0,0,0-1.389-1.3" transform="translate(-15.119 -30.581)" fill="#003273"/>
          <path id="Path_323019" data-name="Path 323019" d="M146.069,284.122h-4.98a.5.5,0,0,1,0-1h4.98a.5.5,0,1,1,0,1" transform="translate(-15.048 -30.303)" fill="#003273"/>
          <path id="Path_323020" data-name="Path 323020" d="M146.069,293.657h-4.98a.5.5,0,0,1,0-1h4.98a.5.5,0,1,1,0,1" transform="translate(-15.048 -31.324)" fill="#003273"/>
          <path id="Path_323021" data-name="Path 323021" d="M158.149,294.122h-4.924a2.286,2.286,0,0,1-2.286-2.285v-8.663a2.286,2.286,0,0,1,2.286-2.286h4.924a2.285,2.285,0,0,1,2.285,2.286v8.663a2.285,2.285,0,0,1-2.285,2.285" transform="translate(-16.155 -30.064)" fill="#fff"/>
          <path id="Path_323022" data-name="Path 323022" d="M159.091,294.563h-6.929a1.785,1.785,0,0,1-1.784-1.783V282.111a1.785,1.785,0,0,1,1.784-1.783h6.929a1.785,1.785,0,0,1,1.784,1.783v10.668a1.785,1.785,0,0,1-1.784,1.783m-6.929-13.233a.782.782,0,0,0-.781.781v10.668a.782.782,0,0,0,.781.781h6.929a.782.782,0,0,0,.781-.781V282.111a.782.782,0,0,0-.781-.781Z" transform="translate(-16.095 -30.004)" fill="#003273"/>
          <path id="Path_323023" data-name="Path 323023" d="M155.968,290.329a2.309,2.309,0,1,1,2.392-2.307,2.354,2.354,0,0,1-2.392,2.307m0-3.612a1.307,1.307,0,1,0,1.389,1.3,1.351,1.351,0,0,0-1.389-1.3" transform="translate(-16.438 -30.581)" fill="#003273"/>
          <path id="Path_323024" data-name="Path 323024" d="M158.387,284.123h-4.98a.5.5,0,1,1,0-1h4.98a.5.5,0,0,1,0,1" transform="translate(-16.366 -30.303)" fill="#003273"/>
          <path id="Path_323025" data-name="Path 323025" d="M158.387,293.657h-4.98a.5.5,0,1,1,0-1h4.98a.5.5,0,0,1,0,1" transform="translate(-16.366 -31.324)" fill="#003273"/>
          <path id="Path_323026" data-name="Path 323026" d="M112.791,274.237h-7.86V263.948h7.86Zm-6.073-1.786h4.288v-6.717h-4.288Z" transform="translate(-11.231 -28.251)" fill="#003273"/>
          <path id="Path_323027" data-name="Path 323027" d="M111.366,264.462h-4.621v-4.823h4.621Zm-2.835-1.786h1.049v-1.251h-1.049Z" transform="translate(-11.425 -27.79)" fill="#003273"/>
          <path id="Path_323028" data-name="Path 323028" d="M122.39,274.237h-7.86V263.948h7.86Zm-6.074-1.786H120.6v-6.717h-4.288Z" transform="translate(-12.258 -28.251)" fill="#003273"/>
          <path id="Path_323029" data-name="Path 323029" d="M120.965,264.462h-4.621v-4.823h4.621Zm-2.835-1.786h1.049v-1.251H118.13Z" transform="translate(-12.453 -27.79)" fill="#003273"/>
          <path id="Path_323030" data-name="Path 323030" d="M131.837,274.237h-7.86V263.948h7.86Zm-6.073-1.786h4.288v-6.717h-4.288Z" transform="translate(-13.27 -28.251)" fill="#003273"/>
          <path id="Path_323031" data-name="Path 323031" d="M130.412,264.462h-4.621v-4.823h4.621Zm-2.835-1.786h1.049v-1.251h-1.049Z" transform="translate(-13.464 -27.79)" fill="#003273"/>
          <path id="Path_323032" data-name="Path 323032" d="M141.436,274.237h-7.86V263.948h7.86Zm-6.074-1.786h4.288v-6.717h-4.288Z" transform="translate(-14.297 -28.251)" fill="#003273"/>
          <path id="Path_323033" data-name="Path 323033" d="M140.01,264.462h-4.621v-4.823h4.621Zm-2.834-1.786h1.049v-1.251h-1.049Z" transform="translate(-14.491 -27.79)" fill="#003273"/>
          <path id="Path_323034" data-name="Path 323034" d="M117.553,319.13h-7.86V308.841h7.86Zm-6.074-1.786h4.288v-6.717h-4.288Z" transform="translate(-11.741 -33.056)" fill="#003273"/>
          <path id="Path_323035" data-name="Path 323035" d="M116.128,309.356h-4.621v-4.823h4.621Zm-2.835-1.786h1.049v-1.251h-1.049Z" transform="translate(-11.935 -32.595)" fill="#003273"/>
          <path id="Path_323036" data-name="Path 323036" d="M127.152,319.13h-7.86V308.841h7.86Zm-6.074-1.786h4.288v-6.717h-4.288Z" transform="translate(-12.768 -33.056)" fill="#003273"/>
          <path id="Path_323037" data-name="Path 323037" d="M125.725,309.356H121.1v-4.823h4.62Zm-2.834-1.786h1.048v-1.251h-1.048Z" transform="translate(-12.962 -32.595)" fill="#003273"/>
          <path id="Path_323038" data-name="Path 323038" d="M136.6,319.13h-7.86V308.841h7.86Zm-6.074-1.786h4.288v-6.717h-4.288Z" transform="translate(-13.779 -33.056)" fill="#003273"/>
          <path id="Path_323039" data-name="Path 323039" d="M135.173,309.356h-4.62v-4.823h4.62Zm-2.834-1.786h1.048v-1.251h-1.048Z" transform="translate(-13.973 -32.595)" fill="#003273"/>
          <path id="Path_323040" data-name="Path 323040" d="M146.2,319.13h-7.861V308.841H146.2Zm-6.075-1.786h4.289v-6.717h-4.289Z" transform="translate(-14.807 -33.056)" fill="#003273"/>
          <path id="Path_323041" data-name="Path 323041" d="M144.771,309.356h-4.62v-4.823h4.62Zm-2.834-1.786h1.048v-1.251h-1.048Z" transform="translate(-15.001 -32.595)" fill="#003273"/>
          <path id="Path_323042" data-name="Path 323042" d="M204.846,274.237h-7.86V263.948h7.86Zm-6.074-1.786h4.288v-6.717h-4.288Z" transform="translate(-21.084 -28.251)" fill="#003273"/>
          <path id="Path_323043" data-name="Path 323043" d="M203.421,264.462H198.8v-4.823h4.621Zm-2.835-1.786h1.049v-1.251h-1.049Z" transform="translate(-21.278 -27.79)" fill="#003273"/>
          <path id="Path_323044" data-name="Path 323044" d="M214.445,274.237h-7.86V263.948h7.86Zm-6.074-1.786h4.288v-6.717h-4.288Z" transform="translate(-22.111 -28.251)" fill="#003273"/>
          <path id="Path_323045" data-name="Path 323045" d="M213.018,264.462H208.4v-4.823h4.62Zm-2.834-1.786h1.048v-1.251h-1.048Z" transform="translate(-22.305 -27.79)" fill="#003273"/>
          <path id="Path_323046" data-name="Path 323046" d="M223.892,274.237h-7.86V263.948h7.86Zm-6.074-1.786h4.288v-6.717h-4.288Z" transform="translate(-23.123 -28.251)" fill="#003273"/>
          <path id="Path_323047" data-name="Path 323047" d="M222.466,264.462h-4.62v-4.823h4.62Zm-2.834-1.786h1.048v-1.251h-1.048Z" transform="translate(-23.317 -27.79)" fill="#003273"/>
          <path id="Path_323048" data-name="Path 323048" d="M233.491,274.237H225.63V263.948h7.861Zm-6.075-1.786H231.7v-6.717h-4.289Z" transform="translate(-24.15 -28.251)" fill="#003273"/>
          <path id="Path_323049" data-name="Path 323049" d="M232.064,264.462h-4.62v-4.823h4.62Zm-2.834-1.786h1.048v-1.251H229.23Z" transform="translate(-24.344 -27.79)" fill="#003273"/>
          <path id="Path_323050" data-name="Path 323050" d="M187.322,305.231h-8.558v-4.649h8.558Zm-7.111-1.447h5.663V302.03h-5.663Z" transform="translate(-19.134 -32.172)" fill="#003273"/>
          <path id="Path_323051" data-name="Path 323051" d="M189.308,319.163h-13.07V304.168h13.07Zm-11.623-1.448h10.176v-12.1H177.685Z" transform="translate(-18.863 -32.556)" fill="#003273"/>
          <path id="Path_323052" data-name="Path 323052" d="M187.012,317.022h-7.851v-4.567h7.851Zm-6.4-1.447h4.957V313.9h-4.957Z" transform="translate(-19.176 -33.443)" fill="#003273"/>
          <path id="Path_323053" data-name="Path 323053" d="M204.252,305.231h-8.558v-4.649h8.558Zm-7.111-1.447H202.8V302.03h-5.663Z" transform="translate(-20.946 -32.172)" fill="#003273"/>
          <path id="Path_323054" data-name="Path 323054" d="M206.238,319.163h-13.07V304.168h13.07Zm-11.624-1.448h10.176v-12.1H194.615Z" transform="translate(-20.675 -32.556)" fill="#003273"/>
          <path id="Path_323055" data-name="Path 323055" d="M203.941,317.022H196.09v-4.567h7.851Zm-6.4-1.447h4.957V313.9h-4.957Z" transform="translate(-20.988 -33.443)" fill="#003273"/>
          <path id="Path_323056" data-name="Path 323056" d="M221.182,305.231h-8.558v-4.649h8.558Zm-7.112-1.447h5.663V302.03h-5.663Z" transform="translate(-22.758 -32.172)" fill="#003273"/>
          <path id="Path_323057" data-name="Path 323057" d="M223.167,319.163H210.1V304.168h13.07Zm-11.623-1.448h10.176v-12.1H211.544Z" transform="translate(-22.487 -32.556)" fill="#003273"/>
          <path id="Path_323058" data-name="Path 323058" d="M220.871,317.022H213.02v-4.567h7.851Zm-6.4-1.447h4.957V313.9h-4.957Z" transform="translate(-22.8 -33.443)" fill="#003273"/>
          <path id="Path_323059" data-name="Path 323059" d="M179.162,32.44l-1.219,2.525a9.474,9.474,0,0,0-4.07-1.326c-.835,0-1.4.31-1.4.927,0,2.2,6.723.945,6.723,5.542,0,2.545-2.252,3.889-5.086,3.889a9.478,9.478,0,0,1-5.815-2.035l1.253-2.489a7.939,7.939,0,0,0,4.6,1.907c1.019,0,1.654-.381,1.654-1.109,0-2.253-6.724-.907-6.724-5.414,0-2.345,2.017-3.834,5.07-3.834a9.55,9.55,0,0,1,5.017,1.417" transform="translate(-18.013 -3.32)" fill="#131e50"/>
          <path id="Path_323060" data-name="Path 323060" d="M189.394,33.782V43.9h-3.234V33.782h-3.8V31.165h10.867v2.617Z" transform="translate(-19.519 -3.336)" fill="#131e50"/>
          <path id="Path_323061" data-name="Path 323061" d="M198.878,37.533a3.7,3.7,0,0,0,3.6,3.8,3.784,3.784,0,1,0-3.6-3.8m10.45-.019a6.888,6.888,0,0,1-13.757,0c0-3.708,2.945-6.452,6.87-6.452,3.943,0,6.887,2.763,6.887,6.452" transform="translate(-20.932 -3.325)" fill="#131e50"/>
          <path id="Path_323062" data-name="Path 323062" d="M219.28,37.781c1.4,0,2.217-.708,2.217-2.053,0-1.328-.817-2-2.217-2h-2.454v4.052Zm.091,2.544h-2.545v3.58h-3.235V31.184h5.689c3.36,0,5.289,1.6,5.289,4.434a4.239,4.239,0,0,1-2.308,4.089l2.671,4.2h-3.671Z" transform="translate(-22.861 -3.338)" fill="#131e50"/>
          <path id="Path_323063" data-name="Path 323063" d="M232.263,33.729v2.526h6.069V38.8h-6.069v2.562h6.923V43.9H229.029V31.185h9.957v2.544Z" transform="translate(-24.514 -3.338)" fill="#131e50"/>
          <path id="Path_323064" data-name="Path 323064" d="M248.371,38.908l-1.69,1.871v3.127h-3.234V31.185h3.234v5.507l4.871-5.507h3.743l-4.726,5.27,5.035,7.451h-3.871Z" transform="translate(-26.057 -3.338)" fill="#da4e29"/>
          <rect id="Rectangle_33830" data-name="Rectangle 33830" width="3.234" height="12.72" transform="translate(231.591 27.847)" fill="#da4e29"/>
          <path id="Path_323065" data-name="Path 323065" d="M275.411,43.905l-5.85-7.831v7.831h-3.036V31.185h2.853l5.869,7.85v-7.85h3.017v12.72Z" transform="translate(-28.527 -3.338)" fill="#da4e29"/>
          <path id="Path_323066" data-name="Path 323066" d="M294.371,37.424v4.961a9.994,9.994,0,0,1-5.288,1.653,6.513,6.513,0,0,1-6.8-6.5c0-3.689,3-6.47,7.015-6.47a8.131,8.131,0,0,1,5.2,1.89l-1.816,2.2a5.22,5.22,0,0,0-3.4-1.381,3.78,3.78,0,0,0,.037,7.558,5.406,5.406,0,0,0,2.252-.617V37.424Z" transform="translate(-30.214 -3.325)" fill="#da4e29"/>
          <path id="Path_323067" data-name="Path 323067" d="M154.463,17.77a4.231,4.231,0,1,1-8.327,1.031,4.309,4.309,0,0,1,.125-1.031h-3.632a4.309,4.309,0,0,1,.125,1.031,4.226,4.226,0,1,1-8.452,0,4.309,4.309,0,0,1,.125-1.031h-2.586l2.441,9.64H155.1l2.5-9.64Z" transform="translate(-14.111 -1.902)" fill="#131e50"/>
          <path id="Path_323068" data-name="Path 323068" d="M135.671,17.47a2.482,2.482,0,1,1-2.483-2.5,2.492,2.492,0,0,1,2.483,2.5" transform="translate(-13.99 -1.602)" fill="#da4e29"/>
          <path id="Path_323069" data-name="Path 323069" d="M161.279,17.47a2.483,2.483,0,1,1-2.484-2.5,2.492,2.492,0,0,1,2.484,2.5" transform="translate(-16.731 -1.602)" fill="#da4e29"/>
          <path id="Path_323070" data-name="Path 323070" d="M151.191,55.185a2.351,2.351,0,1,1,2.334-2.351,2.345,2.345,0,0,1-2.334,2.351" transform="translate(-15.933 -5.403)" fill="#131e50"/>
          <path id="Path_323071" data-name="Path 323071" d="M138.018,55.185a2.351,2.351,0,1,1,2.334-2.351,2.345,2.345,0,0,1-2.334,2.351" transform="translate(-14.523 -5.403)" fill="#131e50"/>
          <path id="Path_323072" data-name="Path 323072" d="M154.866,29.944H131.387v0l-1.524-5.313a2.138,2.138,0,0,0-1.962-1.393l-3.149,0a1.348,1.348,0,0,0,0,2.7l2.657-.015a.022.022,0,0,1,.021.017l5.459,19.009a2.364,2.364,0,0,0,2.1,1.385h15.889a1.345,1.345,0,0,0,1.338-1.258,1.264,1.264,0,0,0-1.339-1.364l-15.524.012a.021.021,0,0,1-.021-.016l-.563-1.96H152.5a1.314,1.314,0,0,0,0-2.62H134.018l-.563-1.968H153.54a1.31,1.31,0,0,0,0-2.62H132.7l-.563-1.969h22.727a1.31,1.31,0,0,0,0-2.62" transform="translate(-13.209 -2.487)" fill="#131e50"/>
          <path id="Path_323073" data-name="Path 323073" d="M296.624,26.463a3.752,3.752,0,0,1,.452-1.812,3.374,3.374,0,0,1,1.251-1.316,3.336,3.336,0,0,1,3.452,0,3.387,3.387,0,0,1,1.249,1.316,3.865,3.865,0,0,1,0,3.624,3.439,3.439,0,0,1-1.245,1.321,3.325,3.325,0,0,1-3.457,0,3.425,3.425,0,0,1-1.248-1.319,3.735,3.735,0,0,1-.454-1.816m6.266,0a3.145,3.145,0,0,0-.363-1.489,2.833,2.833,0,0,0-1.023-1.1,2.693,2.693,0,0,0-1.45-.413,2.725,2.725,0,0,0-1.428.4,2.811,2.811,0,0,0-1.036,1.09,3.247,3.247,0,0,0,0,3.032,2.841,2.841,0,0,0,1.034,1.1,2.737,2.737,0,0,0,2.87-.007,2.824,2.824,0,0,0,1.031-1.105,3.166,3.166,0,0,0,.367-1.5m-3.532.37v1.628h-.73V24.352h1.357a1.828,1.828,0,0,1,1.156.327,1.112,1.112,0,0,1,.415.93.949.949,0,0,1-.58.87.841.841,0,0,1,.439.408,1.555,1.555,0,0,1,.126.662c0,.263.005.449.017.558a.914.914,0,0,0,.065.275v.078h-.749a3.844,3.844,0,0,1-.063-.938.734.734,0,0,0-.16-.529.724.724,0,0,0-.531-.162Zm0-.647h.691a.986.986,0,0,0,.558-.15.468.468,0,0,0,.224-.411.593.593,0,0,0-.171-.48,1.023,1.023,0,0,0-.621-.147h-.681Z" transform="translate(-31.748 -2.446)" fill="#131e50"/>
          <path id="Path_323074" data-name="Path 323074" d="M148.552,15.133a2.9,2.9,0,1,1-2.9-2.917,2.907,2.907,0,0,1,2.9,2.917" transform="translate(-15.28 -1.308)" fill="#da4e29"/>
        </g>
      </g>
    </g>
  </g>
</svg>
